<svg width="22" height="12" viewBox="0 0 22 12" fill="none" xmlns="http://www.w3.org/2000/svg">
<path d="M8.19141 11.7422C7.89844 11.7422 7.51172 11.7363 7.03125 11.7246C6.5625 11.7246 6.00586 11.7188 5.36133 11.707C4.7168 11.6953 4.13086 11.6836 3.60352 11.6719C3.07617 11.6719 2.60742 11.6719 2.19727 11.6719L0.0703125 11.7246C0.0351562 11.6895 0.0175781 11.5957 0.0175781 11.4434C0.0175781 11.291 0.0351562 11.2148 0.0703125 11.2148C0.175781 11.2148 0.316406 11.1973 0.492188 11.1621C0.667969 11.1152 0.832031 11.0625 0.984375 11.0039C1.14844 10.9453 1.24805 10.8809 1.2832 10.8105C1.36523 10.6816 1.40625 10.1309 1.40625 9.1582V2.51367C1.40625 2.17383 1.39453 1.875 1.37109 1.61719C1.35938 1.35938 1.33008 1.1543 1.2832 1.00195C1.25977 0.931641 1.16602 0.867188 1.00195 0.808594C0.849609 0.75 0.679688 0.703125 0.492188 0.667969C0.316406 0.632812 0.175781 0.615234 0.0703125 0.615234C0.0234375 0.615234 0 0.544922 0 0.404297C0 0.251953 0.0234375 0.152344 0.0703125 0.105469C0.375 0.117187 0.697266 0.128906 1.03711 0.140625C1.38867 0.140625 1.76367 0.140625 2.16211 0.140625C2.43164 0.140625 2.79492 0.134766 3.25195 0.123047C3.70898 0.111328 4.25977 0.09375 4.9043 0.0703125C5.56055 0.046875 6.12891 0.0292969 6.60938 0.0175781C7.10156 0.00585938 7.51172 0 7.83984 0C7.86328 0.164063 7.89844 0.363281 7.94531 0.597656C7.99219 0.820312 8.05078 1.06641 8.12109 1.33594C8.17969 1.61719 8.22656 1.8457 8.26172 2.02148C8.30859 2.19727 8.33789 2.32031 8.34961 2.39062C8.29102 2.44922 8.18555 2.47852 8.0332 2.47852C7.88086 2.47852 7.79883 2.4375 7.78711 2.35547C7.61133 1.71094 7.36523 1.30078 7.04883 1.125C6.73242 0.9375 6.29883 0.84375 5.74805 0.84375H4.57031C3.55078 0.84375 3.03516 0.919922 3.02344 1.07227C3 1.21289 2.97656 1.40625 2.95312 1.65234C2.94141 1.89844 2.93555 2.19727 2.93555 2.54883V5.36133C2.93555 5.43164 3.1875 5.4668 3.69141 5.4668H4.62305C5.02148 5.4668 5.29102 5.4668 5.43164 5.4668C5.57227 5.45508 5.67188 5.4375 5.73047 5.41406C5.80078 5.39062 5.92969 5.35547 6.11719 5.30859C6.23438 5.28516 6.32227 5.15039 6.38086 4.9043C6.45117 4.64648 6.50977 4.43555 6.55664 4.27148C6.56836 4.18945 6.65625 4.14844 6.82031 4.14844C6.96094 4.14844 7.06055 4.17773 7.11914 4.23633V7.55859C7.07227 7.60547 6.97852 7.62891 6.83789 7.62891C6.68555 7.62891 6.5918 7.58203 6.55664 7.48828C6.50977 7.32422 6.46875 7.18359 6.43359 7.06641C6.39844 6.94922 6.36914 6.84961 6.3457 6.76758C6.28711 6.60352 6.24023 6.50977 6.20508 6.48633C6.18164 6.46289 6.13477 6.42773 6.06445 6.38086C5.90039 6.28711 5.2793 6.24023 4.20117 6.24023C3.35742 6.24023 2.93555 6.29297 2.93555 6.39844V9.12305C2.93555 9.88477 2.98828 10.418 3.09375 10.7227C3.12891 10.8398 3.52734 10.8984 4.28906 10.8984H5.13281C6.21094 10.8984 6.94922 10.7988 7.34766 10.5996C7.52344 10.5059 7.7168 10.3008 7.92773 9.98438C8.15039 9.65625 8.32617 9.26953 8.45508 8.82422C8.47852 8.75391 8.56055 8.71875 8.70117 8.71875C8.92383 8.71875 9.07031 8.75391 9.14062 8.82422C9.10547 8.91797 9.04688 9.06445 8.96484 9.26367C8.89453 9.45117 8.82422 9.64453 8.75391 9.84375C8.68359 10.043 8.625 10.2129 8.57812 10.3535C8.50781 10.5645 8.43164 10.8047 8.34961 11.0742C8.26758 11.3438 8.21484 11.5664 8.19141 11.7422ZM19.8984 11.7598C19.7109 11.7598 19.5176 11.625 19.3184 11.3555L12.498 1.6875V9.19336C12.498 9.99023 12.5391 10.5352 12.6211 10.8281C12.6445 10.875 12.7441 10.9336 12.9199 11.0039C13.1074 11.0625 13.3066 11.1152 13.5176 11.1621C13.7285 11.1973 13.8691 11.2148 13.9395 11.2148C13.9746 11.2148 13.9922 11.2852 13.9922 11.4258C14.0039 11.5664 13.998 11.666 13.9746 11.7246C13.3887 11.7012 12.9258 11.6836 12.5859 11.6719C12.2578 11.6484 12.0469 11.6367 11.9531 11.6367L9.93164 11.7246C9.89648 11.6895 9.87891 11.6016 9.87891 11.4609C9.87891 11.2969 9.89648 11.2148 9.93164 11.2148C10.0488 11.2148 10.2129 11.1973 10.4238 11.1621C10.6348 11.1152 10.834 11.0625 11.0215 11.0039C11.209 10.9336 11.3145 10.8633 11.3379 10.793C11.4551 10.5117 11.5137 9.96094 11.5137 9.14062V2.23242C11.5137 1.63477 11.4727 1.19531 11.3906 0.914062C11.3672 0.84375 11.2617 0.785156 11.0742 0.738281C10.8984 0.679687 10.7051 0.632812 10.4941 0.597656C10.2832 0.5625 10.1191 0.544922 10.002 0.544922C9.95508 0.544922 9.93164 0.46875 9.93164 0.316406C9.93164 0.175781 9.95508 0.0820312 10.002 0.0351562C10.459 0.046875 10.834 0.0585938 11.127 0.0703125C11.4316 0.0703125 11.6543 0.0703125 11.7949 0.0703125C12.0996 0.0703125 12.3691 0.0703125 12.6035 0.0703125C12.8379 0.0585938 13.0371 0.046875 13.2012 0.0351562C13.4238 0.433594 14.0273 1.35352 15.0117 2.79492C16.0078 4.22461 17.3906 6.17578 19.1602 8.64844C19.1953 8.44922 19.2129 8.20898 19.2129 7.92773V2.46094C19.2129 1.72266 19.1719 1.20703 19.0898 0.914062C19.0664 0.84375 18.9609 0.779297 18.7734 0.720703C18.5859 0.662109 18.3867 0.615234 18.1758 0.580078C17.9648 0.533203 17.8066 0.509766 17.7012 0.509766C17.6543 0.509766 17.6309 0.439453 17.6309 0.298828C17.6309 0.169922 17.6543 0.0820312 17.7012 0.0351562C17.8066 0.0351562 17.9824 0.046875 18.2285 0.0703125C18.4746 0.0820312 18.7383 0.0996094 19.0195 0.123047C19.3125 0.134766 19.5645 0.140625 19.7754 0.140625C20.0801 0.140625 20.4668 0.123047 20.9355 0.0878906C21.3926 0.0527344 21.6621 0.0351562 21.7441 0.0351562C21.7676 0.128906 21.7793 0.216797 21.7793 0.298828C21.7793 0.439453 21.7559 0.509766 21.709 0.509766C21.6387 0.509766 21.4922 0.533203 21.2695 0.580078C21.0469 0.626953 20.8359 0.679687 20.6367 0.738281C20.4492 0.796875 20.3438 0.855469 20.3203 0.914062C20.2734 1.10156 20.2383 1.33008 20.2148 1.59961C20.1914 1.86914 20.1797 2.18555 20.1797 2.54883V9.22852C20.1797 9.95508 20.1973 10.7754 20.2324 11.6895C20.1855 11.7363 20.0742 11.7598 19.8984 11.7598Z" fill="black"/>
</svg>
