<svg width="17" height="16" viewBox="0 0 17 16" fill="none" xmlns="http://www.w3.org/2000/svg">
<path d="M1.125 15.627C0.996094 15.627 0.855469 15.6035 0.703125 15.5566C0.550781 15.5098 0.427734 15.4629 0.333984 15.416L0.210938 15.3457C0.0703125 15.1816 0 14.9648 0 14.6953C0 14.4375 0.111328 14.2266 0.333984 14.0625C0.544922 13.8984 0.796875 13.8164 1.08984 13.8164C1.30078 13.8164 1.54102 13.9453 1.81055 14.2031C2.08008 14.4492 2.28516 14.5723 2.42578 14.5723C2.75391 14.5723 3.08789 14.25 3.42773 13.6055C3.5918 13.2891 3.72656 12.8379 3.83203 12.252C3.9375 11.6777 3.99023 11.0215 3.99023 10.2832V2.44336C3.99023 2.08008 3.97852 1.76953 3.95508 1.51172C3.94336 1.24219 3.91406 1.03125 3.86719 0.878906C3.84375 0.808594 3.75586 0.75 3.60352 0.703125C3.45117 0.644531 3.28711 0.597656 3.11133 0.5625C2.93555 0.527344 2.79492 0.509766 2.68945 0.509766C2.64258 0.509766 2.61914 0.433594 2.61914 0.28125C2.61914 0.140625 2.64258 0.046875 2.68945 0C2.79492 0 2.9707 0.0117187 3.2168 0.0351562C3.47461 0.046875 3.75 0.0644531 4.04297 0.0878906C4.33594 0.0996094 4.58789 0.105469 4.79883 0.105469C5.17383 0.105469 5.54883 0.09375 5.92383 0.0703125C6.29883 0.0351562 6.60352 0.0117187 6.83789 0C6.86133 0.09375 6.87305 0.181641 6.87305 0.263672C6.87305 0.427734 6.84961 0.509766 6.80273 0.509766C6.73242 0.509766 6.60938 0.533203 6.43359 0.580078C6.25781 0.615234 6.09375 0.662109 5.94141 0.720703C5.78906 0.767578 5.70117 0.820312 5.67773 0.878906C5.57227 1.27734 5.51953 1.82227 5.51953 2.51367V10.1426C5.51953 10.8809 5.4082 11.5781 5.18555 12.2344C4.97461 12.9023 4.66992 13.4883 4.27148 13.9922C3.88477 14.4961 3.42188 14.8945 2.88281 15.1875C2.34375 15.4805 1.75781 15.627 1.125 15.627ZM8.10352 11.6895C8.06836 11.6543 8.05078 11.5488 8.05078 11.373C8.05078 11.2207 8.06836 11.1445 8.10352 11.1445C8.2207 11.1445 8.36133 11.127 8.52539 11.0918C8.70117 11.0566 8.86523 11.0156 9.01758 10.9688C9.18164 10.9102 9.28125 10.8457 9.31641 10.7754C9.39844 10.6465 9.43945 10.0957 9.43945 9.12305V2.47852C9.43945 2.13867 9.42773 1.83984 9.4043 1.58203C9.39258 1.32422 9.36328 1.11914 9.31641 0.966797C9.29297 0.896484 9.19922 0.832031 9.03516 0.773438C8.88281 0.714844 8.71289 0.667969 8.52539 0.632812C8.34961 0.597656 8.20898 0.580078 8.10352 0.580078C8.05664 0.580078 8.0332 0.509766 8.0332 0.369141C8.0332 0.216797 8.05664 0.117187 8.10352 0.0703125L10.2129 0.105469C10.3887 0.105469 10.582 0.105469 10.793 0.105469C11.0039 0.09375 11.2266 0.0820312 11.4609 0.0703125C11.6953 0.0585938 11.918 0.0527344 12.1289 0.0527344C12.3398 0.0410156 12.5273 0.0351562 12.6914 0.0351562C13.0781 0.0351562 13.4707 0.09375 13.8691 0.210938C14.2676 0.328125 14.6484 0.503906 15.0117 0.738281C15.3867 0.972656 15.6855 1.30664 15.9082 1.74023C16.1426 2.17383 16.2598 2.67773 16.2598 3.25195C16.2598 3.61523 16.1836 4.00195 16.0312 4.41211C15.8789 4.82227 15.6504 5.20898 15.3457 5.57227C15.0527 5.92383 14.6777 6.21094 14.2207 6.43359C13.7754 6.65625 13.2598 6.76758 12.6738 6.76758C12.0176 6.76758 11.5664 6.60352 11.3203 6.27539C11.25 6.19336 11.2324 6.05859 11.2676 5.87109C11.291 5.8125 11.3086 5.79492 11.3203 5.81836C11.6836 5.94727 12.0762 6.01172 12.498 6.01172C12.8965 6.01172 13.2539 5.90039 13.5703 5.67773C13.8984 5.44336 14.1562 5.13867 14.3438 4.76367C14.543 4.37695 14.6426 3.96094 14.6426 3.51562C14.6426 2.68359 14.4609 2.02734 14.0977 1.54688C13.7344 1.05469 13.1719 0.808594 12.4102 0.808594C11.8711 0.808594 11.4609 0.849609 11.1797 0.931641C11.0742 0.943359 11.0098 1.125 10.9863 1.47656C10.9746 1.82812 10.9688 2.29102 10.9688 2.86523V9.14062C10.9688 9.91406 11.0156 10.4238 11.1094 10.6699C11.1562 10.7637 11.2676 10.8516 11.4434 10.9336C11.6309 11.0156 11.8301 11.0801 12.041 11.127C12.252 11.1621 12.4043 11.1797 12.498 11.1797C12.5449 11.1797 12.5684 11.2617 12.5684 11.4258C12.5684 11.5078 12.5566 11.5957 12.5332 11.6895C11.9473 11.666 11.4609 11.6484 11.0742 11.6367C10.6992 11.6133 10.4238 11.6016 10.248 11.6016L8.10352 11.6895Z" fill="black"/>
</svg>
