<svg width="159" height="292" viewBox="0 0 159 292" fill="none" xmlns="http://www.w3.org/2000/svg">
<path d="M4.91406 288.715C4.8776 288.678 4.85938 288.61 4.85938 288.51C4.85938 288.382 4.8776 288.318 4.91406 288.318C4.99609 288.318 5.10547 288.309 5.24219 288.291C5.37891 288.264 5.50651 288.227 5.625 288.182C5.74349 288.136 5.81185 288.09 5.83008 288.045C5.86654 287.917 5.88932 287.753 5.89844 287.553C5.91667 287.352 5.92578 287.111 5.92578 286.828V281.523C5.92578 281.241 5.91667 280.999 5.89844 280.799C5.88932 280.589 5.86654 280.425 5.83008 280.307C5.81185 280.252 5.74349 280.206 5.625 280.17C5.50651 280.124 5.37891 280.088 5.24219 280.061C5.10547 280.033 4.99609 280.02 4.91406 280.02C4.8776 280.02 4.85938 279.96 4.85938 279.842C4.85938 279.732 4.8776 279.66 4.91406 279.623C4.99609 279.623 5.13281 279.632 5.32422 279.65C5.52474 279.66 5.73893 279.673 5.9668 279.691C6.19466 279.701 6.39062 279.705 6.55469 279.705C6.84635 279.705 7.13802 279.696 7.42969 279.678C7.72135 279.65 7.95833 279.632 8.14062 279.623C8.15885 279.66 8.16341 279.737 8.1543 279.855C8.1543 279.965 8.14062 280.02 8.11328 280.02C8.05859 280.02 7.96289 280.038 7.82617 280.074C7.68945 280.102 7.56185 280.138 7.44336 280.184C7.32487 280.22 7.25651 280.261 7.23828 280.307C7.15625 280.617 7.11523 281.04 7.11523 281.578V283.615L7.14258 283.656C7.58919 283.665 7.98568 283.674 8.33203 283.684C8.67839 283.684 8.97461 283.684 9.2207 283.684C9.48503 283.684 9.78581 283.684 10.123 283.684C10.4603 283.674 10.834 283.665 11.2441 283.656C11.2624 283.638 11.2715 283.62 11.2715 283.602V281.523C11.2715 281.241 11.2624 280.999 11.2441 280.799C11.235 280.589 11.2122 280.425 11.1758 280.307C11.1576 280.252 11.0892 280.206 10.9707 280.17C10.8522 280.124 10.7246 280.088 10.5879 280.061C10.4512 280.033 10.3418 280.02 10.2598 280.02C10.2233 280.02 10.2051 279.96 10.2051 279.842C10.2051 279.732 10.2233 279.66 10.2598 279.623C10.3327 279.623 10.4694 279.632 10.6699 279.65C10.8704 279.66 11.0846 279.673 11.3125 279.691C11.5495 279.701 11.75 279.705 11.9141 279.705C12.2057 279.705 12.4928 279.696 12.7754 279.678C13.0579 279.65 13.2904 279.632 13.4727 279.623C13.4909 279.696 13.5 279.764 13.5 279.828C13.5 279.956 13.4818 280.02 13.4453 280.02C13.3906 280.02 13.2949 280.038 13.1582 280.074C13.0215 280.102 12.8939 280.138 12.7754 280.184C12.6569 280.22 12.5885 280.261 12.5703 280.307C12.5339 280.452 12.5065 280.63 12.4883 280.84C12.4701 281.049 12.4609 281.296 12.4609 281.578V286.773C12.4609 287.056 12.4701 287.302 12.4883 287.512C12.5065 287.721 12.5339 287.899 12.5703 288.045C12.5885 288.081 12.6569 288.122 12.7754 288.168C12.8939 288.214 13.0215 288.25 13.1582 288.277C13.2949 288.305 13.3906 288.318 13.4453 288.318C13.4818 288.318 13.5 288.387 13.5 288.523C13.5 288.578 13.4909 288.642 13.4727 288.715C13.0169 288.697 12.6569 288.683 12.3926 288.674C12.1374 288.656 11.9779 288.646 11.9141 288.646L10.2598 288.715C10.2233 288.678 10.2051 288.601 10.2051 288.482C10.2051 288.373 10.2233 288.318 10.2598 288.318C10.3418 288.318 10.4512 288.309 10.5879 288.291C10.7246 288.264 10.8522 288.227 10.9707 288.182C11.0892 288.136 11.1576 288.09 11.1758 288.045C11.2122 287.917 11.235 287.753 11.2441 287.553C11.2624 287.352 11.2715 287.111 11.2715 286.828V284.422L11.2441 284.367C10.8158 284.358 10.4329 284.354 10.0957 284.354C9.75846 284.344 9.4668 284.34 9.2207 284.34C7.81706 284.34 7.11523 284.363 7.11523 284.408V286.773C7.11523 287.302 7.15625 287.726 7.23828 288.045C7.25651 288.081 7.32487 288.122 7.44336 288.168C7.56185 288.214 7.68945 288.25 7.82617 288.277C7.96289 288.305 8.05859 288.318 8.11328 288.318C8.14062 288.318 8.1543 288.373 8.1543 288.482C8.16341 288.592 8.15885 288.669 8.14062 288.715C7.6849 288.697 7.32487 288.683 7.06055 288.674C6.79622 288.656 6.6276 288.646 6.55469 288.646L4.91406 288.715ZM17.5059 288.77C16.959 288.77 16.4577 288.633 16.002 288.359C15.5462 288.086 15.1816 287.717 14.9082 287.252C14.6439 286.787 14.5117 286.277 14.5117 285.721C14.5117 285.156 14.6393 284.645 14.8945 284.189C15.1589 283.734 15.5143 283.374 15.9609 283.109C16.4076 282.836 16.9134 282.699 17.4785 282.699C18.0254 282.699 18.5221 282.836 18.9688 283.109C19.4245 283.383 19.7845 283.747 20.0488 284.203C20.3223 284.659 20.459 285.165 20.459 285.721C20.459 286.277 20.3268 286.787 20.0625 287.252C19.7982 287.717 19.4427 288.086 18.9961 288.359C18.5586 288.633 18.0618 288.77 17.5059 288.77ZM17.6289 288.236C17.957 288.236 18.2441 288.132 18.4902 287.922C18.7363 287.712 18.9277 287.43 19.0645 287.074C19.2103 286.719 19.2832 286.331 19.2832 285.912C19.2832 285.42 19.1921 284.973 19.0098 284.572C18.8275 284.162 18.5859 283.839 18.2852 283.602C17.9935 283.355 17.6745 283.232 17.3281 283.232C17.0091 283.232 16.722 283.337 16.4668 283.547C16.2207 283.747 16.0293 284.021 15.8926 284.367C15.7559 284.704 15.6875 285.087 15.6875 285.516C15.6875 286.008 15.7741 286.464 15.9473 286.883C16.1296 287.293 16.3665 287.621 16.6582 287.867C16.959 288.113 17.2826 288.236 17.6289 288.236ZM23.3711 288.824C23.0885 288.824 22.8333 288.792 22.6055 288.729C22.3776 288.665 22.0996 288.61 21.7715 288.564C21.735 288.464 21.6986 288.327 21.6621 288.154C21.6257 287.981 21.5938 287.799 21.5664 287.607C21.5482 287.416 21.5391 287.261 21.5391 287.143C21.612 287.088 21.6667 287.061 21.7031 287.061C21.8398 287.061 21.9128 287.088 21.9219 287.143C21.9583 287.325 22.0495 287.507 22.1953 287.689C22.3411 287.872 22.5189 288.027 22.7285 288.154C22.9382 288.273 23.1523 288.332 23.3711 288.332C23.6628 288.332 23.8997 288.255 24.082 288.1C24.2734 287.936 24.3691 287.703 24.3691 287.402C24.3691 287.083 24.2461 286.819 24 286.609C23.8086 286.454 23.6445 286.345 23.5078 286.281C23.3802 286.208 23.2526 286.145 23.125 286.09C23.0065 286.026 22.8561 285.939 22.6738 285.83C21.9629 285.42 21.6074 284.932 21.6074 284.367C21.6074 284.039 21.6986 283.752 21.8809 283.506C22.0632 283.251 22.3047 283.055 22.6055 282.918C22.9154 282.772 23.2435 282.699 23.5898 282.699C23.6901 282.699 23.804 282.708 23.9316 282.727C24.0592 282.736 24.2005 282.749 24.3555 282.768C24.5104 282.795 24.638 282.818 24.7383 282.836C24.8385 282.854 24.9206 282.868 24.9844 282.877C25.0846 283.296 25.1393 283.761 25.1484 284.271C25.1484 284.317 25.0892 284.34 24.9707 284.34C24.8431 284.34 24.7747 284.308 24.7656 284.244C24.7201 283.989 24.5879 283.747 24.3691 283.52C24.1595 283.292 23.918 283.178 23.6445 283.178C22.9883 283.178 22.6602 283.447 22.6602 283.984C22.6602 284.121 22.6738 284.244 22.7012 284.354C22.7376 284.454 22.8151 284.549 22.9336 284.641C23.2161 284.859 23.5488 285.078 23.9316 285.297C24.3236 285.516 24.6471 285.721 24.9023 285.912C25.2852 286.204 25.4766 286.546 25.4766 286.938C25.4766 287.293 25.3809 287.617 25.1895 287.908C24.998 288.191 24.7428 288.414 24.4238 288.578C24.1048 288.742 23.7539 288.824 23.3711 288.824ZM28.5801 288.77C28.1243 288.77 27.7415 288.619 27.4316 288.318C27.1309 288.018 26.9805 287.589 26.9805 287.033V283.561H26.1875C26.1419 283.561 26.1191 283.465 26.1191 283.273C26.1191 283.219 26.1237 283.187 26.1328 283.178C26.4062 283.05 26.6934 282.809 26.9941 282.453C27.2038 282.207 27.3587 281.993 27.459 281.811C27.5684 281.628 27.623 281.519 27.623 281.482C27.8965 281.482 28.0332 281.505 28.0332 281.551V282.904L29.1133 282.918H29.8789C29.9518 282.918 29.9883 282.959 29.9883 283.041C29.9883 283.214 29.9427 283.387 29.8516 283.561H28.0332V286.91C28.0332 287.275 28.1243 287.566 28.3066 287.785C28.498 288.004 28.7441 288.113 29.0449 288.113C29.3275 288.113 29.61 288.027 29.8926 287.854C29.9199 287.835 29.9609 287.876 30.0156 287.977C30.0703 288.068 30.0931 288.118 30.084 288.127C29.9473 288.273 29.7376 288.419 29.4551 288.564C29.1725 288.701 28.8809 288.77 28.5801 288.77ZM33.4473 288.756C32.946 288.756 32.4857 288.624 32.0664 288.359C31.6471 288.095 31.3099 287.744 31.0547 287.307C30.8086 286.86 30.6855 286.363 30.6855 285.816C30.6855 285.178 30.804 284.627 31.041 284.162C31.278 283.697 31.6016 283.342 32.0117 283.096C32.4219 282.84 32.8822 282.713 33.3926 282.713C33.8118 282.713 34.181 282.795 34.5 282.959C34.819 283.114 35.0651 283.314 35.2383 283.561C35.4023 283.816 35.5208 284.076 35.5938 284.34C35.6758 284.595 35.7168 284.85 35.7168 285.105C35.7168 285.288 35.6895 285.402 35.6348 285.447C35.5801 285.484 35.4753 285.502 35.3203 285.502H31.875C31.8021 285.502 31.7656 285.525 31.7656 285.57C31.7656 285.953 31.8431 286.322 31.998 286.678C32.153 287.024 32.3809 287.311 32.6816 287.539C32.9824 287.767 33.3516 287.881 33.7891 287.881C34.1719 287.881 34.4909 287.826 34.7461 287.717C35.0104 287.598 35.2018 287.493 35.3203 287.402L35.416 287.334C35.4707 287.334 35.498 287.393 35.498 287.512C35.498 287.576 35.4707 287.658 35.416 287.758C35.2337 288.013 34.9648 288.245 34.6094 288.455C34.2539 288.656 33.8665 288.756 33.4473 288.756ZM31.875 284.928H34.541C34.5866 284.928 34.6094 284.882 34.6094 284.791C34.6094 284.59 34.5547 284.372 34.4453 284.135C34.3451 283.889 34.1901 283.674 33.9805 283.492C33.7708 283.31 33.5065 283.219 33.1875 283.219C32.8958 283.219 32.6452 283.319 32.4355 283.52C32.2259 283.711 32.0664 283.934 31.957 284.189C31.8477 284.436 31.793 284.65 31.793 284.832C31.793 284.896 31.8203 284.928 31.875 284.928ZM40.8301 288.756C40.7754 288.756 40.748 288.678 40.748 288.523V288.359C40.748 288.314 40.7298 288.296 40.6934 288.305C40.1921 288.587 39.709 288.729 39.2441 288.729C38.7428 288.729 38.2871 288.605 37.877 288.359C37.4759 288.104 37.1569 287.771 36.9199 287.361C36.6921 286.942 36.5781 286.486 36.5781 285.994C36.5781 285.557 36.6602 285.137 36.8242 284.736C36.9974 284.335 37.2253 283.98 37.5078 283.67C37.7995 283.351 38.1276 283.105 38.4922 282.932C38.8568 282.749 39.235 282.658 39.627 282.658C40.0189 282.658 40.3607 282.736 40.6523 282.891C40.7161 282.891 40.748 282.809 40.748 282.645V281.168C40.748 280.858 40.7207 280.566 40.666 280.293C40.6296 280.147 40.3971 280.074 39.9688 280.074H39.8457C39.791 280.074 39.7637 280.024 39.7637 279.924C39.7637 279.778 39.791 279.705 39.8457 279.705C40.3561 279.66 40.7572 279.591 41.0488 279.5C41.3496 279.409 41.5638 279.318 41.6914 279.227L41.7461 279.186H41.7734C41.8099 279.186 41.8464 279.213 41.8828 279.268C41.9193 279.313 41.9421 279.359 41.9512 279.404C41.8509 279.705 41.8008 280.102 41.8008 280.594V286.746C41.8008 287.174 41.8281 287.521 41.8828 287.785C41.9102 287.876 41.9876 287.936 42.1152 287.963C42.252 287.981 42.3932 287.999 42.5391 288.018L42.6621 288.031C42.6895 288.04 42.7031 288.095 42.7031 288.195C42.7031 288.332 42.6758 288.4 42.6211 288.4C42.3203 288.419 42.0104 288.469 41.6914 288.551C41.3724 288.624 41.1263 288.683 40.9531 288.729L40.8301 288.756ZM39.7637 288.059C40.0736 288.059 40.3151 287.99 40.4883 287.854C40.6615 287.708 40.748 287.516 40.748 287.279V284.025C40.748 283.834 40.6432 283.656 40.4336 283.492C40.2331 283.319 39.9049 283.232 39.4492 283.232C39.1029 283.232 38.8021 283.342 38.5469 283.561C38.2917 283.779 38.0957 284.071 37.959 284.436C37.8223 284.791 37.7539 285.178 37.7539 285.598C37.7539 286.035 37.8314 286.441 37.9863 286.814C38.1504 287.188 38.3828 287.489 38.6836 287.717C38.9844 287.945 39.3444 288.059 39.7637 288.059ZM49.1973 288.756C48.8874 288.756 48.582 288.729 48.2812 288.674C47.9896 288.61 47.7982 288.578 47.707 288.578C47.625 288.578 47.5247 288.605 47.4062 288.66C47.2878 288.706 47.2148 288.729 47.1875 288.729C47.151 288.729 47.0918 288.715 47.0098 288.688C46.9368 288.66 46.9004 288.628 46.9004 288.592C46.9004 288.537 46.9277 288.364 46.9824 288.072C47.0371 287.771 47.0645 287.357 47.0645 286.828V281.168C47.0645 280.858 47.0371 280.566 46.9824 280.293C46.946 280.147 46.7135 280.074 46.2852 280.074H46.1621C46.1074 280.074 46.0801 280.024 46.0801 279.924C46.0801 279.778 46.1074 279.705 46.1621 279.705C46.6725 279.66 47.0736 279.591 47.3652 279.5C47.666 279.409 47.8802 279.318 48.0078 279.227L48.0625 279.186H48.0898C48.1263 279.186 48.1628 279.213 48.1992 279.268C48.2357 279.313 48.2585 279.359 48.2676 279.404C48.1673 279.705 48.1172 280.102 48.1172 280.594V282.986C48.1172 283.087 48.1309 283.137 48.1582 283.137C48.1673 283.137 48.1719 283.137 48.1719 283.137C48.181 283.128 48.1901 283.123 48.1992 283.123C48.3268 283.032 48.5228 282.936 48.7871 282.836C49.0514 282.736 49.2839 282.686 49.4844 282.686C50.0677 282.686 50.569 282.827 50.9883 283.109C51.4076 283.383 51.7266 283.734 51.9453 284.162C52.1732 284.59 52.2871 285.033 52.2871 285.488C52.2871 285.926 52.2005 286.34 52.0273 286.732C51.8542 287.124 51.6172 287.475 51.3164 287.785C51.0247 288.086 50.6921 288.323 50.3184 288.496C49.9538 288.669 49.5801 288.756 49.1973 288.756ZM49.457 288.182C49.8034 288.182 50.0996 288.068 50.3457 287.84C50.5918 287.612 50.7786 287.316 50.9062 286.951C51.043 286.577 51.1113 286.186 51.1113 285.775C51.1113 285.055 50.9199 284.472 50.5371 284.025C50.1634 283.579 49.6667 283.355 49.0469 283.355C48.7917 283.355 48.5729 283.428 48.3906 283.574C48.2083 283.711 48.1172 283.911 48.1172 284.176V287.361C48.1172 287.644 48.2493 287.854 48.5137 287.99C48.7871 288.118 49.1016 288.182 49.457 288.182ZM54.0371 291.777C53.8457 291.777 53.7044 291.718 53.6133 291.6C53.5221 291.481 53.4766 291.363 53.4766 291.244C53.4766 291.053 53.5404 290.907 53.668 290.807C54.4245 290.807 54.9258 290.415 55.1719 289.631C55.2174 289.494 55.2721 289.33 55.3359 289.139C55.3997 288.947 55.4499 288.792 55.4863 288.674L53.5312 283.889C53.4857 283.779 53.4401 283.688 53.3945 283.615C53.349 283.533 53.3034 283.469 53.2578 283.424C53.1758 283.342 53.0482 283.273 52.875 283.219C52.7109 283.164 52.5788 283.137 52.4785 283.137C52.4421 283.137 52.4238 283.077 52.4238 282.959C52.4238 282.85 52.4421 282.777 52.4785 282.74C52.7246 282.749 52.9661 282.763 53.2031 282.781C53.4492 282.79 53.6999 282.795 53.9551 282.795C54.2467 282.795 54.4974 282.79 54.707 282.781C54.9167 282.763 55.1081 282.749 55.2812 282.74C55.2995 282.813 55.3086 282.882 55.3086 282.945C55.3086 283.073 55.2904 283.137 55.2539 283.137C55.2174 283.137 55.1491 283.15 55.0488 283.178C54.9577 283.205 54.8665 283.242 54.7754 283.287C54.6842 283.324 54.6296 283.369 54.6113 283.424V283.451C54.6113 283.606 55.099 284.796 56.0742 287.02L57.1133 284.025C57.1771 283.843 57.209 283.702 57.209 283.602C57.209 283.465 57.1361 283.355 56.9902 283.273C56.8535 283.182 56.6667 283.137 56.4297 283.137C56.3932 283.137 56.375 283.077 56.375 282.959C56.375 282.85 56.3932 282.777 56.4297 282.74C56.5482 282.749 56.7259 282.763 56.9629 282.781C57.1999 282.799 57.4277 282.809 57.6465 282.809C57.847 282.809 58.0658 282.799 58.3027 282.781C58.5397 282.763 58.7174 282.749 58.8359 282.74C58.8542 282.813 58.8633 282.882 58.8633 282.945C58.8633 283.073 58.8451 283.137 58.8086 283.137C58.6901 283.137 58.5306 283.178 58.3301 283.26C58.1296 283.342 57.9928 283.474 57.9199 283.656L55.4727 290.26C55.263 290.825 55.026 291.217 54.7617 291.436C54.4974 291.663 54.2559 291.777 54.0371 291.777ZM64.7012 288.715C64.6647 288.678 64.6465 288.61 64.6465 288.51C64.6465 288.382 64.6647 288.318 64.7012 288.318C64.7832 288.318 64.8926 288.309 65.0293 288.291C65.166 288.264 65.2936 288.227 65.4121 288.182C65.5306 288.136 65.599 288.09 65.6172 288.045C65.6536 287.917 65.6764 287.753 65.6855 287.553C65.7038 287.352 65.7129 287.111 65.7129 286.828V281.879C65.7129 281.086 65.6719 280.617 65.5898 280.471C65.526 280.334 65.0339 280.266 64.1133 280.266C63.7669 280.266 63.498 280.298 63.3066 280.361C63.1152 280.416 62.9694 280.53 62.8691 280.703C62.7689 280.876 62.6732 281.136 62.582 281.482C62.5638 281.528 62.5182 281.551 62.4453 281.551C62.2904 281.551 62.181 281.519 62.1172 281.455L62.377 279.5C62.5775 279.546 62.7552 279.582 62.9102 279.609C63.0651 279.637 63.2018 279.65 63.3203 279.65C63.9766 279.65 64.5553 279.66 65.0566 279.678C65.5579 279.696 65.9772 279.705 66.3145 279.705C67.0163 279.705 67.6178 279.696 68.1191 279.678C68.6296 279.66 69.0306 279.65 69.3223 279.65C69.4408 279.65 69.5775 279.637 69.7324 279.609C69.8874 279.582 70.0651 279.546 70.2656 279.5L70.5254 281.455C70.4616 281.519 70.3522 281.551 70.1973 281.551C70.1243 281.551 70.0788 281.528 70.0605 281.482C69.9785 281.136 69.8828 280.876 69.7734 280.703C69.6732 280.53 69.5273 280.416 69.3359 280.361C69.1445 280.298 68.8757 280.266 68.5293 280.266C67.5723 280.266 67.071 280.334 67.0254 280.471C66.9434 280.753 66.9023 281.209 66.9023 281.838V286.773C66.9023 287.302 66.9434 287.726 67.0254 288.045C67.0436 288.081 67.112 288.122 67.2305 288.168C67.349 288.214 67.4766 288.25 67.6133 288.277C67.75 288.305 67.8457 288.318 67.9004 288.318C67.9368 288.318 67.9551 288.387 67.9551 288.523C67.9551 288.578 67.946 288.642 67.9277 288.715C67.472 288.697 67.112 288.683 66.8477 288.674C66.5833 288.656 66.4147 288.646 66.3418 288.646L64.7012 288.715ZM73.2871 288.77C72.7402 288.77 72.2389 288.633 71.7832 288.359C71.3275 288.086 70.9629 287.717 70.6895 287.252C70.4251 286.787 70.293 286.277 70.293 285.721C70.293 285.156 70.4206 284.645 70.6758 284.189C70.9401 283.734 71.2956 283.374 71.7422 283.109C72.1888 282.836 72.6947 282.699 73.2598 282.699C73.8066 282.699 74.3034 282.836 74.75 283.109C75.2057 283.383 75.5658 283.747 75.8301 284.203C76.1035 284.659 76.2402 285.165 76.2402 285.721C76.2402 286.277 76.1081 286.787 75.8438 287.252C75.5794 287.717 75.224 288.086 74.7773 288.359C74.3398 288.633 73.8431 288.77 73.2871 288.77ZM73.4102 288.236C73.7383 288.236 74.0254 288.132 74.2715 287.922C74.5176 287.712 74.709 287.43 74.8457 287.074C74.9915 286.719 75.0645 286.331 75.0645 285.912C75.0645 285.42 74.9733 284.973 74.791 284.572C74.6087 284.162 74.3672 283.839 74.0664 283.602C73.7747 283.355 73.4557 283.232 73.1094 283.232C72.7904 283.232 72.5033 283.337 72.248 283.547C72.002 283.747 71.8105 284.021 71.6738 284.367C71.5371 284.704 71.4688 285.087 71.4688 285.516C71.4688 286.008 71.5553 286.464 71.7285 286.883C71.9108 287.293 72.1478 287.621 72.4395 287.867C72.7402 288.113 73.0638 288.236 73.4102 288.236ZM77.2656 288.715C77.2292 288.678 77.2109 288.601 77.2109 288.482C77.2109 288.373 77.2292 288.318 77.2656 288.318C77.3385 288.318 77.4388 288.305 77.5664 288.277C77.694 288.25 77.8125 288.214 77.9219 288.168C78.0312 288.122 78.0905 288.081 78.0996 288.045C78.1361 287.917 78.1589 287.771 78.168 287.607C78.1862 287.443 78.1953 287.27 78.1953 287.088V284.504C78.1953 284.158 78.1315 283.911 78.0039 283.766C77.9128 283.656 77.8034 283.583 77.6758 283.547C77.5573 283.51 77.4479 283.492 77.3477 283.492C77.2565 283.483 77.2109 283.469 77.2109 283.451C77.2109 283.232 77.2383 283.118 77.293 283.109C78.2865 282.954 78.8607 282.854 79.0156 282.809L79.248 282.74C79.2845 282.731 79.3073 282.768 79.3164 282.85C79.3255 282.932 79.3255 282.991 79.3164 283.027L79.2344 283.711C79.3984 283.465 79.6217 283.237 79.9043 283.027C80.196 282.809 80.4831 282.699 80.7656 282.699C81.2943 282.699 81.6497 282.831 81.832 283.096C81.832 283.415 81.7819 283.647 81.6816 283.793C81.5814 283.939 81.4583 284.012 81.3125 284.012C81.1484 284.012 80.998 283.934 80.8613 283.779C80.7246 283.624 80.5378 283.547 80.3008 283.547C80.1185 283.547 79.9453 283.611 79.7812 283.738C79.6172 283.857 79.485 284.012 79.3848 284.203C79.2936 284.385 79.248 284.577 79.248 284.777V286.828C79.248 287.092 79.2572 287.325 79.2754 287.525C79.2936 287.726 79.321 287.899 79.3574 288.045C79.3757 288.081 79.4395 288.122 79.5488 288.168C79.6582 288.214 79.7767 288.25 79.9043 288.277C80.041 288.305 80.1367 288.318 80.1914 288.318C80.2188 288.318 80.237 288.373 80.2461 288.482C80.2552 288.592 80.2507 288.669 80.2324 288.715L78.7559 288.646L77.2656 288.715ZM83.9375 288.77C83.5182 288.77 83.1719 288.66 82.8984 288.441C82.625 288.214 82.4883 287.876 82.4883 287.43C82.4883 286.883 82.8438 286.427 83.5547 286.062C83.8646 285.908 84.1699 285.785 84.4707 285.693C84.7806 285.602 85.0905 285.497 85.4004 285.379C85.4824 285.352 85.5234 285.283 85.5234 285.174V284.148C85.5234 283.857 85.4323 283.633 85.25 283.479C85.0677 283.314 84.849 283.232 84.5938 283.232C84.3203 283.232 84.0924 283.328 83.9102 283.52C83.7279 283.702 83.6367 283.943 83.6367 284.244C83.6367 284.563 83.4499 284.723 83.0762 284.723C82.8118 284.723 82.6341 284.636 82.543 284.463C82.543 284.271 82.6204 284.076 82.7754 283.875C82.9395 283.665 83.1491 283.474 83.4043 283.301C83.6595 283.128 83.9375 282.986 84.2383 282.877C84.5482 282.768 84.8535 282.713 85.1543 282.713C85.6556 282.713 86.0156 282.836 86.2344 283.082C86.4531 283.319 86.5625 283.706 86.5625 284.244V287.402C86.5625 287.594 86.6126 287.753 86.7129 287.881C86.8132 288.008 86.9499 288.072 87.123 288.072C87.2415 288.072 87.401 288.008 87.6016 287.881C87.638 287.881 87.6562 287.917 87.6562 287.99C87.6562 288.109 87.6335 288.204 87.5879 288.277C87.2142 288.596 86.8952 288.756 86.6309 288.756C86.4212 288.756 86.2207 288.669 86.0293 288.496C85.8379 288.323 85.7057 288.141 85.6328 287.949C85.5872 287.986 85.528 288.036 85.4551 288.1C85.3913 288.154 85.3366 288.2 85.291 288.236C85.0996 288.382 84.89 288.51 84.6621 288.619C84.4434 288.719 84.2018 288.77 83.9375 288.77ZM84.457 287.99C84.7122 287.99 84.9538 287.917 85.1816 287.771C85.4095 287.626 85.5234 287.471 85.5234 287.307V285.898C85.2865 285.99 85.0586 286.072 84.8398 286.145C84.6302 286.217 84.4616 286.277 84.334 286.322C84.1699 286.386 84.0104 286.5 83.8555 286.664C83.7096 286.828 83.6367 287.015 83.6367 287.225C83.6367 287.498 83.7188 287.694 83.8828 287.812C84.056 287.931 84.2474 287.99 84.457 287.99ZM94.2598 288.715C93.4486 288.715 92.8014 288.519 92.3184 288.127C91.8444 287.735 91.6074 287.197 91.6074 286.514C91.6074 285.921 91.8079 285.429 92.209 285.037C92.61 284.636 93.166 284.253 93.877 283.889C93.6855 283.57 93.5033 283.205 93.3301 282.795C93.166 282.385 93.084 281.979 93.084 281.578C93.084 281.232 93.1706 280.917 93.3438 280.635C93.526 280.352 93.7676 280.129 94.0684 279.965C94.3691 279.792 94.7109 279.705 95.0938 279.705C95.7044 279.705 96.1875 279.842 96.543 280.115C96.8984 280.38 97.0762 280.753 97.0762 281.236C97.0762 281.792 96.8984 282.266 96.543 282.658C96.1875 283.05 95.6862 283.447 95.0391 283.848C95.3034 284.294 95.6042 284.745 95.9414 285.201C96.2786 285.657 96.6523 286.113 97.0625 286.568C97.181 286.395 97.2858 286.227 97.377 286.062C97.4681 285.889 97.5501 285.725 97.623 285.57C97.7689 285.27 97.8418 285.069 97.8418 284.969C97.8418 284.841 97.7643 284.773 97.6094 284.764C97.4635 284.745 97.3359 284.732 97.2266 284.723C97.2083 284.668 97.1992 284.613 97.1992 284.559C97.1992 284.486 97.2129 284.436 97.2402 284.408H98.3203C98.6393 284.408 98.9219 284.399 99.168 284.381C99.4232 284.363 99.6419 284.349 99.8242 284.34C99.8698 284.367 99.8926 284.426 99.8926 284.518C99.8926 284.654 99.8652 284.723 99.8105 284.723C99.7376 284.723 99.6328 284.736 99.4961 284.764C99.3685 284.791 99.2454 284.823 99.127 284.859C99.0085 284.887 98.9219 284.919 98.8672 284.955C98.8307 284.992 98.7487 285.119 98.6211 285.338C98.4935 285.548 98.3294 285.803 98.1289 286.104C97.9284 286.404 97.7005 286.701 97.4453 286.992C97.737 287.293 97.9603 287.521 98.1152 287.676C98.2793 287.822 98.4069 287.922 98.498 287.977C98.5983 288.031 98.694 288.059 98.7852 288.059C98.9128 288.059 99.0495 287.981 99.1953 287.826C99.3503 287.671 99.4505 287.539 99.4961 287.43C99.569 287.43 99.6374 287.457 99.7012 287.512C99.7741 287.566 99.8105 287.621 99.8105 287.676C99.7559 287.785 99.6738 287.917 99.5645 288.072C99.4551 288.227 99.3001 288.368 99.0996 288.496C98.9082 288.615 98.6484 288.674 98.3203 288.674C98.0833 288.674 97.8327 288.592 97.5684 288.428C97.3132 288.255 97.1126 288.09 96.9668 287.936L96.748 287.689C95.9733 288.373 95.1439 288.715 94.2598 288.715ZM94.793 283.41C95.2669 283.137 95.6087 282.863 95.8184 282.59C96.0371 282.307 96.1465 281.92 96.1465 281.428C96.1465 281.1 96.0553 280.812 95.873 280.566C95.6908 280.32 95.4538 280.197 95.1621 280.197C94.8613 280.197 94.6061 280.298 94.3965 280.498C94.1868 280.689 94.082 280.94 94.082 281.25C94.082 281.833 94.319 282.553 94.793 283.41ZM94.7246 288.127C95.0072 288.127 95.3079 288.059 95.627 287.922C95.9551 287.785 96.224 287.603 96.4336 287.375C96.2604 287.193 96.0553 286.956 95.8184 286.664C95.5905 286.372 95.3626 286.072 95.1348 285.762C94.916 285.452 94.7246 285.174 94.5605 284.928L94.1914 284.381C93.9362 284.563 93.6992 284.741 93.4805 284.914C93.2708 285.078 93.1022 285.27 92.9746 285.488C92.847 285.707 92.7832 285.985 92.7832 286.322C92.7832 286.924 92.9701 287.375 93.3438 287.676C93.7174 287.977 94.1777 288.127 94.7246 288.127ZM103.598 288.715C103.552 288.669 103.529 288.601 103.529 288.51C103.529 288.382 103.552 288.318 103.598 288.318C103.689 288.318 103.807 288.305 103.953 288.277C104.099 288.25 104.24 288.214 104.377 288.168C104.514 288.122 104.609 288.072 104.664 288.018C104.819 287.854 104.901 287.457 104.91 286.828C104.928 285.771 104.947 284.823 104.965 283.984C104.992 283.137 105.015 282.444 105.033 281.906C105.051 281.359 105.061 281.008 105.061 280.854C105.061 280.607 105.042 280.425 105.006 280.307C104.988 280.252 104.906 280.206 104.76 280.17C104.623 280.124 104.473 280.088 104.309 280.061C104.145 280.033 104.017 280.02 103.926 280.02C103.889 280.02 103.871 279.956 103.871 279.828C103.871 279.728 103.889 279.66 103.926 279.623C104.145 279.632 104.386 279.646 104.65 279.664C104.915 279.682 105.184 279.691 105.457 279.691C105.63 279.691 105.817 279.687 106.018 279.678C106.227 279.66 106.46 279.641 106.715 279.623C106.788 279.824 107.69 282.107 109.422 286.473C109.44 286.491 109.458 286.5 109.477 286.5C109.513 286.5 109.536 286.482 109.545 286.445C109.992 285.397 110.393 284.44 110.748 283.574C111.104 282.708 111.413 281.938 111.678 281.264L112.225 279.623C112.516 279.641 112.753 279.655 112.936 279.664C113.127 279.673 113.268 279.678 113.359 279.678C113.642 279.678 113.911 279.673 114.166 279.664C114.421 279.655 114.663 279.641 114.891 279.623C114.918 279.705 114.932 279.773 114.932 279.828C114.932 279.956 114.909 280.02 114.863 280.02H114.836C114.736 280.02 114.604 280.051 114.439 280.115C114.275 280.17 114.152 280.229 114.07 280.293C113.961 280.375 113.906 280.68 113.906 281.209L114.029 286.76C114.048 287.288 114.116 287.708 114.234 288.018C114.262 288.072 114.335 288.122 114.453 288.168C114.572 288.214 114.699 288.25 114.836 288.277C114.982 288.305 115.087 288.318 115.15 288.318C115.187 288.318 115.205 288.382 115.205 288.51C115.205 288.574 115.196 288.642 115.178 288.715C114.722 288.697 114.357 288.683 114.084 288.674C113.82 288.656 113.642 288.646 113.551 288.646L111.91 288.715C111.874 288.678 111.855 288.605 111.855 288.496C111.855 288.378 111.874 288.318 111.91 288.318C112.001 288.318 112.138 288.296 112.32 288.25C112.512 288.204 112.648 288.159 112.73 288.113C112.84 288.04 112.895 287.844 112.895 287.525V286.801L112.73 281.988C112.73 281.888 112.717 281.779 112.689 281.66C112.671 281.533 112.648 281.423 112.621 281.332C112.594 281.232 112.562 281.182 112.525 281.182C112.507 281.182 112.484 281.214 112.457 281.277L109.6 288.113C109.426 288.505 109.258 288.701 109.094 288.701C109.085 288.701 109.044 288.692 108.971 288.674L105.84 280.717C105.812 282.002 105.781 283.15 105.744 284.162C105.708 285.165 105.676 285.971 105.648 286.582C105.63 287.193 105.621 287.548 105.621 287.648C105.621 287.812 105.648 287.931 105.703 288.004C105.74 288.049 105.831 288.1 105.977 288.154C106.122 288.2 106.273 288.241 106.428 288.277C106.592 288.305 106.701 288.318 106.756 288.318C106.792 288.318 106.811 288.387 106.811 288.523C106.811 288.578 106.801 288.642 106.783 288.715C106.327 288.697 105.967 288.683 105.703 288.674C105.439 288.656 105.27 288.646 105.197 288.646L103.598 288.715ZM119.115 288.77C118.568 288.77 118.067 288.633 117.611 288.359C117.156 288.086 116.791 287.717 116.518 287.252C116.253 286.787 116.121 286.277 116.121 285.721C116.121 285.156 116.249 284.645 116.504 284.189C116.768 283.734 117.124 283.374 117.57 283.109C118.017 282.836 118.523 282.699 119.088 282.699C119.635 282.699 120.132 282.836 120.578 283.109C121.034 283.383 121.394 283.747 121.658 284.203C121.932 284.659 122.068 285.165 122.068 285.721C122.068 286.277 121.936 286.787 121.672 287.252C121.408 287.717 121.052 288.086 120.605 288.359C120.168 288.633 119.671 288.77 119.115 288.77ZM119.238 288.236C119.566 288.236 119.854 288.132 120.1 287.922C120.346 287.712 120.537 287.43 120.674 287.074C120.82 286.719 120.893 286.331 120.893 285.912C120.893 285.42 120.801 284.973 120.619 284.572C120.437 284.162 120.195 283.839 119.895 283.602C119.603 283.355 119.284 283.232 118.938 283.232C118.618 283.232 118.331 283.337 118.076 283.547C117.83 283.747 117.639 284.021 117.502 284.367C117.365 284.704 117.297 285.087 117.297 285.516C117.297 286.008 117.383 286.464 117.557 286.883C117.739 287.293 117.976 287.621 118.268 287.867C118.568 288.113 118.892 288.236 119.238 288.236ZM123.012 288.715C122.975 288.678 122.957 288.601 122.957 288.482C122.957 288.373 122.975 288.318 123.012 288.318C123.085 288.318 123.185 288.305 123.312 288.277C123.44 288.25 123.559 288.214 123.668 288.168C123.777 288.122 123.837 288.081 123.846 288.045C123.882 287.917 123.905 287.771 123.914 287.607C123.932 287.443 123.941 287.27 123.941 287.088V284.504C123.941 284.158 123.878 283.911 123.75 283.766C123.659 283.656 123.549 283.583 123.422 283.547C123.303 283.51 123.194 283.492 123.094 283.492C123.003 283.483 122.957 283.469 122.957 283.451C122.957 283.232 122.984 283.118 123.039 283.109C123.522 283.036 123.9 282.973 124.174 282.918C124.456 282.863 124.671 282.818 124.816 282.781L124.994 282.74C125.031 282.731 125.053 282.768 125.062 282.85C125.072 282.923 125.072 282.982 125.062 283.027C125.044 283.155 125.031 283.264 125.021 283.355C125.012 283.447 125.008 283.52 125.008 283.574C125.008 283.611 125.017 283.629 125.035 283.629C125.044 283.629 125.058 283.62 125.076 283.602C125.286 283.383 125.568 283.178 125.924 282.986C126.288 282.786 126.635 282.686 126.963 282.686C127.327 282.686 127.628 282.786 127.865 282.986C128.111 283.178 128.28 283.401 128.371 283.656C129.064 283.009 129.77 282.686 130.49 282.686C131.639 282.686 132.213 283.561 132.213 285.311V286.828C132.213 287.092 132.222 287.325 132.24 287.525C132.258 287.726 132.286 287.899 132.322 288.045C132.34 288.081 132.404 288.122 132.514 288.168C132.623 288.214 132.742 288.25 132.869 288.277C132.997 288.305 133.088 288.318 133.143 288.318C133.17 288.318 133.188 288.373 133.197 288.482C133.206 288.592 133.202 288.669 133.184 288.715L131.721 288.646L130.23 288.715C130.194 288.678 130.176 288.601 130.176 288.482C130.176 288.373 130.194 288.318 130.23 288.318C130.303 288.318 130.404 288.305 130.531 288.277C130.659 288.25 130.777 288.214 130.887 288.168C130.996 288.122 131.055 288.081 131.064 288.045C131.101 287.917 131.124 287.781 131.133 287.635C131.151 287.48 131.16 287.325 131.16 287.17V285.625C131.16 284.221 130.7 283.52 129.779 283.52C129.561 283.52 129.355 283.57 129.164 283.67C128.973 283.761 128.818 283.866 128.699 283.984C128.59 284.103 128.535 284.208 128.535 284.299C128.562 284.472 128.581 284.65 128.59 284.832C128.599 285.005 128.604 285.197 128.604 285.406V286.951C128.604 287.179 128.613 287.384 128.631 287.566C128.649 287.74 128.676 287.899 128.713 288.045C128.731 288.081 128.795 288.122 128.904 288.168C129.014 288.214 129.132 288.25 129.26 288.277C129.387 288.305 129.479 288.318 129.533 288.318C129.561 288.318 129.579 288.373 129.588 288.482C129.597 288.592 129.592 288.669 129.574 288.715L128.111 288.646L126.621 288.715C126.585 288.678 126.566 288.601 126.566 288.482C126.566 288.373 126.585 288.318 126.621 288.318C126.694 288.318 126.794 288.305 126.922 288.277C127.049 288.25 127.168 288.214 127.277 288.168C127.387 288.122 127.446 288.081 127.455 288.045C127.492 287.917 127.514 287.771 127.523 287.607C127.542 287.443 127.551 287.27 127.551 287.088V285.693C127.551 284.244 127.113 283.52 126.238 283.52C126.056 283.52 125.869 283.57 125.678 283.67C125.486 283.761 125.322 283.88 125.186 284.025C125.058 284.162 124.994 284.294 124.994 284.422V286.828C124.994 287.092 125.003 287.325 125.021 287.525C125.04 287.726 125.067 287.899 125.104 288.045C125.122 288.081 125.186 288.122 125.295 288.168C125.404 288.214 125.523 288.25 125.65 288.277C125.778 288.305 125.869 288.318 125.924 288.318C125.951 288.318 125.969 288.373 125.979 288.482C125.988 288.592 125.983 288.669 125.965 288.715L124.502 288.646L123.012 288.715ZM137.025 288.77C136.479 288.77 135.977 288.633 135.521 288.359C135.066 288.086 134.701 287.717 134.428 287.252C134.163 286.787 134.031 286.277 134.031 285.721C134.031 285.156 134.159 284.645 134.414 284.189C134.678 283.734 135.034 283.374 135.48 283.109C135.927 282.836 136.433 282.699 136.998 282.699C137.545 282.699 138.042 282.836 138.488 283.109C138.944 283.383 139.304 283.747 139.568 284.203C139.842 284.659 139.979 285.165 139.979 285.721C139.979 286.277 139.846 286.787 139.582 287.252C139.318 287.717 138.962 288.086 138.516 288.359C138.078 288.633 137.581 288.77 137.025 288.77ZM137.148 288.236C137.477 288.236 137.764 288.132 138.01 287.922C138.256 287.712 138.447 287.43 138.584 287.074C138.73 286.719 138.803 286.331 138.803 285.912C138.803 285.42 138.712 284.973 138.529 284.572C138.347 284.162 138.105 283.839 137.805 283.602C137.513 283.355 137.194 283.232 136.848 283.232C136.529 283.232 136.242 283.337 135.986 283.547C135.74 283.747 135.549 284.021 135.412 284.367C135.275 284.704 135.207 285.087 135.207 285.516C135.207 286.008 135.294 286.464 135.467 286.883C135.649 287.293 135.886 287.621 136.178 287.867C136.479 288.113 136.802 288.236 137.148 288.236ZM140.744 288.715C140.708 288.678 140.689 288.601 140.689 288.482C140.689 288.373 140.708 288.318 140.744 288.318C140.817 288.318 140.917 288.305 141.045 288.277C141.173 288.25 141.291 288.214 141.4 288.168C141.51 288.122 141.569 288.081 141.578 288.045C141.615 287.917 141.637 287.771 141.646 287.607C141.665 287.443 141.674 287.27 141.674 287.088V281.168C141.674 280.858 141.646 280.566 141.592 280.293C141.555 280.147 141.323 280.074 140.895 280.074H140.771C140.717 280.074 140.689 280.024 140.689 279.924C140.689 279.778 140.717 279.705 140.771 279.705C141.236 279.66 141.628 279.587 141.947 279.486C142.266 279.377 142.485 279.29 142.604 279.227L142.672 279.186H142.699C142.736 279.186 142.772 279.213 142.809 279.268C142.845 279.313 142.868 279.359 142.877 279.404C142.777 279.705 142.727 280.102 142.727 280.594V285.379C142.909 285.342 143.023 285.301 143.068 285.256L143.697 284.723L144.189 284.312C144.344 284.185 144.477 284.066 144.586 283.957C144.704 283.848 144.764 283.747 144.764 283.656C144.764 283.538 144.663 283.474 144.463 283.465C144.281 283.456 144.176 283.438 144.148 283.41C144.076 283.228 144.08 283.123 144.162 283.096H145.242C145.561 283.096 145.821 283.087 146.021 283.068C146.222 283.05 146.464 283.036 146.746 283.027C146.801 283.036 146.824 283.105 146.814 283.232C146.805 283.351 146.778 283.41 146.732 283.41C146.66 283.41 146.555 283.424 146.418 283.451C146.29 283.479 146.167 283.51 146.049 283.547C145.93 283.574 145.844 283.606 145.789 283.643C145.689 283.697 145.516 283.816 145.27 283.998C145.033 284.18 144.777 284.39 144.504 284.627C144.23 284.855 143.984 285.078 143.766 285.297C144.467 286.044 145.014 286.646 145.406 287.102C145.807 287.557 146.067 287.84 146.186 287.949C146.34 288.077 146.536 288.177 146.773 288.25C147.01 288.314 147.179 288.346 147.279 288.346C147.316 288.346 147.334 288.419 147.334 288.564C147.334 288.656 147.329 288.706 147.32 288.715L145.83 288.646L144.408 288.715C144.372 288.678 144.354 288.605 144.354 288.496C144.354 288.396 144.372 288.346 144.408 288.346C144.499 288.346 144.604 288.327 144.723 288.291C144.841 288.255 144.9 288.214 144.9 288.168C144.9 288.15 144.896 288.136 144.887 288.127L142.891 285.967L142.727 286.008V286.828C142.727 287.129 142.736 287.384 142.754 287.594C142.781 287.794 142.809 287.945 142.836 288.045C142.854 288.081 142.918 288.122 143.027 288.168C143.137 288.214 143.255 288.25 143.383 288.277C143.51 288.305 143.602 288.318 143.656 288.318C143.684 288.318 143.702 288.373 143.711 288.482C143.72 288.592 143.715 288.669 143.697 288.715L142.234 288.646L140.744 288.715ZM149.262 288.77C148.842 288.77 148.496 288.66 148.223 288.441C147.949 288.214 147.812 287.876 147.812 287.43C147.812 286.883 148.168 286.427 148.879 286.062C149.189 285.908 149.494 285.785 149.795 285.693C150.105 285.602 150.415 285.497 150.725 285.379C150.807 285.352 150.848 285.283 150.848 285.174V284.148C150.848 283.857 150.757 283.633 150.574 283.479C150.392 283.314 150.173 283.232 149.918 283.232C149.645 283.232 149.417 283.328 149.234 283.52C149.052 283.702 148.961 283.943 148.961 284.244C148.961 284.563 148.774 284.723 148.4 284.723C148.136 284.723 147.958 284.636 147.867 284.463C147.867 284.271 147.945 284.076 148.1 283.875C148.264 283.665 148.473 283.474 148.729 283.301C148.984 283.128 149.262 282.986 149.562 282.877C149.872 282.768 150.178 282.713 150.479 282.713C150.98 282.713 151.34 282.836 151.559 283.082C151.777 283.319 151.887 283.706 151.887 284.244V287.402C151.887 287.594 151.937 287.753 152.037 287.881C152.137 288.008 152.274 288.072 152.447 288.072C152.566 288.072 152.725 288.008 152.926 287.881C152.962 287.881 152.98 287.917 152.98 287.99C152.98 288.109 152.958 288.204 152.912 288.277C152.538 288.596 152.219 288.756 151.955 288.756C151.745 288.756 151.545 288.669 151.354 288.496C151.162 288.323 151.03 288.141 150.957 287.949C150.911 287.986 150.852 288.036 150.779 288.1C150.715 288.154 150.661 288.2 150.615 288.236C150.424 288.382 150.214 288.51 149.986 288.619C149.768 288.719 149.526 288.77 149.262 288.77ZM149.781 287.99C150.036 287.99 150.278 287.917 150.506 287.771C150.734 287.626 150.848 287.471 150.848 287.307V285.898C150.611 285.99 150.383 286.072 150.164 286.145C149.954 286.217 149.786 286.277 149.658 286.322C149.494 286.386 149.335 286.5 149.18 286.664C149.034 286.828 148.961 287.015 148.961 287.225C148.961 287.498 149.043 287.694 149.207 287.812C149.38 287.931 149.572 287.99 149.781 287.99Z" fill="black"/>
<path d="M7.59766 265.83C7.51953 265.83 7.46094 265.798 7.42188 265.732L2.34375 255.635C2.16146 255.257 1.97266 254.912 1.77734 254.6C1.58203 254.287 1.39323 254.007 1.21094 253.76C1.10677 253.63 0.93099 253.525 0.683594 253.447C0.436198 253.356 0.234375 253.311 0.078125 253.311C0.0260417 253.311 0 253.226 0 253.057C0 252.9 0.0260417 252.796 0.078125 252.744L2.53906 252.842L4.58984 252.744C4.61589 252.796 4.6224 252.907 4.60938 253.076C4.60938 253.232 4.58984 253.311 4.55078 253.311C4.34245 253.311 4.1276 253.363 3.90625 253.467C3.6849 253.558 3.57422 253.695 3.57422 253.877C3.57422 254.268 3.72396 254.749 4.02344 255.322L8.06641 263.33C8.10547 263.395 8.15755 263.415 8.22266 263.389C8.28776 263.35 8.33333 263.298 8.35938 263.232L9.98047 259.854L7.92969 255.635C7.7474 255.257 7.55859 254.912 7.36328 254.6C7.16797 254.287 6.97917 254.007 6.79688 253.76C6.69271 253.63 6.51693 253.525 6.26953 253.447C6.02214 253.356 5.82031 253.311 5.66406 253.311C5.61198 253.311 5.58594 253.213 5.58594 253.018C5.58594 252.887 5.61198 252.796 5.66406 252.744L8.125 252.842L10.1562 252.744C10.1823 252.796 10.1888 252.907 10.1758 253.076C10.1758 253.232 10.1562 253.311 10.1172 253.311C9.90885 253.311 9.69401 253.356 9.47266 253.447C9.26432 253.538 9.16016 253.682 9.16016 253.877C9.16016 254.046 9.19271 254.255 9.25781 254.502C9.33594 254.736 9.45312 255.01 9.60938 255.322L10.8984 257.959L12.2656 255.088C12.4479 254.71 12.5391 254.333 12.5391 253.955C12.5391 253.734 12.3958 253.571 12.1094 253.467C11.8359 253.363 11.5951 253.311 11.3867 253.311C11.3346 253.311 11.3086 253.226 11.3086 253.057C11.3086 252.9 11.3346 252.796 11.3867 252.744C11.9076 252.77 12.3307 252.796 12.6562 252.822C12.9948 252.848 13.2292 252.855 13.3594 252.842L15.3906 252.744C15.4167 252.796 15.4232 252.907 15.4102 253.076C15.4102 253.232 15.3906 253.311 15.3516 253.311C15.2734 253.311 15.1432 253.337 14.9609 253.389C14.7786 253.428 14.5964 253.493 14.4141 253.584C14.2318 253.662 14.0951 253.753 14.0039 253.857C13.8867 254.001 13.7305 254.242 13.5352 254.58C13.3529 254.906 13.1315 255.335 12.8711 255.869L11.3672 258.955L13.4961 263.33C13.5612 263.447 13.6393 263.415 13.7305 263.232L17.2266 255.205C17.3438 254.945 17.4284 254.71 17.4805 254.502C17.5326 254.294 17.5586 254.118 17.5586 253.975C17.5586 253.753 17.4219 253.59 17.1484 253.486C16.888 253.369 16.6536 253.311 16.4453 253.311C16.3932 253.311 16.3672 253.226 16.3672 253.057C16.3672 252.9 16.3932 252.796 16.4453 252.744C16.9661 252.77 17.3893 252.796 17.7148 252.822C18.0534 252.835 18.2943 252.842 18.4375 252.842C18.8151 252.842 19.1667 252.829 19.4922 252.803C19.8177 252.777 20.1107 252.757 20.3711 252.744C20.3971 252.848 20.4102 252.946 20.4102 253.037C20.4102 253.219 20.3841 253.311 20.332 253.311C20.2018 253.311 19.9935 253.363 19.707 253.467C19.4206 253.558 19.2057 253.688 19.0625 253.857C18.6979 254.3 18.3203 254.958 17.9297 255.83L13.7891 265.205C13.6068 265.622 13.3529 265.83 13.0273 265.83C12.9492 265.83 12.8906 265.798 12.8516 265.732L10.4688 260.85L8.35938 265.205C8.16406 265.622 7.91016 265.83 7.59766 265.83ZM23.2227 265.791C22.5065 265.791 21.849 265.602 21.25 265.225C20.651 264.847 20.1693 264.346 19.8047 263.721C19.4531 263.083 19.2773 262.373 19.2773 261.592C19.2773 260.68 19.4466 259.893 19.7852 259.229C20.1237 258.564 20.5859 258.057 21.1719 257.705C21.7578 257.34 22.4154 257.158 23.1445 257.158C23.7435 257.158 24.2708 257.275 24.7266 257.51C25.1823 257.731 25.5339 258.018 25.7812 258.369C26.0156 258.734 26.1849 259.105 26.2891 259.482C26.4062 259.847 26.4648 260.212 26.4648 260.576C26.4648 260.837 26.4258 260.999 26.3477 261.064C26.2695 261.117 26.1198 261.143 25.8984 261.143H20.9766C20.8724 261.143 20.8203 261.175 20.8203 261.24C20.8203 261.787 20.931 262.314 21.1523 262.822C21.3737 263.317 21.6992 263.727 22.1289 264.053C22.5586 264.378 23.0859 264.541 23.7109 264.541C24.2578 264.541 24.7135 264.463 25.0781 264.307C25.4557 264.137 25.7292 263.988 25.8984 263.857L26.0352 263.76C26.1133 263.76 26.1523 263.844 26.1523 264.014C26.1523 264.105 26.1133 264.222 26.0352 264.365C25.7747 264.73 25.3906 265.062 24.8828 265.361C24.375 265.648 23.8216 265.791 23.2227 265.791ZM20.9766 260.322H24.7852C24.8503 260.322 24.8828 260.257 24.8828 260.127C24.8828 259.84 24.8047 259.528 24.6484 259.189C24.5052 258.838 24.2839 258.532 23.9844 258.271C23.6849 258.011 23.3073 257.881 22.8516 257.881C22.4349 257.881 22.0768 258.024 21.7773 258.311C21.4779 258.584 21.25 258.903 21.0938 259.268C20.9375 259.619 20.8594 259.925 20.8594 260.186C20.8594 260.277 20.8984 260.322 20.9766 260.322ZM33.7695 265.791C33.6914 265.791 33.6523 265.68 33.6523 265.459V265.225C33.6523 265.16 33.6263 265.133 33.5742 265.146C32.8581 265.55 32.168 265.752 31.5039 265.752C30.7878 265.752 30.1367 265.576 29.5508 265.225C28.9779 264.86 28.5221 264.385 28.1836 263.799C27.8581 263.2 27.6953 262.549 27.6953 261.846C27.6953 261.221 27.8125 260.622 28.0469 260.049C28.2943 259.476 28.6198 258.968 29.0234 258.525C29.4401 258.07 29.9089 257.718 30.4297 257.471C30.9505 257.21 31.4909 257.08 32.0508 257.08C32.6107 257.08 33.099 257.191 33.5156 257.412C33.6068 257.412 33.6523 257.295 33.6523 257.061V254.951C33.6523 254.508 33.6133 254.092 33.5352 253.701C33.4831 253.493 33.151 253.389 32.5391 253.389H32.3633C32.2852 253.389 32.2461 253.317 32.2461 253.174C32.2461 252.965 32.2852 252.861 32.3633 252.861C33.0924 252.796 33.6654 252.699 34.082 252.568C34.5117 252.438 34.8177 252.308 35 252.178L35.0781 252.119H35.1172C35.1693 252.119 35.2214 252.158 35.2734 252.236C35.3255 252.301 35.3581 252.367 35.3711 252.432C35.2279 252.861 35.1562 253.428 35.1562 254.131V262.92C35.1562 263.532 35.1953 264.027 35.2734 264.404C35.3125 264.535 35.4232 264.619 35.6055 264.658C35.8008 264.684 36.0026 264.71 36.2109 264.736L36.3867 264.756C36.4258 264.769 36.4453 264.847 36.4453 264.99C36.4453 265.186 36.4062 265.283 36.3281 265.283C35.8984 265.309 35.4557 265.381 35 265.498C34.5443 265.602 34.1927 265.687 33.9453 265.752L33.7695 265.791ZM32.2461 264.795C32.6888 264.795 33.0339 264.697 33.2812 264.502C33.5286 264.294 33.6523 264.02 33.6523 263.682V259.033C33.6523 258.76 33.5026 258.506 33.2031 258.271C32.9167 258.024 32.4479 257.9 31.7969 257.9C31.3021 257.9 30.8724 258.057 30.5078 258.369C30.1432 258.682 29.8633 259.098 29.668 259.619C29.4727 260.127 29.375 260.68 29.375 261.279C29.375 261.904 29.4857 262.484 29.707 263.018C29.9414 263.551 30.2734 263.981 30.7031 264.307C31.1328 264.632 31.6471 264.795 32.2461 264.795ZM43.4766 265.791C43.3984 265.791 43.3594 265.68 43.3594 265.459V265.225C43.3594 265.16 43.3333 265.133 43.2812 265.146C42.5651 265.55 41.875 265.752 41.2109 265.752C40.4948 265.752 39.8438 265.576 39.2578 265.225C38.6849 264.86 38.2292 264.385 37.8906 263.799C37.5651 263.2 37.4023 262.549 37.4023 261.846C37.4023 261.221 37.5195 260.622 37.7539 260.049C38.0013 259.476 38.3268 258.968 38.7305 258.525C39.1471 258.07 39.6159 257.718 40.1367 257.471C40.6576 257.21 41.1979 257.08 41.7578 257.08C42.3177 257.08 42.806 257.191 43.2227 257.412C43.3138 257.412 43.3594 257.295 43.3594 257.061V254.951C43.3594 254.508 43.3203 254.092 43.2422 253.701C43.1901 253.493 42.8581 253.389 42.2461 253.389H42.0703C41.9922 253.389 41.9531 253.317 41.9531 253.174C41.9531 252.965 41.9922 252.861 42.0703 252.861C42.7995 252.796 43.3724 252.699 43.7891 252.568C44.2188 252.438 44.5247 252.308 44.707 252.178L44.7852 252.119H44.8242C44.8763 252.119 44.9284 252.158 44.9805 252.236C45.0326 252.301 45.0651 252.367 45.0781 252.432C44.9349 252.861 44.8633 253.428 44.8633 254.131V262.92C44.8633 263.532 44.9023 264.027 44.9805 264.404C45.0195 264.535 45.1302 264.619 45.3125 264.658C45.5078 264.684 45.7096 264.71 45.918 264.736L46.0938 264.756C46.1328 264.769 46.1523 264.847 46.1523 264.99C46.1523 265.186 46.1133 265.283 46.0352 265.283C45.6055 265.309 45.1628 265.381 44.707 265.498C44.2513 265.602 43.8997 265.687 43.6523 265.752L43.4766 265.791ZM41.9531 264.795C42.3958 264.795 42.7409 264.697 42.9883 264.502C43.2357 264.294 43.3594 264.02 43.3594 263.682V259.033C43.3594 258.76 43.2096 258.506 42.9102 258.271C42.6237 258.024 42.1549 257.9 41.5039 257.9C41.0091 257.9 40.5794 258.057 40.2148 258.369C39.8503 258.682 39.5703 259.098 39.375 259.619C39.1797 260.127 39.082 260.68 39.082 261.279C39.082 261.904 39.1927 262.484 39.4141 263.018C39.6484 263.551 39.9805 263.981 40.4102 264.307C40.8398 264.632 41.3542 264.795 41.9531 264.795ZM47.0703 265.732C47.0182 265.68 46.9922 265.57 46.9922 265.4C46.9922 265.244 47.0182 265.166 47.0703 265.166C47.1745 265.166 47.3177 265.146 47.5 265.107C47.6823 265.068 47.8516 265.016 48.0078 264.951C48.1641 264.886 48.2487 264.827 48.2617 264.775C48.3138 264.593 48.3464 264.385 48.3594 264.15C48.3854 263.916 48.3984 263.669 48.3984 263.408V259.717C48.3984 259.222 48.3073 258.87 48.125 258.662C47.9948 258.493 47.8385 258.389 47.6562 258.35C47.474 258.298 47.3177 258.271 47.1875 258.271C47.0573 258.258 46.9922 258.239 46.9922 258.213C46.9922 257.9 47.0312 257.738 47.1094 257.725C47.7995 257.62 48.3268 257.536 48.6914 257.471C49.056 257.393 49.3815 257.321 49.668 257.256L49.9023 257.197C49.9544 257.184 49.987 257.236 50 257.354C50.013 257.471 50.013 257.555 50 257.607C49.974 257.868 49.9479 258.115 49.9219 258.35C49.9089 258.584 49.9023 258.805 49.9023 259.014V263.037C49.9023 263.415 49.9154 263.747 49.9414 264.033C49.9674 264.32 50.0065 264.567 50.0586 264.775C50.0846 264.827 50.1758 264.886 50.332 264.951C50.4883 265.016 50.6576 265.068 50.8398 265.107C51.0221 265.146 51.1523 265.166 51.2305 265.166C51.2695 265.166 51.2956 265.244 51.3086 265.4C51.3216 265.557 51.3151 265.667 51.2891 265.732L49.1992 265.635L47.0703 265.732ZM49.0039 255.068C48.7435 255.068 48.5156 254.971 48.3203 254.775C48.125 254.58 48.0273 254.352 48.0273 254.092C48.0273 253.818 48.125 253.59 48.3203 253.408C48.5156 253.213 48.7435 253.115 49.0039 253.115C49.2773 253.115 49.5052 253.213 49.6875 253.408C49.8828 253.59 49.9805 253.818 49.9805 254.092C49.9805 254.352 49.8828 254.58 49.6875 254.775C49.5052 254.971 49.2773 255.068 49.0039 255.068ZM52.5195 265.732C52.4674 265.68 52.4414 265.57 52.4414 265.4C52.4414 265.244 52.4674 265.166 52.5195 265.166C52.6237 265.166 52.7669 265.146 52.9492 265.107C53.1315 265.068 53.3008 265.016 53.457 264.951C53.6133 264.886 53.6979 264.827 53.7109 264.775C53.763 264.593 53.7956 264.385 53.8086 264.15C53.8346 263.916 53.8477 263.669 53.8477 263.408V259.717C53.8477 259.222 53.7565 258.87 53.5742 258.662C53.444 258.506 53.2878 258.402 53.1055 258.35C52.9362 258.298 52.7799 258.271 52.6367 258.271C52.5065 258.258 52.4414 258.239 52.4414 258.213C52.4414 257.9 52.4805 257.738 52.5586 257.725C53.2487 257.62 53.8086 257.529 54.2383 257.451C54.668 257.36 54.9349 257.301 55.0391 257.275L55.3516 257.197C55.4036 257.184 55.4362 257.236 55.4492 257.354C55.4622 257.471 55.4622 257.555 55.4492 257.607C55.4232 257.79 55.4036 257.946 55.3906 258.076C55.3776 258.206 55.3711 258.311 55.3711 258.389C55.3711 258.441 55.3841 258.467 55.4102 258.467C55.4232 258.467 55.4427 258.454 55.4688 258.428C55.7682 258.115 56.1719 257.822 56.6797 257.549C57.2005 257.262 57.6953 257.119 58.1641 257.119C59.0755 257.119 59.7135 257.445 60.0781 258.096C60.4427 258.747 60.625 259.801 60.625 261.26V263.037C60.625 263.415 60.638 263.747 60.6641 264.033C60.6901 264.32 60.7292 264.567 60.7812 264.775C60.8073 264.827 60.8984 264.886 61.0547 264.951C61.2109 265.016 61.3802 265.068 61.5625 265.107C61.7448 265.146 61.875 265.166 61.9531 265.166C61.9922 265.166 62.0182 265.244 62.0312 265.4C62.0443 265.557 62.0378 265.667 62.0117 265.732L59.9219 265.635L57.8711 265.732C57.819 265.68 57.793 265.57 57.793 265.4C57.793 265.244 57.819 265.166 57.8711 265.166C57.9753 265.166 58.112 265.146 58.2812 265.107C58.4505 265.068 58.6068 265.016 58.75 264.951C58.8932 264.886 58.9714 264.827 58.9844 264.775C59.0365 264.593 59.069 264.385 59.082 264.15C59.1081 263.916 59.1211 263.669 59.1211 263.408V261.455C59.1211 260.244 58.9648 259.417 58.6523 258.975C58.3398 258.532 57.832 258.311 57.1289 258.311C56.8555 258.311 56.582 258.389 56.3086 258.545C56.0352 258.688 55.8073 258.857 55.625 259.053C55.4427 259.248 55.3516 259.43 55.3516 259.6V263.037C55.3516 263.415 55.3646 263.747 55.3906 264.033C55.4167 264.32 55.4557 264.567 55.5078 264.775C55.5339 264.827 55.625 264.886 55.7812 264.951C55.9375 265.016 56.1068 265.068 56.2891 265.107C56.4714 265.146 56.6016 265.166 56.6797 265.166C56.7188 265.166 56.7448 265.244 56.7578 265.4C56.7708 265.557 56.7643 265.667 56.7383 265.732L54.6484 265.635L52.5195 265.732ZM66.6406 270.107C66.0286 270.107 65.4427 270.029 64.8828 269.873C64.3359 269.717 63.8932 269.476 63.5547 269.15C63.2161 268.825 63.0469 268.421 63.0469 267.939C63.0469 267.132 63.6849 266.442 64.9609 265.869C64.6094 265.817 64.2839 265.654 63.9844 265.381C63.6849 265.107 63.5352 264.775 63.5352 264.385C63.5352 264.046 63.6784 263.695 63.9648 263.33C64.2643 262.965 64.5964 262.666 64.9609 262.432C64.7005 262.327 64.4466 262.152 64.1992 261.904C63.9648 261.657 63.7695 261.364 63.6133 261.025C63.457 260.687 63.3789 260.335 63.3789 259.971C63.3789 259.45 63.5286 258.988 63.8281 258.584C64.1276 258.167 64.5247 257.842 65.0195 257.607C65.5273 257.36 66.0938 257.236 66.7188 257.236C67.2266 257.236 67.7799 257.321 68.3789 257.49C68.9779 257.66 69.4922 257.744 69.9219 257.744H71.0547C71.1328 257.757 71.1719 257.92 71.1719 258.232C71.1719 258.415 71.1328 258.506 71.0547 258.506H69.668C69.6159 258.506 69.5898 258.525 69.5898 258.564L69.7852 259.033C69.9284 259.359 70 259.671 70 259.971C70 260.439 69.8568 260.882 69.5703 261.299C69.2839 261.715 68.8932 262.054 68.3984 262.314C67.9167 262.575 67.3698 262.705 66.7578 262.705C66.5495 262.705 66.3542 262.699 66.1719 262.686C65.9896 262.673 65.8203 262.653 65.6641 262.627C65.4167 262.809 65.2148 262.998 65.0586 263.193C64.9154 263.389 64.8438 263.584 64.8438 263.779C64.8438 264.105 65.026 264.313 65.3906 264.404C65.7552 264.495 66.224 264.541 66.7969 264.541C67.6042 264.554 68.2878 264.606 68.8477 264.697C69.4206 264.775 69.8698 264.886 70.1953 265.029C70.8464 265.342 71.1719 265.804 71.1719 266.416C71.1719 267.08 70.9766 267.692 70.5859 268.252C70.2083 268.812 69.6745 269.255 68.9844 269.58C68.3073 269.919 67.526 270.094 66.6406 270.107ZM66.7383 262.041C67.2461 262.041 67.6628 261.846 67.9883 261.455C68.3268 261.064 68.4961 260.596 68.4961 260.049C68.4961 259.45 68.3073 258.942 67.9297 258.525C67.5651 258.109 67.1354 257.9 66.6406 257.9C66.1328 257.9 65.7096 258.096 65.3711 258.486C65.0456 258.877 64.8828 259.346 64.8828 259.893C64.8828 260.492 65.0651 260.999 65.4297 261.416C65.8073 261.833 66.2435 262.041 66.7383 262.041ZM67.207 269.385C67.7279 269.385 68.1901 269.287 68.5938 269.092C68.9974 268.896 69.3099 268.643 69.5312 268.33C69.7656 268.018 69.8828 267.686 69.8828 267.334C69.8828 266.787 69.6159 266.423 69.082 266.24C68.5612 266.045 67.526 265.947 65.9766 265.947C65.8724 265.947 65.6901 266.006 65.4297 266.123C65.1823 266.24 64.9479 266.41 64.7266 266.631C64.5182 266.865 64.4141 267.158 64.4141 267.51C64.4141 267.874 64.5508 268.2 64.8242 268.486C65.0977 268.773 65.4427 268.994 65.8594 269.15C66.2891 269.307 66.7383 269.385 67.207 269.385ZM83.2617 265.791C82.4023 265.791 81.5951 265.622 80.8398 265.283C80.0977 264.945 79.4401 264.482 78.8672 263.896C78.3073 263.311 77.8646 262.633 77.5391 261.865C77.2266 261.084 77.0703 260.257 77.0703 259.385C77.0703 258.46 77.2331 257.594 77.5586 256.787C77.8841 255.967 78.3398 255.251 78.9258 254.639C79.5117 254.014 80.1888 253.525 80.957 253.174C81.7383 252.822 82.5781 252.646 83.4766 252.646C84.2448 252.646 85.026 252.686 85.8203 252.764C86.6146 252.842 87.4154 252.965 88.2227 253.135L88.1836 255.947C88.1836 256.143 88.0469 256.24 87.7734 256.24C87.6432 256.24 87.5586 256.208 87.5195 256.143C87.4805 255.973 87.4284 255.804 87.3633 255.635C87.3112 255.452 87.194 255.218 87.0117 254.932C86.6992 254.476 86.25 254.118 85.6641 253.857C85.0911 253.597 84.3815 253.467 83.5352 253.467C82.8971 253.467 82.2982 253.623 81.7383 253.936C81.1784 254.235 80.6836 254.645 80.2539 255.166C79.8372 255.687 79.5117 256.279 79.2773 256.943C79.043 257.594 78.9258 258.271 78.9258 258.975C78.9258 260.055 79.1081 261.025 79.4727 261.885C79.8372 262.77 80.4102 263.506 81.1914 264.092C81.9857 264.665 82.9232 264.951 84.0039 264.951C85.293 264.951 86.2891 264.574 86.9922 263.818C87.2005 263.597 87.3633 263.337 87.4805 263.037C87.5977 262.738 87.6888 262.477 87.7539 262.256C87.819 262.035 87.8841 261.924 87.9492 261.924C88.0273 261.924 88.1185 261.937 88.2227 261.963C88.3398 261.976 88.431 262.002 88.4961 262.041L88.5938 262.1C88.5938 262.178 88.5677 262.36 88.5156 262.646C88.4635 262.933 88.3984 263.252 88.3203 263.604C88.2422 263.942 88.1641 264.242 88.0859 264.502C88.0208 264.762 87.9688 264.906 87.9297 264.932C86.9661 265.505 85.4102 265.791 83.2617 265.791ZM93.6914 265.791C92.9753 265.791 92.3177 265.602 91.7188 265.225C91.1198 264.847 90.638 264.346 90.2734 263.721C89.9219 263.083 89.7461 262.373 89.7461 261.592C89.7461 260.68 89.9154 259.893 90.2539 259.229C90.5924 258.564 91.0547 258.057 91.6406 257.705C92.2266 257.34 92.8841 257.158 93.6133 257.158C94.2122 257.158 94.7396 257.275 95.1953 257.51C95.651 257.731 96.0026 258.018 96.25 258.369C96.4844 258.734 96.6536 259.105 96.7578 259.482C96.875 259.847 96.9336 260.212 96.9336 260.576C96.9336 260.837 96.8945 260.999 96.8164 261.064C96.7383 261.117 96.5885 261.143 96.3672 261.143H91.4453C91.3411 261.143 91.2891 261.175 91.2891 261.24C91.2891 261.787 91.3997 262.314 91.6211 262.822C91.8424 263.317 92.168 263.727 92.5977 264.053C93.0273 264.378 93.5547 264.541 94.1797 264.541C94.7266 264.541 95.1823 264.463 95.5469 264.307C95.9245 264.137 96.1979 263.988 96.3672 263.857L96.5039 263.76C96.582 263.76 96.6211 263.844 96.6211 264.014C96.6211 264.105 96.582 264.222 96.5039 264.365C96.2435 264.73 95.8594 265.062 95.3516 265.361C94.8438 265.648 94.2904 265.791 93.6914 265.791ZM91.4453 260.322H95.2539C95.319 260.322 95.3516 260.257 95.3516 260.127C95.3516 259.84 95.2734 259.528 95.1172 259.189C94.974 258.838 94.7526 258.532 94.4531 258.271C94.1536 258.011 93.776 257.881 93.3203 257.881C92.9036 257.881 92.5456 258.024 92.2461 258.311C91.9466 258.584 91.7188 258.903 91.5625 259.268C91.4062 259.619 91.3281 259.925 91.3281 260.186C91.3281 260.277 91.3672 260.322 91.4453 260.322ZM98.1445 265.732C98.0924 265.68 98.0664 265.57 98.0664 265.4C98.0664 265.244 98.0924 265.166 98.1445 265.166C98.2487 265.166 98.3919 265.146 98.5742 265.107C98.7565 265.068 98.9258 265.016 99.082 264.951C99.2383 264.886 99.3229 264.827 99.3359 264.775C99.388 264.593 99.4206 264.385 99.4336 264.15C99.4596 263.916 99.4727 263.669 99.4727 263.408V259.717C99.4727 259.222 99.3815 258.87 99.1992 258.662C99.069 258.506 98.9128 258.402 98.7305 258.35C98.5612 258.298 98.4049 258.271 98.2617 258.271C98.1315 258.258 98.0664 258.239 98.0664 258.213C98.0664 257.9 98.1055 257.738 98.1836 257.725C99.6029 257.503 100.423 257.36 100.645 257.295L100.977 257.197C101.029 257.184 101.061 257.236 101.074 257.354C101.087 257.471 101.087 257.555 101.074 257.607L100.957 258.584C101.191 258.232 101.51 257.907 101.914 257.607C102.331 257.295 102.741 257.139 103.145 257.139C103.9 257.139 104.408 257.327 104.668 257.705C104.668 258.161 104.596 258.493 104.453 258.701C104.31 258.91 104.134 259.014 103.926 259.014C103.691 259.014 103.477 258.903 103.281 258.682C103.086 258.46 102.819 258.35 102.48 258.35C102.22 258.35 101.973 258.441 101.738 258.623C101.504 258.792 101.315 259.014 101.172 259.287C101.042 259.548 100.977 259.821 100.977 260.107V263.037C100.977 263.415 100.99 263.747 101.016 264.033C101.042 264.32 101.081 264.567 101.133 264.775C101.159 264.827 101.25 264.886 101.406 264.951C101.562 265.016 101.732 265.068 101.914 265.107C102.109 265.146 102.246 265.166 102.324 265.166C102.363 265.166 102.389 265.244 102.402 265.4C102.415 265.557 102.409 265.667 102.383 265.732L100.273 265.635L98.1445 265.732ZM109.512 265.791C108.796 265.791 108.138 265.602 107.539 265.225C106.94 264.847 106.458 264.346 106.094 263.721C105.742 263.083 105.566 262.373 105.566 261.592C105.566 260.68 105.736 259.893 106.074 259.229C106.413 258.564 106.875 258.057 107.461 257.705C108.047 257.34 108.704 257.158 109.434 257.158C110.033 257.158 110.56 257.275 111.016 257.51C111.471 257.731 111.823 258.018 112.07 258.369C112.305 258.734 112.474 259.105 112.578 259.482C112.695 259.847 112.754 260.212 112.754 260.576C112.754 260.837 112.715 260.999 112.637 261.064C112.559 261.117 112.409 261.143 112.188 261.143H107.266C107.161 261.143 107.109 261.175 107.109 261.24C107.109 261.787 107.22 262.314 107.441 262.822C107.663 263.317 107.988 263.727 108.418 264.053C108.848 264.378 109.375 264.541 110 264.541C110.547 264.541 111.003 264.463 111.367 264.307C111.745 264.137 112.018 263.988 112.188 263.857L112.324 263.76C112.402 263.76 112.441 263.844 112.441 264.014C112.441 264.105 112.402 264.222 112.324 264.365C112.064 264.73 111.68 265.062 111.172 265.361C110.664 265.648 110.111 265.791 109.512 265.791ZM107.266 260.322H111.074C111.139 260.322 111.172 260.257 111.172 260.127C111.172 259.84 111.094 259.528 110.938 259.189C110.794 258.838 110.573 258.532 110.273 258.271C109.974 258.011 109.596 257.881 109.141 257.881C108.724 257.881 108.366 258.024 108.066 258.311C107.767 258.584 107.539 258.903 107.383 259.268C107.227 259.619 107.148 259.925 107.148 260.186C107.148 260.277 107.188 260.322 107.266 260.322ZM113.848 265.732C113.796 265.68 113.77 265.57 113.77 265.4C113.77 265.244 113.796 265.166 113.848 265.166C113.952 265.166 114.095 265.146 114.277 265.107C114.46 265.068 114.629 265.016 114.785 264.951C114.941 264.886 115.026 264.827 115.039 264.775C115.091 264.593 115.124 264.385 115.137 264.15C115.163 263.916 115.176 263.669 115.176 263.408V259.717C115.176 259.222 115.085 258.87 114.902 258.662C114.772 258.506 114.616 258.402 114.434 258.35C114.264 258.298 114.108 258.271 113.965 258.271C113.835 258.258 113.77 258.239 113.77 258.213C113.77 257.9 113.809 257.738 113.887 257.725C114.577 257.62 115.117 257.529 115.508 257.451C115.911 257.373 116.217 257.308 116.426 257.256L116.68 257.197C116.732 257.184 116.764 257.236 116.777 257.354C116.79 257.458 116.79 257.542 116.777 257.607C116.751 257.79 116.732 257.946 116.719 258.076C116.706 258.206 116.699 258.311 116.699 258.389C116.699 258.441 116.712 258.467 116.738 258.467C116.751 258.467 116.771 258.454 116.797 258.428C117.096 258.115 117.5 257.822 118.008 257.549C118.529 257.262 119.023 257.119 119.492 257.119C120.013 257.119 120.443 257.262 120.781 257.549C121.133 257.822 121.374 258.141 121.504 258.506C122.493 257.581 123.503 257.119 124.531 257.119C126.172 257.119 126.992 258.369 126.992 260.869V263.037C126.992 263.415 127.005 263.747 127.031 264.033C127.057 264.32 127.096 264.567 127.148 264.775C127.174 264.827 127.266 264.886 127.422 264.951C127.578 265.016 127.747 265.068 127.93 265.107C128.112 265.146 128.242 265.166 128.32 265.166C128.359 265.166 128.385 265.244 128.398 265.4C128.411 265.557 128.405 265.667 128.379 265.732L126.289 265.635L124.16 265.732C124.108 265.68 124.082 265.57 124.082 265.4C124.082 265.244 124.108 265.166 124.16 265.166C124.264 265.166 124.408 265.146 124.59 265.107C124.772 265.068 124.941 265.016 125.098 264.951C125.254 264.886 125.339 264.827 125.352 264.775C125.404 264.593 125.436 264.398 125.449 264.189C125.475 263.968 125.488 263.747 125.488 263.525V261.318C125.488 259.313 124.831 258.311 123.516 258.311C123.203 258.311 122.91 258.382 122.637 258.525C122.363 258.656 122.142 258.805 121.973 258.975C121.816 259.144 121.738 259.294 121.738 259.424C121.777 259.671 121.803 259.925 121.816 260.186C121.829 260.433 121.836 260.706 121.836 261.006V263.213C121.836 263.538 121.849 263.831 121.875 264.092C121.901 264.339 121.94 264.567 121.992 264.775C122.018 264.827 122.109 264.886 122.266 264.951C122.422 265.016 122.591 265.068 122.773 265.107C122.956 265.146 123.086 265.166 123.164 265.166C123.203 265.166 123.229 265.244 123.242 265.4C123.255 265.557 123.249 265.667 123.223 265.732L121.133 265.635L119.004 265.732C118.952 265.68 118.926 265.57 118.926 265.4C118.926 265.244 118.952 265.166 119.004 265.166C119.108 265.166 119.251 265.146 119.434 265.107C119.616 265.068 119.785 265.016 119.941 264.951C120.098 264.886 120.182 264.827 120.195 264.775C120.247 264.593 120.28 264.385 120.293 264.15C120.319 263.916 120.332 263.669 120.332 263.408V261.416C120.332 259.346 119.707 258.311 118.457 258.311C118.197 258.311 117.93 258.382 117.656 258.525C117.383 258.656 117.148 258.825 116.953 259.033C116.771 259.229 116.68 259.417 116.68 259.6V263.037C116.68 263.415 116.693 263.747 116.719 264.033C116.745 264.32 116.784 264.567 116.836 264.775C116.862 264.827 116.953 264.886 117.109 264.951C117.266 265.016 117.435 265.068 117.617 265.107C117.799 265.146 117.93 265.166 118.008 265.166C118.047 265.166 118.073 265.244 118.086 265.4C118.099 265.557 118.092 265.667 118.066 265.732L115.977 265.635L113.848 265.732ZM133.867 265.811C133.086 265.811 132.37 265.615 131.719 265.225C131.068 264.834 130.547 264.307 130.156 263.643C129.779 262.979 129.59 262.249 129.59 261.455C129.59 260.648 129.772 259.919 130.137 259.268C130.514 258.617 131.022 258.102 131.66 257.725C132.298 257.334 133.021 257.139 133.828 257.139C134.609 257.139 135.319 257.334 135.957 257.725C136.608 258.115 137.122 258.636 137.5 259.287C137.891 259.938 138.086 260.661 138.086 261.455C138.086 262.249 137.897 262.979 137.52 263.643C137.142 264.307 136.634 264.834 135.996 265.225C135.371 265.615 134.661 265.811 133.867 265.811ZM134.043 265.049C134.512 265.049 134.922 264.899 135.273 264.6C135.625 264.3 135.898 263.896 136.094 263.389C136.302 262.881 136.406 262.327 136.406 261.729C136.406 261.025 136.276 260.387 136.016 259.814C135.755 259.229 135.41 258.766 134.98 258.428C134.564 258.076 134.108 257.9 133.613 257.9C133.158 257.9 132.747 258.05 132.383 258.35C132.031 258.636 131.758 259.027 131.562 259.521C131.367 260.003 131.27 260.55 131.27 261.162C131.27 261.865 131.393 262.516 131.641 263.115C131.901 263.701 132.24 264.17 132.656 264.521C133.086 264.873 133.548 265.049 134.043 265.049ZM139.473 265.732C139.421 265.68 139.395 265.57 139.395 265.4C139.395 265.244 139.421 265.166 139.473 265.166C139.577 265.166 139.72 265.146 139.902 265.107C140.085 265.068 140.254 265.016 140.41 264.951C140.566 264.886 140.651 264.827 140.664 264.775C140.716 264.593 140.749 264.385 140.762 264.15C140.788 263.916 140.801 263.669 140.801 263.408V259.717C140.801 259.222 140.71 258.87 140.527 258.662C140.397 258.506 140.241 258.402 140.059 258.35C139.889 258.298 139.733 258.271 139.59 258.271C139.46 258.258 139.395 258.239 139.395 258.213C139.395 257.9 139.434 257.738 139.512 257.725C140.202 257.62 140.762 257.529 141.191 257.451C141.621 257.36 141.888 257.301 141.992 257.275L142.305 257.197C142.357 257.184 142.389 257.236 142.402 257.354C142.415 257.471 142.415 257.555 142.402 257.607C142.376 257.79 142.357 257.946 142.344 258.076C142.331 258.206 142.324 258.311 142.324 258.389C142.324 258.441 142.337 258.467 142.363 258.467C142.376 258.467 142.396 258.454 142.422 258.428C142.721 258.115 143.125 257.822 143.633 257.549C144.154 257.262 144.648 257.119 145.117 257.119C146.029 257.119 146.667 257.445 147.031 258.096C147.396 258.747 147.578 259.801 147.578 261.26V263.037C147.578 263.415 147.591 263.747 147.617 264.033C147.643 264.32 147.682 264.567 147.734 264.775C147.76 264.827 147.852 264.886 148.008 264.951C148.164 265.016 148.333 265.068 148.516 265.107C148.698 265.146 148.828 265.166 148.906 265.166C148.945 265.166 148.971 265.244 148.984 265.4C148.997 265.557 148.991 265.667 148.965 265.732L146.875 265.635L144.824 265.732C144.772 265.68 144.746 265.57 144.746 265.4C144.746 265.244 144.772 265.166 144.824 265.166C144.928 265.166 145.065 265.146 145.234 265.107C145.404 265.068 145.56 265.016 145.703 264.951C145.846 264.886 145.924 264.827 145.938 264.775C145.99 264.593 146.022 264.385 146.035 264.15C146.061 263.916 146.074 263.669 146.074 263.408V261.455C146.074 260.244 145.918 259.417 145.605 258.975C145.293 258.532 144.785 258.311 144.082 258.311C143.809 258.311 143.535 258.389 143.262 258.545C142.988 258.688 142.76 258.857 142.578 259.053C142.396 259.248 142.305 259.43 142.305 259.6V263.037C142.305 263.415 142.318 263.747 142.344 264.033C142.37 264.32 142.409 264.567 142.461 264.775C142.487 264.827 142.578 264.886 142.734 264.951C142.891 265.016 143.06 265.068 143.242 265.107C143.424 265.146 143.555 265.166 143.633 265.166C143.672 265.166 143.698 265.244 143.711 265.4C143.724 265.557 143.717 265.667 143.691 265.732L141.602 265.635L139.473 265.732ZM151.191 270.107C150.918 270.107 150.716 270.023 150.586 269.854C150.456 269.684 150.391 269.515 150.391 269.346C150.391 269.072 150.482 268.864 150.664 268.721C151.745 268.721 152.461 268.161 152.812 267.041C152.878 266.846 152.956 266.611 153.047 266.338C153.138 266.064 153.21 265.843 153.262 265.674L150.469 258.838C150.404 258.682 150.339 258.551 150.273 258.447C150.208 258.33 150.143 258.239 150.078 258.174C149.961 258.057 149.779 257.959 149.531 257.881C149.297 257.803 149.108 257.764 148.965 257.764C148.913 257.764 148.887 257.679 148.887 257.51C148.887 257.354 148.913 257.249 148.965 257.197C149.316 257.21 149.661 257.23 150 257.256C150.352 257.269 150.71 257.275 151.074 257.275C151.491 257.275 151.849 257.269 152.148 257.256C152.448 257.23 152.721 257.21 152.969 257.197C152.995 257.301 153.008 257.399 153.008 257.49C153.008 257.673 152.982 257.764 152.93 257.764C152.878 257.764 152.78 257.783 152.637 257.822C152.507 257.861 152.376 257.913 152.246 257.979C152.116 258.031 152.038 258.096 152.012 258.174V258.213C152.012 258.434 152.708 260.133 154.102 263.311L155.586 259.033C155.677 258.773 155.723 258.571 155.723 258.428C155.723 258.232 155.618 258.076 155.41 257.959C155.215 257.829 154.948 257.764 154.609 257.764C154.557 257.764 154.531 257.679 154.531 257.51C154.531 257.354 154.557 257.249 154.609 257.197C154.779 257.21 155.033 257.23 155.371 257.256C155.71 257.282 156.035 257.295 156.348 257.295C156.634 257.295 156.947 257.282 157.285 257.256C157.624 257.23 157.878 257.21 158.047 257.197C158.073 257.301 158.086 257.399 158.086 257.49C158.086 257.673 158.06 257.764 158.008 257.764C157.839 257.764 157.611 257.822 157.324 257.939C157.038 258.057 156.842 258.245 156.738 258.506L153.242 267.939C152.943 268.747 152.604 269.307 152.227 269.619C151.849 269.945 151.504 270.107 151.191 270.107Z" fill="black"/>
<path d="M73.1641 15.2578C72.7188 14.4258 72.168 13.6348 71.5117 12.8848L72.373 11.9531C75.2324 14.2383 76.6621 16.2129 76.6621 17.877C76.6621 18.5098 76.3984 18.9609 75.8711 19.2305C75.543 19.3945 75.25 19.4766 74.9922 19.4766C74.6406 19.4766 74.4121 19.1895 74.3066 18.6152C74.1777 17.8418 73.9902 17.1387 73.7441 16.5059C72.4434 16.7871 71.2773 17.0273 70.2461 17.2266V33.7676H68.0137V17.5957L67.6973 17.6484C66.5371 17.8359 65.2598 18.0117 63.8652 18.1758C63.5723 18.9609 63.2969 19.3535 63.0391 19.3535C62.5938 19.3535 62.1895 18.2578 61.8262 16.0664C63.9473 15.9844 65.2363 15.9316 65.6934 15.9082C68.3301 12.7793 70.7383 9.03516 72.918 4.67578C74.6992 5.54297 75.5898 6.23438 75.5898 6.75C75.5898 7.10156 75.1387 7.3125 74.2363 7.38281C72.3262 10.2656 70.082 13.0723 67.5039 15.8027C69.6602 15.6621 71.5469 15.4805 73.1641 15.2578ZM80.248 31.7461V33.7676H78.1211V19.8809C78.3906 19.9863 78.9531 20.1973 79.8086 20.5137L80.2129 20.6719L80.6699 20.8477H89.9336L91.2168 19.4766C92.8223 20.7656 93.625 21.5918 93.625 21.9551C93.625 22.1074 93.5195 22.2539 93.3086 22.3945L92.4121 22.9746V33.7676H90.25V31.7461H80.248ZM80.248 29.9531H90.25V22.5352H80.248V29.9531ZM65.5352 6.83789C66.8359 4.63477 67.8379 2.35547 68.541 0C70.709 0.703125 71.793 1.3125 71.793 1.82812C71.793 2.14453 71.2891 2.33789 70.2812 2.4082C69.2031 4.27148 67.9844 6.02344 66.625 7.66406C67.8789 8.71875 68.5059 9.66211 68.5059 10.4941C68.5059 10.916 68.3301 11.291 67.9785 11.6191C67.6152 11.9473 67.2754 12.1113 66.959 12.1113C66.666 12.1113 66.4375 11.8828 66.2734 11.4258C65.6055 9.50391 64.1934 7.74609 62.0371 6.15234L62.7578 5.18555C63.9766 5.8418 64.9023 6.39258 65.5352 6.83789ZM86.3652 9.35156V15.1875H90.1797L91.8672 13.166C92.7578 13.9277 93.5605 14.7715 94.2754 15.6973L93.7129 16.8047H77.4004L76.8555 15.1875H84.1328V9.35156H76.0293L75.5195 7.62891H84.1328V0.966797C86.582 1.01367 87.8066 1.33594 87.8066 1.93359C87.8066 2.26172 87.3262 2.625 86.3652 3.02344V7.62891H91.1816L92.9922 5.53711C93.8828 6.3457 94.7207 7.22461 95.5059 8.17383L94.9258 9.35156H86.3652ZM61.5625 30.8496C62.6289 28.1895 63.3379 24.7852 63.6895 20.6367C66.0332 21.1523 67.2051 21.6738 67.2051 22.2012C67.2051 22.4941 66.7773 22.7402 65.9219 22.9395C65.207 26.1973 64.1406 29.0742 62.7227 31.5703L61.5625 30.8496ZM72.3555 19.9863C74.7578 22.7754 75.959 24.9609 75.959 26.543C75.959 27.2812 75.6777 27.7852 75.1152 28.0547C74.7871 28.2188 74.4707 28.3008 74.166 28.3008C73.7676 28.3008 73.5508 28.002 73.5156 27.4043C73.375 25.084 72.6426 22.8516 71.3184 20.707L72.3555 19.9863ZM71.002 65.4883C69.291 68.8516 66.7188 71.5352 63.2852 73.5391L62.3887 72.502C65.2832 70.4746 67.5801 67.6562 69.2793 64.0469C68.0254 63.0742 66.7598 62.207 65.4824 61.4453C65.3652 61.8203 65.1133 62.6523 64.7266 63.9414L62.6699 63.291C63.8066 59.5293 64.9023 55.0879 65.957 49.9668H62.248L61.7734 48.2793H66.2734C66.6836 46.0293 67.0703 43.3984 67.4336 40.3867C69.8125 40.6445 71.002 41.0605 71.002 41.6348C71.002 41.9746 70.4805 42.2793 69.4375 42.5488C69.1562 44.6816 68.875 46.5098 68.5938 48.0332L68.5586 48.2793H72.1445L73.4102 46.7676C74.9453 48.0449 75.7129 48.8945 75.7129 49.3164C75.7129 49.4922 75.6133 49.6621 75.4141 49.8262L74.6934 50.4062C74.1074 55.3281 73.1816 59.6875 71.916 63.4844C74.834 65.3828 76.293 66.7715 76.293 67.6504C76.293 68.002 76.0996 68.4062 75.7129 68.8633C75.4199 69.2148 75.127 69.3906 74.834 69.3906C74.5762 69.3906 74.3008 69.1973 74.0078 68.8105C73.1875 67.6855 72.1855 66.5781 71.002 65.4883ZM70.0352 62.3242C70.082 62.1719 70.1289 62.0137 70.1758 61.8496C71.2422 58.5215 71.957 54.5605 72.3203 49.9668H68.2422C67.6211 53.3887 66.8242 56.7754 65.8516 60.127C67.4336 60.8887 68.8281 61.6211 70.0352 62.3242ZM79.9141 55.5742C81.9531 55.2461 84.0918 54.7949 86.3301 54.2207V55.7324C83.3652 56.6934 80.1953 57.4961 76.8203 58.1406C76.5391 58.9727 76.2578 59.3887 75.9766 59.3887C75.5078 59.3887 75.0566 58.334 74.623 56.2246C75.8418 56.1309 76.8848 56.0254 77.752 55.9082V42.6543C78.6191 43.0527 79.4219 43.4395 80.1602 43.8145C84.3789 43.1816 88.0527 42.0625 91.1816 40.457C92.5762 41.6523 93.2734 42.4609 93.2734 42.8828C93.2734 43.1289 93.0332 43.252 92.5527 43.252C92.248 43.252 91.8379 43.1992 91.3223 43.0938C90.3379 43.3867 89.2363 43.668 88.0176 43.9375L87.4023 44.0781C87.4141 44.1484 87.4199 44.2656 87.4199 44.4297C87.502 45.9883 87.6836 47.4531 87.9648 48.8242H91.1113L92.6582 47.0137C93.5371 47.7871 94.293 48.5957 94.9258 49.4395L94.4512 50.4766H88.4043C88.9902 52.293 89.875 53.7988 91.0586 54.9941C91.7383 55.6973 92.207 56.0488 92.4648 56.0488C92.9453 56.0488 93.4902 54.7305 94.0996 52.0938L95.2949 52.8848C94.9316 54.3965 94.75 55.4805 94.75 56.1367C94.75 56.957 95.0488 57.4434 95.6465 57.5957C95.3184 58.6152 94.7441 59.125 93.9238 59.125C93.4082 59.125 92.7812 58.9434 92.043 58.5801C89.3125 57.2441 87.3613 54.5781 86.1895 50.582H79.9141V55.5742ZM79.9141 48.9648H85.8027C85.5215 47.5938 85.3398 46.1055 85.2578 44.5C83.4883 44.8164 81.7832 45.0625 80.1426 45.2383L79.9141 45.2734V48.9648ZM79.9141 71.8691V73.7852H77.752V58.9316C78.373 59.1074 79.0176 59.3008 79.6855 59.5117L79.9844 59.6172H90.2852L91.1816 58.791C92.8457 59.916 93.6777 60.6426 93.6777 60.9707C93.6777 61.1348 93.5664 61.293 93.3438 61.4453L92.623 61.9551V73.7852H90.4609V71.8691H79.9141ZM79.9141 64.6973H90.4609V61.3398H79.9141V64.6973ZM79.9141 66.4199V70.1816H90.4609V66.4199H79.9141ZM81.4434 90.7227H63.3379L62.7578 88.9297H81.2676C81.0918 87.3125 81.0039 85.373 81.0039 83.1113V80.8789C83.418 80.9023 84.625 81.207 84.625 81.793C84.625 82.1094 84.1855 82.4609 83.3066 82.8477V83.252C83.3066 85.1973 83.377 87.0312 83.5176 88.7539H90.5488L92.2363 86.7324C93.0801 87.5059 93.9121 88.4082 94.7324 89.4395L94.1172 90.5469H83.7109C84.3906 96.1133 85.8438 100.742 88.0703 104.434C89.2773 106.438 90.291 107.797 91.1113 108.512C91.2988 108.676 91.4629 108.758 91.6035 108.758C91.873 108.758 92.1602 108.301 92.4648 107.387C93.0156 105.711 93.4785 103.854 93.8535 101.814L95.1543 102.676C94.5918 105.641 94.3105 107.727 94.3105 108.934C94.3105 109.719 94.4219 110.287 94.6445 110.639C94.7852 110.838 95.0137 111.002 95.3301 111.131C94.8965 112.244 94.293 112.801 93.5195 112.801C92.8164 112.801 91.9375 112.385 90.8828 111.553C89.6641 110.592 88.4277 109.162 87.1738 107.264C84.127 102.635 82.2168 97.1211 81.4434 90.7227ZM74.166 98.1758V106.895C76.5801 106.402 79.1465 105.74 81.8652 104.908V106.701C76.6855 108.471 71.6348 109.83 66.7129 110.779C66.4434 111.834 66.1445 112.361 65.8164 112.361C65.2656 112.361 64.6621 111.078 64.0059 108.512C66.291 108.266 68.9453 107.873 71.9688 107.334V98.1758H65.6055L65.0957 96.4883H77.084L78.7715 94.4668C79.6973 95.2051 80.5234 96.0605 81.25 97.0332L80.6875 98.1758H74.166ZM86.5938 81.1953C89.6758 82.9297 91.2168 84.4355 91.2168 85.7129C91.2168 86.2168 90.9473 86.6328 90.4082 86.9609C90.0449 87.1719 89.7285 87.2773 89.459 87.2773C89.0137 87.2773 88.6914 86.9434 88.4922 86.2754C88.0352 84.6816 87.1152 83.3105 85.7324 82.1621L86.5938 81.1953ZM78.8945 151.676V153.768H76.6621V139.02C77.1191 139.137 77.7637 139.348 78.5957 139.652L79.1582 139.846H89.9336L91.1641 138.58C92.7695 139.74 93.5723 140.514 93.5723 140.9C93.5723 141.088 93.4551 141.275 93.2207 141.463L92.4297 142.078V153.768H90.1973V151.676H78.8945ZM78.8945 149.953H90.1973V141.568H78.8945V149.953ZM83.8691 124.887C83.834 127.535 83.3008 129.896 82.2695 131.971C80.9688 134.619 78.6016 136.916 75.168 138.861L74.2012 137.596C75.666 136.658 76.8379 135.727 77.7168 134.801C80.0137 132.363 81.25 129.059 81.4258 124.887H75.3613L74.8516 123.199H90.7598L92.0605 121.793C93.584 122.988 94.3457 123.803 94.3457 124.236C94.3457 124.412 94.2402 124.57 94.0293 124.711L93.168 125.273C93.1562 130.676 92.6172 134.203 91.5508 135.855C91.1523 136.465 90.4492 136.945 89.4414 137.297C88.8906 137.484 88.3457 137.596 87.8066 137.631C87.7715 137.01 87.4141 136.582 86.7344 136.348C86.2305 136.16 85.1113 135.938 83.377 135.68V134.326C85.2168 134.561 86.6172 134.678 87.5781 134.678C88.9961 134.678 89.8574 134.127 90.1621 133.025C90.7012 131.092 90.9824 128.379 91.0059 124.887H83.8691ZM69.7891 129.826V136.664C71.2891 136.043 73.0059 135.229 74.9395 134.221V135.768C73.1934 136.881 71.4766 137.883 69.7891 138.773V151.078C69.7891 152.391 69.2441 153.164 68.1543 153.398C67.4629 153.551 66.8184 153.627 66.2207 153.627C66.1973 152.936 65.8926 152.479 65.3066 152.256C64.9434 152.115 64.1406 151.934 62.8984 151.711V150.463C64.2578 150.604 65.5352 150.674 66.7305 150.674C67.1523 150.674 67.4043 150.562 67.4863 150.34C67.5332 150.234 67.5566 150.082 67.5566 149.883V139.863C66.5605 140.32 65.4883 140.777 64.3398 141.234C64.1289 142.266 63.8594 142.781 63.5312 142.781C63.0039 142.781 62.459 141.68 61.8965 139.477C63.7246 138.949 65.4941 138.363 67.2051 137.719L67.5566 137.578V129.826H62.582L62.1426 128.209H67.5566V120.404C70.0762 120.451 71.3359 120.756 71.3359 121.318C71.3359 121.646 70.8203 122.01 69.7891 122.408V128.209H71.4766L73.0938 126.082C73.9492 126.961 74.6582 127.852 75.2207 128.754L74.6406 129.826H69.7891ZM86.8223 174.045H72.7949L72.25 172.322H81.8301V167.348H74.2363L73.7617 165.66H81.8301V160.229C84.3145 160.369 85.5566 160.703 85.5566 161.23C85.5566 161.559 85.0234 161.922 83.957 162.32V165.66H89.0547L90.707 163.674C91.668 164.588 92.4707 165.455 93.1152 166.275L92.5 167.348H83.957V172.322H91.1816L92.7988 170.441C93.7012 171.145 94.5625 171.977 95.3828 172.938L94.7676 174.045H88.9492V178.721H91.2168L92.7637 176.822C93.7715 177.783 94.5391 178.633 95.0664 179.371L94.4863 180.443H88.9492V190.779C88.9492 191.916 88.5742 192.672 87.8242 193.047C87.1445 193.387 86.2129 193.557 85.0293 193.557C85.0059 192.912 84.6777 192.479 84.0449 192.256C83.541 192.068 82.334 191.852 80.4238 191.605V190.199C82.0879 190.398 83.793 190.498 85.5391 190.498C86.0898 190.498 86.4414 190.416 86.5938 190.252C86.7461 190.088 86.8223 189.818 86.8223 189.443V180.443H72.8652L72.2852 178.721H86.8223V174.045ZM69.2441 175.17C69.3027 175.182 69.3848 175.199 69.4902 175.223C70.4395 175.41 70.9141 175.674 70.9141 176.014C70.9141 176.33 70.4629 176.67 69.5605 177.033V193.768H67.3984V177.648C65.8633 179.512 64.2871 181.117 62.6699 182.465L61.7383 181.533C65.3711 177.912 68.3008 173.4 70.5273 167.998C72.5195 168.771 73.5156 169.41 73.5156 169.914C73.5156 170.266 73 170.477 71.9688 170.547C71.125 172.199 70.2168 173.74 69.2441 175.17ZM76.627 181.094C80.2715 183.391 82.0938 185.266 82.0938 186.719C82.0938 187.258 81.8125 187.668 81.25 187.949C80.8398 188.16 80.5176 188.266 80.2832 188.266C80.002 188.266 79.7676 188.002 79.5801 187.475C78.8887 185.482 77.6055 183.684 75.7305 182.078L76.627 181.094ZM62.125 170.916C65.5234 168.326 68.4297 164.893 70.8438 160.615C72.7422 161.6 73.6914 162.332 73.6914 162.812C73.6914 163.176 73.1348 163.381 72.0215 163.428C69.666 166.697 66.6309 169.539 62.916 171.953L62.125 170.916ZM84.7305 213.852C86.1484 221.445 89.8223 227.24 95.752 231.236C95.0254 231.74 94.3398 232.438 93.6953 233.328C88.3398 229.062 85.0527 223.426 83.834 216.418C83.3887 219.078 82.709 221.451 81.7949 223.537C80.0605 227.498 77.248 230.867 73.3574 233.645L72.3555 232.432C75.8359 229.666 78.3672 226.238 79.9492 222.148C80.9336 219.617 81.5781 216.852 81.8828 213.852H73.2871L72.8301 212.164H82.0059L82.0234 211.988C82.0586 211.285 82.0762 210.553 82.0762 209.791V201.143C84.6191 201.225 85.8906 201.547 85.8906 202.109C85.8906 202.438 85.375 202.801 84.3438 203.199V209.756C84.3438 210.658 84.3262 211.461 84.291 212.164H90.9004L92.5176 210.266C93.5957 211.227 94.4219 212.076 94.9961 212.814L94.416 213.852H84.7305ZM69.332 220.654C67.9492 221.979 66.291 223.314 64.3574 224.662C64.3223 225.787 64.1289 226.35 63.7773 226.35C63.2383 226.35 62.5703 225.26 61.7734 223.08C64.5508 221.896 67.0703 220.402 69.332 218.598V201.002C71.875 201.061 73.1465 201.406 73.1465 202.039C73.1465 202.379 72.6191 202.742 71.5645 203.129V233.768H69.332V220.654ZM63.0742 207.014C66.0742 209.803 67.5742 212.094 67.5742 213.887C67.5742 214.613 67.2812 215.123 66.6953 215.416C66.3555 215.592 66.0566 215.68 65.7988 215.68C65.4121 215.68 65.166 215.322 65.0605 214.607C64.709 212.334 63.7188 210.131 62.0898 207.998L63.0742 207.014ZM87.332 203.059C90.5664 205.168 92.1836 206.92 92.1836 208.314C92.1836 208.854 91.9141 209.27 91.375 209.562C90.9648 209.785 90.6309 209.896 90.373 209.896C89.9863 209.896 89.7285 209.586 89.5996 208.965C89.2246 207.055 88.1582 205.408 86.4004 204.025L87.332 203.059Z" fill="black"/>
</svg>
