<svg width="68" height="13" viewBox="0 0 68 13" fill="none" xmlns="http://www.w3.org/2000/svg">
<path d="M0.0703125 11.7773C0.0351562 11.7422 0.0175781 11.6367 0.0175781 11.4609C0.0175781 11.3086 0.0351562 11.2324 0.0703125 11.2324C0.1875 11.2324 0.328125 11.2148 0.492188 11.1797C0.667969 11.1445 0.832031 11.1035 0.984375 11.0566C1.14844 10.998 1.24805 10.9336 1.2832 10.8633C1.36523 10.7344 1.40625 10.1836 1.40625 9.21094V2.56641C1.40625 2.22656 1.39453 1.92773 1.37109 1.66992C1.35938 1.41211 1.33008 1.20703 1.2832 1.05469C1.25977 0.984375 1.16602 0.919922 1.00195 0.861328C0.849609 0.802734 0.679688 0.755859 0.492188 0.720703C0.316406 0.685547 0.175781 0.667969 0.0703125 0.667969C0.0234375 0.667969 0 0.597656 0 0.457031C0 0.304688 0.0234375 0.205078 0.0703125 0.158203L2.17969 0.193359C2.35547 0.193359 2.54883 0.193359 2.75977 0.193359C2.9707 0.181641 3.19336 0.169922 3.42773 0.158203C3.66211 0.146484 3.88477 0.140625 4.0957 0.140625C4.30664 0.128906 4.49414 0.123047 4.6582 0.123047C5.04492 0.123047 5.4375 0.181641 5.83594 0.298828C6.23438 0.416016 6.61523 0.591797 6.97852 0.826172C7.35352 1.06055 7.65234 1.39453 7.875 1.82812C8.10938 2.26172 8.22656 2.76562 8.22656 3.33984C8.22656 3.70312 8.15039 4.08984 7.99805 4.5C7.8457 4.91016 7.61719 5.29688 7.3125 5.66016C7.01953 6.01172 6.64453 6.29883 6.1875 6.52148C5.74219 6.74414 5.22656 6.85547 4.64062 6.85547C3.98438 6.85547 3.5332 6.69141 3.28711 6.36328C3.2168 6.28125 3.19922 6.14648 3.23438 5.95898C3.25781 5.90039 3.27539 5.88281 3.28711 5.90625C3.65039 6.03516 4.04297 6.09961 4.46484 6.09961C4.86328 6.09961 5.2207 5.98828 5.53711 5.76562C5.86523 5.53125 6.12305 5.22656 6.31055 4.85156C6.50977 4.46484 6.60938 4.04883 6.60938 3.60352C6.60938 2.77148 6.42773 2.11523 6.06445 1.63477C5.70117 1.14258 5.13867 0.896484 4.37695 0.896484C3.83789 0.896484 3.42773 0.9375 3.14648 1.01953C3.04102 1.03125 2.97656 1.21289 2.95312 1.56445C2.94141 1.91602 2.93555 2.37891 2.93555 2.95312V9.22852C2.93555 10.002 2.98242 10.5117 3.07617 10.7578C3.12305 10.8516 3.23438 10.9395 3.41016 11.0215C3.59766 11.1035 3.79688 11.168 4.00781 11.2148C4.21875 11.25 4.37109 11.2676 4.46484 11.2676C4.51172 11.2676 4.53516 11.3496 4.53516 11.5137C4.53516 11.5957 4.52344 11.6836 4.5 11.7773C3.91406 11.7539 3.42773 11.7363 3.04102 11.7246C2.66602 11.7012 2.39062 11.6895 2.21484 11.6895L0.0703125 11.7773ZM20.127 11.8125C18.498 11.8125 17.0742 10.9688 15.8555 9.28125C15.7617 9.15234 15.6387 8.97656 15.4863 8.75391C15.3457 8.53125 15.082 8.13867 14.6953 7.57617C14.5078 7.30664 14.3379 7.08398 14.1855 6.9082C14.0449 6.7207 13.875 6.58008 13.6758 6.48633C13.4883 6.39258 13.2305 6.3457 12.9023 6.3457C12.7734 6.3457 12.668 6.36328 12.5859 6.39844C12.5156 6.43359 12.4805 6.51562 12.4805 6.64453V9.22852C12.4805 10.002 12.5273 10.5117 12.6211 10.7578C12.668 10.8516 12.7793 10.9395 12.9551 11.0215C13.1426 11.1035 13.3418 11.168 13.5527 11.2148C13.7637 11.25 13.916 11.2676 14.0098 11.2676C14.0566 11.2676 14.0801 11.3496 14.0801 11.5137C14.0801 11.5957 14.0684 11.6836 14.0449 11.7773C13.459 11.7539 12.9727 11.7305 12.5859 11.707C12.2109 11.6836 11.9355 11.6777 11.7598 11.6895L9.61523 11.7773C9.58008 11.7422 9.5625 11.6367 9.5625 11.4609C9.5625 11.3086 9.58008 11.2324 9.61523 11.2324C9.73242 11.2324 9.87305 11.2148 10.0371 11.1797C10.2129 11.1445 10.377 11.1035 10.5293 11.0566C10.6934 10.998 10.793 10.9336 10.8281 10.8633C10.9102 10.7344 10.9512 10.1836 10.9512 9.21094V2.56641C10.9512 2.22656 10.9395 1.92773 10.916 1.66992C10.9043 1.41211 10.875 1.20703 10.8281 1.05469C10.8047 0.984375 10.7109 0.919922 10.5469 0.861328C10.3945 0.802734 10.2246 0.755859 10.0371 0.720703C9.86133 0.685547 9.7207 0.667969 9.61523 0.667969C9.56836 0.667969 9.54492 0.597656 9.54492 0.457031C9.54492 0.304688 9.56836 0.205078 9.61523 0.158203L11.7246 0.193359C12.0645 0.205078 12.4805 0.199219 12.9727 0.175781C13.4648 0.140625 13.875 0.123047 14.2031 0.123047C14.8359 0.123047 15.4395 0.246094 16.0137 0.492188C16.5996 0.738281 17.0742 1.10156 17.4375 1.58203C17.8125 2.0625 18 2.64844 18 3.33984C18 3.83203 17.8125 4.34766 17.4375 4.88672C17.0742 5.42578 16.5762 5.8418 15.9434 6.13477C15.8262 6.18164 15.791 6.24023 15.8379 6.31055C16.4121 7.5293 17.0859 8.56055 17.8594 9.4043C18.9844 10.6348 19.8984 11.25 20.6016 11.25C20.6367 11.3203 20.6543 11.4023 20.6543 11.4961C20.6543 11.6016 20.6367 11.6895 20.6016 11.7598C20.4844 11.7949 20.3262 11.8125 20.127 11.8125ZM14.0098 5.58984H14.4492C14.7305 5.58984 15.0176 5.49609 15.3105 5.30859C15.6152 5.12109 15.8672 4.85742 16.0664 4.51758C16.2773 4.17773 16.3828 3.78516 16.3828 3.33984C16.3828 1.71094 15.5625 0.896484 13.9219 0.896484C13.3828 0.896484 12.9727 0.9375 12.6914 1.01953C12.5859 1.04297 12.5215 1.23633 12.498 1.59961C12.4863 1.95117 12.4805 2.40234 12.4805 2.95312V5.08008C12.4805 5.41992 12.9902 5.58984 14.0098 5.58984ZM22.377 10.1602C21.2754 9.01172 20.7246 7.61133 20.7246 5.95898C20.7246 5.13867 20.8711 4.37109 21.1641 3.65625C21.457 2.92969 21.8555 2.29687 22.3594 1.75781C22.875 1.20703 23.4727 0.779297 24.1523 0.474609C24.832 0.158203 25.5586 0 26.332 0C27.1055 0 27.832 0.158203 28.5117 0.474609C29.1914 0.779297 29.7891 1.20703 30.3047 1.75781C30.8203 2.29687 31.2246 2.92969 31.5176 3.65625C31.8105 4.37109 31.957 5.13867 31.957 5.95898C31.957 7.61133 31.4062 9.01172 30.3047 10.1602C29.5547 10.957 28.7051 11.4844 27.7559 11.7422C26.8066 12.0117 25.8574 12.0117 24.9082 11.7422C23.9707 11.4844 23.127 10.957 22.377 10.1602ZM26.6133 11.1445C27.3633 11.1445 28.0195 10.8984 28.582 10.4062C29.1445 9.92578 29.5547 9.32812 29.8125 8.61328C30.082 7.88672 30.2168 7.11328 30.2168 6.29297C30.2168 5.36719 30.0645 4.48242 29.7598 3.63867C29.4551 2.80664 28.9805 2.11523 28.3359 1.56445C27.6914 1.01367 26.9355 0.738281 26.0684 0.738281C25.3301 0.738281 24.6914 0.966797 24.1523 1.42383C23.6133 1.86914 23.1973 2.46094 22.9043 3.19922C22.6113 3.92578 22.4648 4.7168 22.4648 5.57227C22.4648 6.49805 22.6172 7.38281 22.9219 8.22656C23.2266 9.05859 23.7012 9.75586 24.3457 10.3184C24.9902 10.8691 25.7461 11.1445 26.6133 11.1445ZM33.5566 11.7773C33.5098 11.7305 33.4863 11.6426 33.4863 11.5137C33.4863 11.3496 33.5098 11.2676 33.5566 11.2676C33.6621 11.2676 33.8027 11.2559 33.9785 11.2324C34.1543 11.1973 34.3184 11.1504 34.4707 11.0918C34.623 11.0332 34.7109 10.9746 34.7344 10.916C34.8164 10.623 34.8574 10.0957 34.8574 9.33398V2.56641C34.8574 2.22656 34.8457 1.92773 34.8223 1.66992C34.8105 1.41211 34.7812 1.20703 34.7344 1.05469C34.7109 0.984375 34.6172 0.919922 34.4531 0.861328C34.3008 0.802734 34.1309 0.755859 33.9434 0.720703C33.7676 0.685547 33.627 0.667969 33.5215 0.667969C33.4746 0.667969 33.4512 0.597656 33.4512 0.457031C33.4512 0.304688 33.4746 0.205078 33.5215 0.158203C33.8262 0.169922 34.1484 0.181641 34.4883 0.193359C34.8398 0.193359 35.2148 0.193359 35.6133 0.193359C35.8828 0.193359 36.2461 0.1875 36.7031 0.175781C37.1602 0.164063 37.7109 0.146484 38.3555 0.123047C39.0117 0.0996094 39.5801 0.0820312 40.0605 0.0703125C40.5527 0.0585938 40.9629 0.0527344 41.291 0.0527344C41.3145 0.216797 41.3496 0.416016 41.3965 0.650391C41.4434 0.873047 41.502 1.11914 41.5723 1.38867C41.6309 1.66992 41.6777 1.89844 41.7129 2.07422C41.7598 2.25 41.7891 2.37305 41.8008 2.44336C41.7422 2.50195 41.6367 2.53125 41.4844 2.53125C41.332 2.53125 41.25 2.49023 41.2383 2.4082C41.0625 1.76367 40.8164 1.35352 40.5 1.17773C40.1836 0.990234 39.75 0.896484 39.1992 0.896484H38.0215C37.002 0.896484 36.4863 0.972656 36.4746 1.125C36.4512 1.26562 36.4277 1.45898 36.4043 1.70508C36.3926 1.95117 36.3867 2.25 36.3867 2.60156V5.4668C36.3867 5.53711 36.6328 5.57227 37.125 5.57227H38.0566C38.584 5.57227 38.9648 5.55469 39.1992 5.51953C39.4336 5.47266 39.5977 5.37305 39.6914 5.2207C39.7852 5.05664 39.873 4.79883 39.9551 4.44727L39.9902 4.28906C40.002 4.20703 40.0898 4.16602 40.2539 4.16602C40.3945 4.16602 40.4941 4.19531 40.5527 4.25391V7.66406C40.5059 7.71094 40.4121 7.73438 40.2715 7.73438C40.1191 7.73438 40.0254 7.6875 39.9902 7.59375C39.9434 7.42969 39.9023 7.28906 39.8672 7.17188C39.832 7.05469 39.8027 6.95508 39.7793 6.87305C39.7207 6.70898 39.6738 6.61523 39.6387 6.5918C39.6152 6.56836 39.5684 6.5332 39.498 6.48633C39.334 6.39258 38.7129 6.3457 37.6348 6.3457C36.8027 6.3457 36.3867 6.39844 36.3867 6.50391V9.28125C36.3867 9.96094 36.4395 10.5059 36.5449 10.916C36.5684 10.9629 36.6562 11.0156 36.8086 11.0742C36.9609 11.1328 37.125 11.1797 37.3008 11.2148C37.4766 11.25 37.5996 11.2676 37.6699 11.2676C37.7168 11.2676 37.7402 11.3555 37.7402 11.5312C37.7402 11.6016 37.7285 11.6836 37.7051 11.7773C37.1191 11.7539 36.6562 11.7363 36.3164 11.7246C35.9766 11.7012 35.7598 11.6895 35.666 11.6895L33.5566 11.7773ZM43.1719 11.7773C43.125 11.7305 43.1016 11.6426 43.1016 11.5137C43.1016 11.3496 43.125 11.2676 43.1719 11.2676C43.2773 11.2676 43.418 11.2559 43.5938 11.2324C43.7695 11.1973 43.9336 11.1504 44.0859 11.0918C44.2383 11.0332 44.3262 10.9746 44.3496 10.916C44.3965 10.752 44.4258 10.541 44.4375 10.2832C44.4609 10.0254 44.4727 9.71484 44.4727 9.35156V2.53125C44.4727 2.16797 44.4609 1.85742 44.4375 1.59961C44.4258 1.33008 44.3965 1.11914 44.3496 0.966797C44.3262 0.896484 44.2383 0.837891 44.0859 0.791016C43.9336 0.732422 43.7695 0.685547 43.5938 0.650391C43.418 0.615234 43.2773 0.597656 43.1719 0.597656C43.125 0.597656 43.1016 0.521484 43.1016 0.369141C43.1016 0.228516 43.125 0.134766 43.1719 0.0878906L45.2812 0.175781C45.375 0.175781 45.5918 0.169922 45.9316 0.158203C46.2715 0.134766 46.7344 0.111328 47.3203 0.0878906C47.3438 0.181641 47.3555 0.269531 47.3555 0.351562C47.3555 0.515625 47.332 0.597656 47.2852 0.597656C47.2148 0.597656 47.0918 0.621094 46.916 0.667969C46.7402 0.703125 46.5762 0.75 46.4238 0.808594C46.2715 0.855469 46.1836 0.908203 46.1602 0.966797C46.0547 1.36523 46.002 1.91016 46.002 2.60156V9.28125C46.002 9.96094 46.0547 10.5059 46.1602 10.916C46.1836 10.9629 46.2715 11.0156 46.4238 11.0742C46.5762 11.1328 46.7402 11.1797 46.916 11.2148C47.0918 11.25 47.2148 11.2676 47.2852 11.2676C47.332 11.2676 47.3555 11.3555 47.3555 11.5312C47.3555 11.6016 47.3438 11.6836 47.3203 11.7773C46.7344 11.7539 46.2715 11.7363 45.9316 11.7246C45.5918 11.7012 45.375 11.6895 45.2812 11.6895L43.1719 11.7773ZM56.8301 11.7949C56.2207 11.7949 55.2715 11.7773 53.9824 11.7422C53.3379 11.7188 52.752 11.7012 52.2246 11.6895C51.6973 11.6777 51.2344 11.6777 50.8359 11.6895L48.709 11.7422C48.6738 11.707 48.6562 11.6133 48.6562 11.4609C48.6562 11.3086 48.6738 11.2324 48.709 11.2324C48.8262 11.2324 48.9668 11.2148 49.1309 11.1797C49.3066 11.1445 49.4707 11.1035 49.623 11.0566C49.7871 10.998 49.8867 10.9336 49.9219 10.8633C50.0039 10.7344 50.0449 10.1836 50.0449 9.21094V2.56641C50.0449 1.79297 50.0039 1.25977 49.9219 0.966797C49.8984 0.896484 49.8105 0.837891 49.6582 0.791016C49.5059 0.732422 49.3418 0.685547 49.166 0.650391C48.9902 0.615234 48.8496 0.597656 48.7441 0.597656C48.6973 0.597656 48.6738 0.521484 48.6738 0.369141C48.6738 0.228516 48.6973 0.134766 48.7441 0.0878906C48.8496 0.0878906 49.0254 0.0996094 49.2715 0.123047C49.5293 0.134766 49.8047 0.152344 50.0977 0.175781C50.3906 0.1875 50.6426 0.193359 50.8535 0.193359C51.2285 0.193359 51.6035 0.181641 51.9785 0.158203C52.3535 0.123047 52.6582 0.0996094 52.8926 0.0878906C52.916 0.181641 52.9277 0.269531 52.9277 0.351562C52.9277 0.515625 52.9043 0.597656 52.8574 0.597656C52.7871 0.597656 52.6641 0.621094 52.4883 0.667969C52.3125 0.703125 52.1484 0.75 51.9961 0.808594C51.8438 0.855469 51.7559 0.908203 51.7324 0.966797C51.627 1.36523 51.5742 1.91016 51.5742 2.60156V9.22852C51.5742 9.84961 51.627 10.3652 51.7324 10.7754C51.7676 10.8926 52.166 10.9512 52.9277 10.9512H53.7715C54.8496 10.9512 55.5879 10.8516 55.9863 10.6523C56.1621 10.5586 56.3555 10.3535 56.5664 10.0371C56.7891 9.70898 56.9648 9.32227 57.0938 8.87695C57.1172 8.80664 57.1992 8.77148 57.3398 8.77148C57.5625 8.77148 57.709 8.80664 57.7793 8.87695C57.7441 8.9707 57.6855 9.11719 57.6035 9.31641C57.5332 9.50391 57.4629 9.69727 57.3926 9.89648C57.3223 10.0957 57.2637 10.2656 57.2168 10.4062C57.1465 10.6172 57.0703 10.8574 56.9883 11.127C56.9062 11.3965 56.8535 11.6191 56.8301 11.7949ZM66.709 11.7949C66.416 11.7949 66.0293 11.7891 65.5488 11.7773C65.0801 11.7773 64.5234 11.7715 63.8789 11.7598C63.2344 11.748 62.6484 11.7363 62.1211 11.7246C61.5938 11.7246 61.125 11.7246 60.7148 11.7246L58.5879 11.7773C58.5527 11.7422 58.5352 11.6484 58.5352 11.4961C58.5352 11.3438 58.5527 11.2676 58.5879 11.2676C58.6934 11.2676 58.834 11.25 59.0098 11.2148C59.1855 11.168 59.3496 11.1152 59.502 11.0566C59.666 10.998 59.7656 10.9336 59.8008 10.8633C59.8828 10.7344 59.9238 10.1836 59.9238 9.21094V2.56641C59.9238 2.22656 59.9121 1.92773 59.8887 1.66992C59.877 1.41211 59.8477 1.20703 59.8008 1.05469C59.7773 0.984375 59.6836 0.919922 59.5195 0.861328C59.3672 0.802734 59.1973 0.755859 59.0098 0.720703C58.834 0.685547 58.6934 0.667969 58.5879 0.667969C58.541 0.667969 58.5176 0.597656 58.5176 0.457031C58.5176 0.304688 58.541 0.205078 58.5879 0.158203C58.8926 0.169922 59.2148 0.181641 59.5547 0.193359C59.9062 0.193359 60.2812 0.193359 60.6797 0.193359C60.9492 0.193359 61.3125 0.1875 61.7695 0.175781C62.2266 0.164063 62.7773 0.146484 63.4219 0.123047C64.0781 0.0996094 64.6465 0.0820312 65.127 0.0703125C65.6191 0.0585938 66.0293 0.0527344 66.3574 0.0527344C66.3809 0.216797 66.416 0.416016 66.4629 0.650391C66.5098 0.873047 66.5684 1.11914 66.6387 1.38867C66.6973 1.66992 66.7441 1.89844 66.7793 2.07422C66.8262 2.25 66.8555 2.37305 66.8672 2.44336C66.8086 2.50195 66.7031 2.53125 66.5508 2.53125C66.3984 2.53125 66.3164 2.49023 66.3047 2.4082C66.1289 1.76367 65.8828 1.35352 65.5664 1.17773C65.25 0.990234 64.8164 0.896484 64.2656 0.896484H63.0879C62.0684 0.896484 61.5527 0.972656 61.541 1.125C61.5176 1.26562 61.4941 1.45898 61.4707 1.70508C61.459 1.95117 61.4531 2.25 61.4531 2.60156V5.41406C61.4531 5.48438 61.7051 5.51953 62.209 5.51953H63.1406C63.5391 5.51953 63.8086 5.51953 63.9492 5.51953C64.0898 5.50781 64.1895 5.49023 64.248 5.4668C64.3184 5.44336 64.4473 5.4082 64.6348 5.36133C64.752 5.33789 64.8398 5.20312 64.8984 4.95703C64.9688 4.69922 65.0273 4.48828 65.0742 4.32422C65.0859 4.24219 65.1738 4.20117 65.3379 4.20117C65.4785 4.20117 65.5781 4.23047 65.6367 4.28906V7.61133C65.5898 7.6582 65.4961 7.68164 65.3555 7.68164C65.2031 7.68164 65.1094 7.63477 65.0742 7.54102C65.0273 7.37695 64.9863 7.23633 64.9512 7.11914C64.916 7.00195 64.8867 6.90234 64.8633 6.82031C64.8047 6.65625 64.7578 6.5625 64.7227 6.53906C64.6992 6.51562 64.6523 6.48047 64.582 6.43359C64.418 6.33984 63.7969 6.29297 62.7188 6.29297C61.875 6.29297 61.4531 6.3457 61.4531 6.45117V9.17578C61.4531 9.9375 61.5059 10.4707 61.6113 10.7754C61.6465 10.8926 62.0449 10.9512 62.8066 10.9512H63.6504C64.7285 10.9512 65.4668 10.8516 65.8652 10.6523C66.041 10.5586 66.2344 10.3535 66.4453 10.0371C66.668 9.70898 66.8438 9.32227 66.9727 8.87695C66.9961 8.80664 67.0781 8.77148 67.2188 8.77148C67.4414 8.77148 67.5879 8.80664 67.6582 8.87695C67.623 8.9707 67.5645 9.11719 67.4824 9.31641C67.4121 9.50391 67.3418 9.69727 67.2715 9.89648C67.2012 10.0957 67.1426 10.2656 67.0957 10.4062C67.0254 10.6172 66.9492 10.8574 66.8672 11.127C66.7852 11.3965 66.7324 11.6191 66.709 11.7949Z" fill="white"/>
</svg>
