<svg width="115" height="12" viewBox="0 0 115 12" fill="none" xmlns="http://www.w3.org/2000/svg">
<path d="M0.0703125 11.8477C0.0234375 11.8008 0 11.7129 0 11.584C0 11.4199 0.0234375 11.3379 0.0703125 11.3379C0.210938 11.3379 0.392578 11.3086 0.615234 11.25C0.837891 11.1914 0.990234 11.1094 1.07227 11.0039C1.20117 10.8398 1.33008 10.623 1.45898 10.3535C1.59961 10.084 1.74609 9.75 1.89844 9.35156L4.95703 1.49414C5.02734 1.31836 5.06836 1.19531 5.08008 1.125C5.10352 1.05469 5.12109 0.996094 5.13281 0.949219C5.15625 0.890625 5.19727 0.796875 5.25586 0.667969C5.33789 0.503906 5.41992 0.375 5.50195 0.28125C5.58398 0.1875 5.71875 0.140625 5.90625 0.140625L6.06445 0.193359L9.58008 9.47461C9.68555 9.74414 9.7793 9.98438 9.86133 10.1953C9.95508 10.4062 10.0312 10.5879 10.0898 10.7402C10.1367 10.8574 10.2363 10.9629 10.3887 11.0566C10.5527 11.1387 10.7168 11.209 10.8809 11.2676C11.0566 11.3145 11.1914 11.3379 11.2852 11.3379C11.332 11.3379 11.3555 11.4492 11.3555 11.6719C11.3555 11.6953 11.3496 11.7246 11.3379 11.7598C11.3379 11.7832 11.332 11.8125 11.3203 11.8477C10.7344 11.8242 10.2773 11.8066 9.94922 11.7949C9.63281 11.7715 9.44531 11.7598 9.38672 11.7598L7.34766 11.8477C7.30078 11.8008 7.27734 11.707 7.27734 11.5664C7.28906 11.4141 7.31836 11.3379 7.36523 11.3379C7.50586 11.3379 7.68164 11.3086 7.89258 11.25C8.10352 11.1914 8.22656 11.1152 8.26172 11.0215C8.27344 10.9746 8.2793 10.9277 8.2793 10.8809C8.29102 10.834 8.29688 10.7871 8.29688 10.7402C8.29688 10.5879 8.2793 10.4121 8.24414 10.2129C8.20898 10.002 8.16797 9.83789 8.12109 9.7207L7.33008 7.54102C7.29492 7.49414 7.25977 7.4707 7.22461 7.4707C6.76758 7.43555 6.32227 7.41797 5.88867 7.41797C5.58398 7.41797 5.24414 7.42969 4.86914 7.45312C4.50586 7.46484 4.10156 7.48242 3.65625 7.50586L3.56836 7.55859L2.8125 9.49219C2.69531 9.78516 2.61328 10.0312 2.56641 10.2305C2.53125 10.4297 2.51367 10.5879 2.51367 10.7051C2.51367 10.8691 2.56055 10.9863 2.6543 11.0566C2.75977 11.1387 2.92969 11.209 3.16406 11.2676C3.39844 11.3145 3.56836 11.3379 3.67383 11.3379C3.70898 11.3379 3.72656 11.4082 3.72656 11.5488C3.73828 11.6895 3.73242 11.7891 3.70898 11.8477L1.89844 11.7598C1.57031 11.7363 1.24805 11.7422 0.931641 11.7773C0.626953 11.8008 0.339844 11.8242 0.0703125 11.8477ZM5.27344 6.57422C5.80078 6.57422 6.33398 6.55664 6.87305 6.52148L6.92578 6.43359L5.50195 2.54883L3.99023 6.46875C3.99023 6.51562 4.00195 6.53906 4.02539 6.53906C4.33008 6.55078 4.58203 6.5625 4.78125 6.57422C4.99219 6.57422 5.15625 6.57422 5.27344 6.57422ZM13.9043 11.8477C13.8574 11.8008 13.834 11.7129 13.834 11.584C13.834 11.4199 13.8574 11.3379 13.9043 11.3379C14.0098 11.3379 14.1504 11.3262 14.3262 11.3027C14.502 11.2676 14.666 11.2207 14.8184 11.1621C14.9707 11.1035 15.0586 11.0449 15.082 10.9863C15.1289 10.8223 15.1582 10.6113 15.1699 10.3535C15.1934 10.0957 15.2051 9.78516 15.2051 9.42188V3.05859C15.2051 2.03906 15.1523 1.43555 15.0469 1.24805C14.9648 1.07227 14.332 0.984375 13.1484 0.984375C12.7031 0.984375 12.3574 1.02539 12.1113 1.10742C11.8652 1.17773 11.6777 1.32422 11.5488 1.54688C11.4199 1.76953 11.2969 2.10352 11.1797 2.54883C11.1562 2.60742 11.0977 2.63672 11.0039 2.63672C10.8047 2.63672 10.6641 2.5957 10.582 2.51367L10.916 0C11.1738 0.0585938 11.4023 0.105469 11.6016 0.140625C11.8008 0.175781 11.9766 0.193359 12.1289 0.193359C12.9727 0.193359 13.7168 0.205078 14.3613 0.228516C15.0059 0.251953 15.5449 0.263672 15.9785 0.263672C16.8809 0.263672 17.6543 0.251953 18.2988 0.228516C18.9551 0.205078 19.4707 0.193359 19.8457 0.193359C19.998 0.193359 20.1738 0.175781 20.373 0.140625C20.5723 0.105469 20.8008 0.0585938 21.0586 0L21.3926 2.51367C21.3105 2.5957 21.1699 2.63672 20.9707 2.63672C20.877 2.63672 20.8184 2.60742 20.7949 2.54883C20.6895 2.10352 20.5664 1.76953 20.4258 1.54688C20.2969 1.32422 20.1094 1.17773 19.8633 1.10742C19.6172 1.02539 19.2715 0.984375 18.8262 0.984375C17.5957 0.984375 16.9512 1.07227 16.8926 1.24805C16.7871 1.61133 16.7344 2.19727 16.7344 3.00586V9.35156C16.7344 10.0312 16.7871 10.5762 16.8926 10.9863C16.916 11.0332 17.0039 11.0859 17.1562 11.1445C17.3086 11.2031 17.4727 11.25 17.6484 11.2852C17.8242 11.3203 17.9473 11.3379 18.0176 11.3379C18.0645 11.3379 18.0879 11.4258 18.0879 11.6016C18.0879 11.6719 18.0762 11.7539 18.0527 11.8477C17.4668 11.8242 17.0039 11.8066 16.6641 11.7949C16.3242 11.7715 16.1074 11.7598 16.0137 11.7598L13.9043 11.8477ZM25.6641 11.8477C25.6172 11.8008 25.5938 11.7129 25.5938 11.584C25.5938 11.4199 25.6172 11.3379 25.6641 11.3379C25.7695 11.3379 25.9102 11.3262 26.0859 11.3027C26.2617 11.2676 26.4258 11.2207 26.5781 11.1621C26.7305 11.1035 26.8184 11.0449 26.8418 10.9863C26.8887 10.8223 26.918 10.6113 26.9297 10.3535C26.9531 10.0957 26.9648 9.78516 26.9648 9.42188V3.05859C26.9648 2.03906 26.9121 1.43555 26.8066 1.24805C26.7246 1.07227 26.0918 0.984375 24.9082 0.984375C24.4629 0.984375 24.1172 1.02539 23.8711 1.10742C23.625 1.17773 23.4375 1.32422 23.3086 1.54688C23.1797 1.76953 23.0566 2.10352 22.9395 2.54883C22.916 2.60742 22.8574 2.63672 22.7637 2.63672C22.5645 2.63672 22.4238 2.5957 22.3418 2.51367L22.6758 0C22.9336 0.0585938 23.1621 0.105469 23.3613 0.140625C23.5605 0.175781 23.7363 0.193359 23.8887 0.193359C24.7324 0.193359 25.4766 0.205078 26.1211 0.228516C26.7656 0.251953 27.3047 0.263672 27.7383 0.263672C28.6406 0.263672 29.4141 0.251953 30.0586 0.228516C30.7148 0.205078 31.2305 0.193359 31.6055 0.193359C31.7578 0.193359 31.9336 0.175781 32.1328 0.140625C32.332 0.105469 32.5605 0.0585938 32.8184 0L33.1523 2.51367C33.0703 2.5957 32.9297 2.63672 32.7305 2.63672C32.6367 2.63672 32.5781 2.60742 32.5547 2.54883C32.4492 2.10352 32.3262 1.76953 32.1855 1.54688C32.0566 1.32422 31.8691 1.17773 31.623 1.10742C31.377 1.02539 31.0312 0.984375 30.5859 0.984375C29.3555 0.984375 28.7109 1.07227 28.6523 1.24805C28.5469 1.61133 28.4941 2.19727 28.4941 3.00586V9.35156C28.4941 10.0312 28.5469 10.5762 28.6523 10.9863C28.6758 11.0332 28.7637 11.0859 28.916 11.1445C29.0684 11.2031 29.2324 11.25 29.4082 11.2852C29.584 11.3203 29.707 11.3379 29.7773 11.3379C29.8242 11.3379 29.8477 11.4258 29.8477 11.6016C29.8477 11.6719 29.8359 11.7539 29.8125 11.8477C29.2266 11.8242 28.7637 11.8066 28.4238 11.7949C28.084 11.7715 27.8672 11.7598 27.7734 11.7598L25.6641 11.8477ZM42.3105 11.8652C42.0176 11.8652 41.6309 11.8594 41.1504 11.8477C40.6816 11.8477 40.125 11.8418 39.4805 11.8301C38.8359 11.8184 38.25 11.8066 37.7227 11.7949C37.1953 11.7949 36.7266 11.7949 36.3164 11.7949L34.1895 11.8477C34.1543 11.8125 34.1367 11.7188 34.1367 11.5664C34.1367 11.4141 34.1543 11.3379 34.1895 11.3379C34.2949 11.3379 34.4355 11.3203 34.6113 11.2852C34.7871 11.2383 34.9512 11.1855 35.1035 11.127C35.2676 11.0684 35.3672 11.0039 35.4023 10.9336C35.4844 10.8047 35.5254 10.2539 35.5254 9.28125V2.63672C35.5254 2.29687 35.5137 1.99805 35.4902 1.74023C35.4785 1.48242 35.4492 1.27734 35.4023 1.125C35.3789 1.05469 35.2852 0.990234 35.1211 0.931641C34.9688 0.873047 34.7988 0.826172 34.6113 0.791016C34.4355 0.755859 34.2949 0.738281 34.1895 0.738281C34.1426 0.738281 34.1191 0.667969 34.1191 0.527344C34.1191 0.375 34.1426 0.275391 34.1895 0.228516C34.4941 0.240234 34.8164 0.251953 35.1562 0.263672C35.5078 0.263672 35.8828 0.263672 36.2812 0.263672C36.5508 0.263672 36.9141 0.257812 37.3711 0.246094C37.8281 0.234375 38.3789 0.216797 39.0234 0.193359C39.6797 0.169922 40.248 0.152344 40.7285 0.140625C41.2207 0.128906 41.6309 0.123047 41.959 0.123047C41.9824 0.287109 42.0176 0.486328 42.0645 0.720703C42.1113 0.943359 42.1699 1.18945 42.2402 1.45898C42.2988 1.74023 42.3457 1.96875 42.3809 2.14453C42.4277 2.32031 42.457 2.44336 42.4688 2.51367C42.4102 2.57227 42.3047 2.60156 42.1523 2.60156C42 2.60156 41.918 2.56055 41.9062 2.47852C41.7305 1.83398 41.4844 1.42383 41.168 1.24805C40.8516 1.06055 40.418 0.966797 39.8672 0.966797H38.6895C37.6699 0.966797 37.1543 1.04297 37.1426 1.19531C37.1191 1.33594 37.0957 1.5293 37.0723 1.77539C37.0605 2.02148 37.0547 2.32031 37.0547 2.67188V5.48438C37.0547 5.55469 37.3066 5.58984 37.8105 5.58984H38.7422C39.1406 5.58984 39.4102 5.58984 39.5508 5.58984C39.6914 5.57812 39.791 5.56055 39.8496 5.53711C39.9199 5.51367 40.0488 5.47852 40.2363 5.43164C40.3535 5.4082 40.4414 5.27344 40.5 5.02734C40.5703 4.76953 40.6289 4.55859 40.6758 4.39453C40.6875 4.3125 40.7754 4.27148 40.9395 4.27148C41.0801 4.27148 41.1797 4.30078 41.2383 4.35938V7.68164C41.1914 7.72852 41.0977 7.75195 40.957 7.75195C40.8047 7.75195 40.7109 7.70508 40.6758 7.61133C40.6289 7.44727 40.5879 7.30664 40.5527 7.18945C40.5176 7.07227 40.4883 6.97266 40.4648 6.89062C40.4062 6.72656 40.3594 6.63281 40.3242 6.60938C40.3008 6.58594 40.2539 6.55078 40.1836 6.50391C40.0195 6.41016 39.3984 6.36328 38.3203 6.36328C37.4766 6.36328 37.0547 6.41602 37.0547 6.52148V9.24609C37.0547 10.0078 37.1074 10.541 37.2129 10.8457C37.248 10.9629 37.6465 11.0215 38.4082 11.0215H39.252C40.3301 11.0215 41.0684 10.9219 41.4668 10.7227C41.6426 10.6289 41.8359 10.4238 42.0469 10.1074C42.2695 9.7793 42.4453 9.39258 42.5742 8.94727C42.5977 8.87695 42.6797 8.8418 42.8203 8.8418C43.043 8.8418 43.1895 8.87695 43.2598 8.94727C43.2246 9.04102 43.166 9.1875 43.084 9.38672C43.0137 9.57422 42.9434 9.76758 42.873 9.9668C42.8027 10.166 42.7441 10.3359 42.6973 10.4766C42.627 10.6875 42.5508 10.9277 42.4688 11.1973C42.3867 11.4668 42.334 11.6895 42.3105 11.8652ZM54.0176 11.8828C53.8301 11.8828 53.6367 11.748 53.4375 11.4785L46.6172 1.81055V9.31641C46.6172 10.1133 46.6582 10.6582 46.7402 10.9512C46.7637 10.998 46.8633 11.0566 47.0391 11.127C47.2266 11.1855 47.4258 11.2383 47.6367 11.2852C47.8477 11.3203 47.9883 11.3379 48.0586 11.3379C48.0938 11.3379 48.1113 11.4082 48.1113 11.5488C48.123 11.6895 48.1172 11.7891 48.0938 11.8477C47.5078 11.8242 47.0449 11.8066 46.7051 11.7949C46.377 11.7715 46.166 11.7598 46.0723 11.7598L44.0508 11.8477C44.0156 11.8125 43.998 11.7246 43.998 11.584C43.998 11.4199 44.0156 11.3379 44.0508 11.3379C44.168 11.3379 44.332 11.3203 44.543 11.2852C44.7539 11.2383 44.9531 11.1855 45.1406 11.127C45.3281 11.0566 45.4336 10.9863 45.457 10.916C45.5742 10.6348 45.6328 10.084 45.6328 9.26367V2.35547C45.6328 1.75781 45.5918 1.31836 45.5098 1.03711C45.4863 0.966797 45.3809 0.908203 45.1934 0.861328C45.0176 0.802734 44.8242 0.755859 44.6133 0.720703C44.4023 0.685547 44.2383 0.667969 44.1211 0.667969C44.0742 0.667969 44.0508 0.591797 44.0508 0.439453C44.0508 0.298828 44.0742 0.205078 44.1211 0.158203C44.5781 0.169922 44.9531 0.181641 45.2461 0.193359C45.5508 0.193359 45.7734 0.193359 45.9141 0.193359C46.2188 0.193359 46.4883 0.193359 46.7227 0.193359C46.957 0.181641 47.1562 0.169922 47.3203 0.158203C47.543 0.556641 48.1465 1.47656 49.1309 2.91797C50.127 4.34766 51.5098 6.29883 53.2793 8.77148C53.3145 8.57227 53.332 8.33203 53.332 8.05078V2.58398C53.332 1.8457 53.291 1.33008 53.209 1.03711C53.1855 0.966797 53.0801 0.902344 52.8926 0.84375C52.7051 0.785156 52.5059 0.738281 52.2949 0.703125C52.084 0.65625 51.9258 0.632812 51.8203 0.632812C51.7734 0.632812 51.75 0.5625 51.75 0.421875C51.75 0.292969 51.7734 0.205078 51.8203 0.158203C51.9258 0.158203 52.1016 0.169922 52.3477 0.193359C52.5938 0.205078 52.8574 0.222656 53.1387 0.246094C53.4316 0.257812 53.6836 0.263672 53.8945 0.263672C54.1992 0.263672 54.5859 0.246094 55.0547 0.210938C55.5117 0.175781 55.7812 0.158203 55.8633 0.158203C55.8867 0.251953 55.8984 0.339844 55.8984 0.421875C55.8984 0.5625 55.875 0.632812 55.8281 0.632812C55.7578 0.632812 55.6113 0.65625 55.3887 0.703125C55.166 0.75 54.9551 0.802734 54.7559 0.861328C54.5684 0.919922 54.4629 0.978516 54.4395 1.03711C54.3926 1.22461 54.3574 1.45312 54.334 1.72266C54.3105 1.99219 54.2988 2.30859 54.2988 2.67188V9.35156C54.2988 10.0781 54.3164 10.8984 54.3516 11.8125C54.3047 11.8594 54.1934 11.8828 54.0176 11.8828ZM56.9883 11.8477C56.9531 11.8125 56.9355 11.7246 56.9355 11.584C56.9355 11.4199 56.9531 11.3379 56.9883 11.3379C57.0938 11.3379 57.2344 11.3203 57.4102 11.2852C57.5859 11.2383 57.75 11.1855 57.9023 11.127C58.0664 11.0684 58.166 11.0039 58.2012 10.9336C58.2832 10.8047 58.3242 10.2539 58.3242 9.28125V2.63672C58.3242 2.29687 58.3125 1.99805 58.2891 1.74023C58.2773 1.48242 58.248 1.27734 58.2012 1.125C58.1777 1.05469 58.084 0.990234 57.9199 0.931641C57.7676 0.873047 57.5977 0.826172 57.4102 0.791016C57.2344 0.755859 57.0938 0.738281 56.9883 0.738281C56.9414 0.738281 56.918 0.667969 56.918 0.527344C56.918 0.375 56.9414 0.275391 56.9883 0.228516C57.293 0.240234 57.6152 0.251953 57.9551 0.263672C58.3066 0.263672 58.6816 0.263672 59.0801 0.263672L60.7852 0.246094C61.125 0.246094 61.4062 0.246094 61.6289 0.246094C61.8516 0.234375 62.0215 0.228516 62.1387 0.228516C63.416 0.228516 64.5059 0.492188 65.4082 1.01953C66.3105 1.53516 67.002 2.2207 67.4824 3.07617C67.9629 3.93164 68.2031 4.86914 68.2031 5.88867C68.2031 7.01367 67.957 8.0332 67.4648 8.94727C66.9844 9.86133 66.2871 10.582 65.373 11.1094C64.4707 11.6367 63.3867 11.8828 62.1211 11.8477L60.873 11.8125C60.5215 11.8008 60.1992 11.7949 59.9062 11.7949C59.6133 11.7832 59.3496 11.7832 59.1152 11.7949L56.9883 11.8477ZM62.4023 11.0391C65.0977 11.0391 66.4453 9.29883 66.4453 5.81836C66.4453 4.92773 66.2871 4.11914 65.9707 3.39258C65.6543 2.66602 65.1855 2.08594 64.5645 1.65234C63.9551 1.21875 63.1934 1.00195 62.2793 1.00195H62.1914C60.9258 1.00195 60.2227 1.0957 60.082 1.2832C59.9297 1.48242 59.8535 1.85156 59.8535 2.39062V9.35156C59.8535 9.83203 59.9414 10.2773 60.1172 10.6875C60.1406 10.7461 60.2402 10.7988 60.416 10.8457C60.5918 10.8809 60.8027 10.916 61.0488 10.9512C61.3066 10.9746 61.5586 10.998 61.8047 11.0215C62.0508 11.0332 62.25 11.0391 62.4023 11.0391ZM68.7305 11.8477C68.6836 11.8008 68.6602 11.7129 68.6602 11.584C68.6602 11.4199 68.6836 11.3379 68.7305 11.3379C68.8711 11.3379 69.0527 11.3086 69.2754 11.25C69.498 11.1914 69.6504 11.1094 69.7324 11.0039C69.8613 10.8398 69.9902 10.623 70.1191 10.3535C70.2598 10.084 70.4062 9.75 70.5586 9.35156L73.6172 1.49414C73.6875 1.31836 73.7285 1.19531 73.7402 1.125C73.7637 1.05469 73.7812 0.996094 73.793 0.949219C73.8164 0.890625 73.8574 0.796875 73.916 0.667969C73.998 0.503906 74.0801 0.375 74.1621 0.28125C74.2441 0.1875 74.3789 0.140625 74.5664 0.140625L74.7246 0.193359L78.2402 9.47461C78.3457 9.74414 78.4395 9.98438 78.5215 10.1953C78.6152 10.4062 78.6914 10.5879 78.75 10.7402C78.7969 10.8574 78.8965 10.9629 79.0488 11.0566C79.2129 11.1387 79.377 11.209 79.541 11.2676C79.7168 11.3145 79.8516 11.3379 79.9453 11.3379C79.9922 11.3379 80.0156 11.4492 80.0156 11.6719C80.0156 11.6953 80.0098 11.7246 79.998 11.7598C79.998 11.7832 79.9922 11.8125 79.9805 11.8477C79.3945 11.8242 78.9375 11.8066 78.6094 11.7949C78.293 11.7715 78.1055 11.7598 78.0469 11.7598L76.0078 11.8477C75.9609 11.8008 75.9375 11.707 75.9375 11.5664C75.9492 11.4141 75.9785 11.3379 76.0254 11.3379C76.166 11.3379 76.3418 11.3086 76.5527 11.25C76.7637 11.1914 76.8867 11.1152 76.9219 11.0215C76.9336 10.9746 76.9395 10.9277 76.9395 10.8809C76.9512 10.834 76.957 10.7871 76.957 10.7402C76.957 10.5879 76.9395 10.4121 76.9043 10.2129C76.8691 10.002 76.8281 9.83789 76.7812 9.7207L75.9902 7.54102C75.9551 7.49414 75.9199 7.4707 75.8848 7.4707C75.4277 7.43555 74.9824 7.41797 74.5488 7.41797C74.2441 7.41797 73.9043 7.42969 73.5293 7.45312C73.166 7.46484 72.7617 7.48242 72.3164 7.50586L72.2285 7.55859L71.4727 9.49219C71.3555 9.78516 71.2734 10.0312 71.2266 10.2305C71.1914 10.4297 71.1738 10.5879 71.1738 10.7051C71.1738 10.8691 71.2207 10.9863 71.3145 11.0566C71.4199 11.1387 71.5898 11.209 71.8242 11.2676C72.0586 11.3145 72.2285 11.3379 72.334 11.3379C72.3691 11.3379 72.3867 11.4082 72.3867 11.5488C72.3984 11.6895 72.3926 11.7891 72.3691 11.8477L70.5586 11.7598C70.2305 11.7363 69.9082 11.7422 69.5918 11.7773C69.2871 11.8008 69 11.8242 68.7305 11.8477ZM73.9336 6.57422C74.4609 6.57422 74.9941 6.55664 75.5332 6.52148L75.5859 6.43359L74.1621 2.54883L72.6504 6.46875C72.6504 6.51562 72.6621 6.53906 72.6855 6.53906C72.9902 6.55078 73.2422 6.5625 73.4414 6.57422C73.6523 6.57422 73.8164 6.57422 73.9336 6.57422ZM90.7031 11.8828C90.5156 11.8828 90.3223 11.748 90.123 11.4785L83.3027 1.81055V9.31641C83.3027 10.1133 83.3438 10.6582 83.4258 10.9512C83.4492 10.998 83.5488 11.0566 83.7246 11.127C83.9121 11.1855 84.1113 11.2383 84.3223 11.2852C84.5332 11.3203 84.6738 11.3379 84.7441 11.3379C84.7793 11.3379 84.7969 11.4082 84.7969 11.5488C84.8086 11.6895 84.8027 11.7891 84.7793 11.8477C84.1934 11.8242 83.7305 11.8066 83.3906 11.7949C83.0625 11.7715 82.8516 11.7598 82.7578 11.7598L80.7363 11.8477C80.7012 11.8125 80.6836 11.7246 80.6836 11.584C80.6836 11.4199 80.7012 11.3379 80.7363 11.3379C80.8535 11.3379 81.0176 11.3203 81.2285 11.2852C81.4395 11.2383 81.6387 11.1855 81.8262 11.127C82.0137 11.0566 82.1191 10.9863 82.1426 10.916C82.2598 10.6348 82.3184 10.084 82.3184 9.26367V2.35547C82.3184 1.75781 82.2773 1.31836 82.1953 1.03711C82.1719 0.966797 82.0664 0.908203 81.8789 0.861328C81.7031 0.802734 81.5098 0.755859 81.2988 0.720703C81.0879 0.685547 80.9238 0.667969 80.8066 0.667969C80.7598 0.667969 80.7363 0.591797 80.7363 0.439453C80.7363 0.298828 80.7598 0.205078 80.8066 0.158203C81.2637 0.169922 81.6387 0.181641 81.9316 0.193359C82.2363 0.193359 82.459 0.193359 82.5996 0.193359C82.9043 0.193359 83.1738 0.193359 83.4082 0.193359C83.6426 0.181641 83.8418 0.169922 84.0059 0.158203C84.2285 0.556641 84.832 1.47656 85.8164 2.91797C86.8125 4.34766 88.1953 6.29883 89.9648 8.77148C90 8.57227 90.0176 8.33203 90.0176 8.05078V2.58398C90.0176 1.8457 89.9766 1.33008 89.8945 1.03711C89.8711 0.966797 89.7656 0.902344 89.5781 0.84375C89.3906 0.785156 89.1914 0.738281 88.9805 0.703125C88.7695 0.65625 88.6113 0.632812 88.5059 0.632812C88.459 0.632812 88.4355 0.5625 88.4355 0.421875C88.4355 0.292969 88.459 0.205078 88.5059 0.158203C88.6113 0.158203 88.7871 0.169922 89.0332 0.193359C89.2793 0.205078 89.543 0.222656 89.8242 0.246094C90.1172 0.257812 90.3691 0.263672 90.5801 0.263672C90.8848 0.263672 91.2715 0.246094 91.7402 0.210938C92.1973 0.175781 92.4668 0.158203 92.5488 0.158203C92.5723 0.251953 92.584 0.339844 92.584 0.421875C92.584 0.5625 92.5605 0.632812 92.5137 0.632812C92.4434 0.632812 92.2969 0.65625 92.0742 0.703125C91.8516 0.75 91.6406 0.802734 91.4414 0.861328C91.2539 0.919922 91.1484 0.978516 91.125 1.03711C91.0781 1.22461 91.043 1.45312 91.0195 1.72266C90.9961 1.99219 90.9844 2.30859 90.9844 2.67188V9.35156C90.9844 10.0781 91.002 10.8984 91.0371 11.8125C90.9902 11.8594 90.8789 11.8828 90.7031 11.8828ZM99.3516 11.9004C98.5781 11.9004 97.8516 11.748 97.1719 11.4434C96.5039 11.1387 95.9121 10.7227 95.3965 10.1953C94.8926 9.66797 94.4941 9.05859 94.2012 8.36719C93.9199 7.66406 93.7793 6.91992 93.7793 6.13477C93.7793 5.30273 93.9258 4.52344 94.2188 3.79688C94.5117 3.05859 94.9219 2.41406 95.4492 1.86328C95.9766 1.30078 96.5859 0.861328 97.2773 0.544922C97.9805 0.228516 98.7363 0.0703125 99.5449 0.0703125C100.236 0.0703125 100.939 0.105469 101.654 0.175781C102.369 0.246094 103.09 0.357422 103.816 0.509766L103.781 3.04102C103.781 3.2168 103.658 3.30469 103.412 3.30469C103.295 3.30469 103.219 3.27539 103.184 3.2168C103.148 3.06445 103.102 2.91211 103.043 2.75977C102.996 2.5957 102.891 2.38477 102.727 2.12695C102.445 1.7168 102.041 1.39453 101.514 1.16016C100.998 0.925781 100.359 0.808594 99.5977 0.808594C99.0234 0.808594 98.4844 0.949219 97.9805 1.23047C97.4766 1.5 97.0312 1.86914 96.6445 2.33789C96.2695 2.80664 95.9766 3.33984 95.7656 3.9375C95.5547 4.52344 95.4492 5.13281 95.4492 5.76562C95.4492 6.73828 95.6133 7.61133 95.9414 8.38477C96.2695 9.18164 96.7852 9.84375 97.4883 10.3711C98.2031 10.8867 99.0469 11.1445 100.02 11.1445C101.18 11.1445 102.076 10.8047 102.709 10.125C102.896 9.92578 103.043 9.69141 103.148 9.42188C103.254 9.15234 103.336 8.91797 103.395 8.71875C103.453 8.51953 103.512 8.41992 103.57 8.41992C103.641 8.41992 103.723 8.43164 103.816 8.45508C103.922 8.4668 104.004 8.49023 104.062 8.52539L104.15 8.57812C104.15 8.64844 104.127 8.8125 104.08 9.07031C104.033 9.32812 103.975 9.61523 103.904 9.93164C103.834 10.2363 103.764 10.5059 103.693 10.7402C103.635 10.9746 103.588 11.1035 103.553 11.127C102.686 11.6426 101.285 11.9004 99.3516 11.9004ZM113.238 11.8652C112.945 11.8652 112.559 11.8594 112.078 11.8477C111.609 11.8477 111.053 11.8418 110.408 11.8301C109.764 11.8184 109.178 11.8066 108.65 11.7949C108.123 11.7949 107.654 11.7949 107.244 11.7949L105.117 11.8477C105.082 11.8125 105.064 11.7188 105.064 11.5664C105.064 11.4141 105.082 11.3379 105.117 11.3379C105.223 11.3379 105.363 11.3203 105.539 11.2852C105.715 11.2383 105.879 11.1855 106.031 11.127C106.195 11.0684 106.295 11.0039 106.33 10.9336C106.412 10.8047 106.453 10.2539 106.453 9.28125V2.63672C106.453 2.29687 106.441 1.99805 106.418 1.74023C106.406 1.48242 106.377 1.27734 106.33 1.125C106.307 1.05469 106.213 0.990234 106.049 0.931641C105.896 0.873047 105.727 0.826172 105.539 0.791016C105.363 0.755859 105.223 0.738281 105.117 0.738281C105.07 0.738281 105.047 0.667969 105.047 0.527344C105.047 0.375 105.07 0.275391 105.117 0.228516C105.422 0.240234 105.744 0.251953 106.084 0.263672C106.436 0.263672 106.811 0.263672 107.209 0.263672C107.479 0.263672 107.842 0.257812 108.299 0.246094C108.756 0.234375 109.307 0.216797 109.951 0.193359C110.607 0.169922 111.176 0.152344 111.656 0.140625C112.148 0.128906 112.559 0.123047 112.887 0.123047C112.91 0.287109 112.945 0.486328 112.992 0.720703C113.039 0.943359 113.098 1.18945 113.168 1.45898C113.227 1.74023 113.273 1.96875 113.309 2.14453C113.355 2.32031 113.385 2.44336 113.396 2.51367C113.338 2.57227 113.232 2.60156 113.08 2.60156C112.928 2.60156 112.846 2.56055 112.834 2.47852C112.658 1.83398 112.412 1.42383 112.096 1.24805C111.779 1.06055 111.346 0.966797 110.795 0.966797H109.617C108.598 0.966797 108.082 1.04297 108.07 1.19531C108.047 1.33594 108.023 1.5293 108 1.77539C107.988 2.02148 107.982 2.32031 107.982 2.67188V5.48438C107.982 5.55469 108.234 5.58984 108.738 5.58984H109.67C110.068 5.58984 110.338 5.58984 110.479 5.58984C110.619 5.57812 110.719 5.56055 110.777 5.53711C110.848 5.51367 110.977 5.47852 111.164 5.43164C111.281 5.4082 111.369 5.27344 111.428 5.02734C111.498 4.76953 111.557 4.55859 111.604 4.39453C111.615 4.3125 111.703 4.27148 111.867 4.27148C112.008 4.27148 112.107 4.30078 112.166 4.35938V7.68164C112.119 7.72852 112.025 7.75195 111.885 7.75195C111.732 7.75195 111.639 7.70508 111.604 7.61133C111.557 7.44727 111.516 7.30664 111.48 7.18945C111.445 7.07227 111.416 6.97266 111.393 6.89062C111.334 6.72656 111.287 6.63281 111.252 6.60938C111.229 6.58594 111.182 6.55078 111.111 6.50391C110.947 6.41016 110.326 6.36328 109.248 6.36328C108.404 6.36328 107.982 6.41602 107.982 6.52148V9.24609C107.982 10.0078 108.035 10.541 108.141 10.8457C108.176 10.9629 108.574 11.0215 109.336 11.0215H110.18C111.258 11.0215 111.996 10.9219 112.395 10.7227C112.57 10.6289 112.764 10.4238 112.975 10.1074C113.197 9.7793 113.373 9.39258 113.502 8.94727C113.525 8.87695 113.607 8.8418 113.748 8.8418C113.971 8.8418 114.117 8.87695 114.188 8.94727C114.152 9.04102 114.094 9.1875 114.012 9.38672C113.941 9.57422 113.871 9.76758 113.801 9.9668C113.73 10.166 113.672 10.3359 113.625 10.4766C113.555 10.6875 113.479 10.9277 113.396 11.1973C113.314 11.4668 113.262 11.6895 113.238 11.8652Z" fill="white"/>
</svg>
