<svg width="33" height="13" viewBox="0 0 33 13" fill="none" xmlns="http://www.w3.org/2000/svg">
<path d="M3.32227 11.8477C3.27539 11.8008 3.25195 11.7129 3.25195 11.584C3.25195 11.4199 3.27539 11.3379 3.32227 11.3379C3.42773 11.3379 3.56836 11.3262 3.74414 11.3027C3.91992 11.2676 4.08398 11.2207 4.23633 11.1621C4.38867 11.1035 4.47656 11.0449 4.5 10.9863C4.54688 10.8223 4.57617 10.6113 4.58789 10.3535C4.61133 10.0957 4.62305 9.78516 4.62305 9.42188V3.05859C4.62305 2.03906 4.57031 1.43555 4.46484 1.24805C4.38281 1.07227 3.75 0.984375 2.56641 0.984375C2.12109 0.984375 1.77539 1.02539 1.5293 1.10742C1.2832 1.17773 1.0957 1.32422 0.966797 1.54688C0.837891 1.76953 0.714844 2.10352 0.597656 2.54883C0.574219 2.60742 0.515625 2.63672 0.421875 2.63672C0.222656 2.63672 0.0820312 2.5957 0 2.51367L0.333984 0C0.591797 0.0585938 0.820312 0.105469 1.01953 0.140625C1.21875 0.175781 1.39453 0.193359 1.54688 0.193359C2.39062 0.193359 3.13477 0.205078 3.7793 0.228516C4.42383 0.251953 4.96289 0.263672 5.39648 0.263672C6.29883 0.263672 7.07227 0.251953 7.7168 0.228516C8.37305 0.205078 8.88867 0.193359 9.26367 0.193359C9.41602 0.193359 9.5918 0.175781 9.79102 0.140625C9.99023 0.105469 10.2188 0.0585938 10.4766 0L10.8105 2.51367C10.7285 2.5957 10.5879 2.63672 10.3887 2.63672C10.2949 2.63672 10.2363 2.60742 10.2129 2.54883C10.1074 2.10352 9.98438 1.76953 9.84375 1.54688C9.71484 1.32422 9.52734 1.17773 9.28125 1.10742C9.03516 1.02539 8.68945 0.984375 8.24414 0.984375C7.01367 0.984375 6.36914 1.07227 6.31055 1.24805C6.20508 1.61133 6.15234 2.19727 6.15234 3.00586V9.35156C6.15234 10.0312 6.20508 10.5762 6.31055 10.9863C6.33398 11.0332 6.42188 11.0859 6.57422 11.1445C6.72656 11.2031 6.89062 11.25 7.06641 11.2852C7.24219 11.3203 7.36523 11.3379 7.43555 11.3379C7.48242 11.3379 7.50586 11.4258 7.50586 11.6016C7.50586 11.6719 7.49414 11.7539 7.4707 11.8477C6.88477 11.8242 6.42188 11.8066 6.08203 11.7949C5.74219 11.7715 5.52539 11.7598 5.43164 11.7598L3.32227 11.8477ZM12.8145 10.2305C11.7129 9.08203 11.1621 7.68164 11.1621 6.0293C11.1621 5.20898 11.3086 4.44141 11.6016 3.72656C11.8945 3 12.293 2.36719 12.7969 1.82812C13.3125 1.27734 13.9102 0.849609 14.5898 0.544922C15.2695 0.228516 15.9961 0.0703125 16.7695 0.0703125C17.543 0.0703125 18.2695 0.228516 18.9492 0.544922C19.6289 0.849609 20.2266 1.27734 20.7422 1.82812C21.2578 2.36719 21.6621 3 21.9551 3.72656C22.248 4.44141 22.3945 5.20898 22.3945 6.0293C22.3945 7.68164 21.8438 9.08203 20.7422 10.2305C19.9922 11.0273 19.1426 11.5547 18.1934 11.8125C17.2441 12.082 16.2949 12.082 15.3457 11.8125C14.4082 11.5547 13.5645 11.0273 12.8145 10.2305ZM17.0508 11.2148C17.8008 11.2148 18.457 10.9688 19.0195 10.4766C19.582 9.99609 19.9922 9.39844 20.25 8.68359C20.5195 7.95703 20.6543 7.18359 20.6543 6.36328C20.6543 5.4375 20.502 4.55273 20.1973 3.70898C19.8926 2.87695 19.418 2.18555 18.7734 1.63477C18.1289 1.08398 17.373 0.808594 16.5059 0.808594C15.7676 0.808594 15.1289 1.03711 14.5898 1.49414C14.0508 1.93945 13.6348 2.53125 13.3418 3.26953C13.0488 3.99609 12.9023 4.78711 12.9023 5.64258C12.9023 6.56836 13.0547 7.45312 13.3594 8.29688C13.6641 9.12891 14.1387 9.82617 14.7832 10.3887C15.4277 10.9395 16.1836 11.2148 17.0508 11.2148ZM23.959 11.8477C23.9238 11.8125 23.9062 11.707 23.9062 11.5312C23.9062 11.3789 23.9238 11.3027 23.959 11.3027C24.0762 11.3027 24.2168 11.2852 24.3809 11.25C24.5566 11.2148 24.7207 11.1738 24.873 11.127C25.0371 11.0684 25.1367 11.0039 25.1719 10.9336C25.2539 10.8047 25.2949 10.2539 25.2949 9.28125V2.63672C25.2949 2.29687 25.2832 1.99805 25.2598 1.74023C25.248 1.48242 25.2188 1.27734 25.1719 1.125C25.1484 1.05469 25.0547 0.990234 24.8906 0.931641C24.7383 0.873047 24.5684 0.826172 24.3809 0.791016C24.2051 0.755859 24.0645 0.738281 23.959 0.738281C23.9121 0.738281 23.8887 0.667969 23.8887 0.527344C23.8887 0.375 23.9121 0.275391 23.959 0.228516L26.0684 0.263672C26.2441 0.263672 26.4375 0.263672 26.6484 0.263672C26.8594 0.251953 27.082 0.240234 27.3164 0.228516C27.5508 0.216797 27.7734 0.210938 27.9844 0.210938C28.1953 0.199219 28.3828 0.193359 28.5469 0.193359C28.9336 0.193359 29.3262 0.251953 29.7246 0.369141C30.123 0.486328 30.5039 0.662109 30.8672 0.896484C31.2422 1.13086 31.541 1.46484 31.7637 1.89844C31.998 2.33203 32.1152 2.83594 32.1152 3.41016C32.1152 3.77344 32.0391 4.16016 31.8867 4.57031C31.7344 4.98047 31.5059 5.36719 31.2012 5.73047C30.9082 6.08203 30.5332 6.36914 30.0762 6.5918C29.6309 6.81445 29.1152 6.92578 28.5293 6.92578C27.873 6.92578 27.4219 6.76172 27.1758 6.43359C27.1055 6.35156 27.0879 6.2168 27.123 6.0293C27.1465 5.9707 27.1641 5.95312 27.1758 5.97656C27.5391 6.10547 27.9316 6.16992 28.3535 6.16992C28.752 6.16992 29.1094 6.05859 29.4258 5.83594C29.7539 5.60156 30.0117 5.29688 30.1992 4.92188C30.3984 4.53516 30.498 4.11914 30.498 3.67383C30.498 2.8418 30.3164 2.18555 29.9531 1.70508C29.5898 1.21289 29.0273 0.966797 28.2656 0.966797C27.7266 0.966797 27.3164 1.00781 27.0352 1.08984C26.9297 1.10156 26.8652 1.2832 26.8418 1.63477C26.8301 1.98633 26.8242 2.44922 26.8242 3.02344V9.29883C26.8242 10.0723 26.8711 10.582 26.9648 10.8281C27.0117 10.9219 27.123 11.0098 27.2988 11.0918C27.4863 11.1738 27.6855 11.2383 27.8965 11.2852C28.1074 11.3203 28.2598 11.3379 28.3535 11.3379C28.4004 11.3379 28.4238 11.4199 28.4238 11.584C28.4238 11.666 28.4121 11.7539 28.3887 11.8477C27.8027 11.8242 27.3164 11.8066 26.9297 11.7949C26.5547 11.7715 26.2793 11.7598 26.1035 11.7598L23.959 11.8477Z" fill="white"/>
</svg>
