<svg width="120" height="13" viewBox="0 0 120 13" fill="none" xmlns="http://www.w3.org/2000/svg">
<path d="M0.0703125 11.8477C0.0234375 11.8008 0 11.7129 0 11.584C0 11.4199 0.0234375 11.3379 0.0703125 11.3379C0.175781 11.3379 0.316406 11.3262 0.492188 11.3027C0.667969 11.2676 0.832031 11.2207 0.984375 11.1621C1.13672 11.1035 1.22461 11.0449 1.24805 10.9863C1.29492 10.8223 1.32422 10.6113 1.33594 10.3535C1.35938 10.0957 1.37109 9.78516 1.37109 9.42188V2.60156C1.37109 2.23828 1.35938 1.92773 1.33594 1.66992C1.32422 1.40039 1.29492 1.18945 1.24805 1.03711C1.22461 0.966797 1.13672 0.908203 0.984375 0.861328C0.832031 0.802734 0.667969 0.755859 0.492188 0.720703C0.316406 0.685547 0.175781 0.667969 0.0703125 0.667969C0.0234375 0.667969 0 0.591797 0 0.439453C0 0.298828 0.0234375 0.205078 0.0703125 0.158203L2.17969 0.246094C2.27344 0.246094 2.49023 0.240234 2.83008 0.228516C3.16992 0.205078 3.63281 0.181641 4.21875 0.158203C4.24219 0.251953 4.25391 0.339844 4.25391 0.421875C4.25391 0.585938 4.23047 0.667969 4.18359 0.667969C4.11328 0.667969 3.99023 0.691406 3.81445 0.738281C3.63867 0.773438 3.47461 0.820312 3.32227 0.878906C3.16992 0.925781 3.08203 0.978516 3.05859 1.03711C2.95312 1.43555 2.90039 1.98047 2.90039 2.67188V9.35156C2.90039 10.0312 2.95312 10.5762 3.05859 10.9863C3.08203 11.0332 3.16992 11.0859 3.32227 11.1445C3.47461 11.2031 3.63867 11.25 3.81445 11.2852C3.99023 11.3203 4.11328 11.3379 4.18359 11.3379C4.23047 11.3379 4.25391 11.4258 4.25391 11.6016C4.25391 11.6719 4.24219 11.7539 4.21875 11.8477C3.63281 11.8242 3.16992 11.8066 2.83008 11.7949C2.49023 11.7715 2.27344 11.7598 2.17969 11.7598L0.0703125 11.8477ZM15.293 11.8828C15.1055 11.8828 14.9121 11.748 14.7129 11.4785L7.89258 1.81055V9.31641C7.89258 10.1133 7.93359 10.6582 8.01562 10.9512C8.03906 10.998 8.13867 11.0566 8.31445 11.127C8.50195 11.1855 8.70117 11.2383 8.91211 11.2852C9.12305 11.3203 9.26367 11.3379 9.33398 11.3379C9.36914 11.3379 9.38672 11.4082 9.38672 11.5488C9.39844 11.6895 9.39258 11.7891 9.36914 11.8477C8.7832 11.8242 8.32031 11.8066 7.98047 11.7949C7.65234 11.7715 7.44141 11.7598 7.34766 11.7598L5.32617 11.8477C5.29102 11.8125 5.27344 11.7246 5.27344 11.584C5.27344 11.4199 5.29102 11.3379 5.32617 11.3379C5.44336 11.3379 5.60742 11.3203 5.81836 11.2852C6.0293 11.2383 6.22852 11.1855 6.41602 11.127C6.60352 11.0566 6.70898 10.9863 6.73242 10.916C6.84961 10.6348 6.9082 10.084 6.9082 9.26367V2.35547C6.9082 1.75781 6.86719 1.31836 6.78516 1.03711C6.76172 0.966797 6.65625 0.908203 6.46875 0.861328C6.29297 0.802734 6.09961 0.755859 5.88867 0.720703C5.67773 0.685547 5.51367 0.667969 5.39648 0.667969C5.34961 0.667969 5.32617 0.591797 5.32617 0.439453C5.32617 0.298828 5.34961 0.205078 5.39648 0.158203C5.85352 0.169922 6.22852 0.181641 6.52148 0.193359C6.82617 0.193359 7.04883 0.193359 7.18945 0.193359C7.49414 0.193359 7.76367 0.193359 7.99805 0.193359C8.23242 0.181641 8.43164 0.169922 8.5957 0.158203C8.81836 0.556641 9.42188 1.47656 10.4062 2.91797C11.4023 4.34766 12.7852 6.29883 14.5547 8.77148C14.5898 8.57227 14.6074 8.33203 14.6074 8.05078V2.58398C14.6074 1.8457 14.5664 1.33008 14.4844 1.03711C14.4609 0.966797 14.3555 0.902344 14.168 0.84375C13.9805 0.785156 13.7812 0.738281 13.5703 0.703125C13.3594 0.65625 13.2012 0.632812 13.0957 0.632812C13.0488 0.632812 13.0254 0.5625 13.0254 0.421875C13.0254 0.292969 13.0488 0.205078 13.0957 0.158203C13.2012 0.158203 13.377 0.169922 13.623 0.193359C13.8691 0.205078 14.1328 0.222656 14.4141 0.246094C14.707 0.257812 14.959 0.263672 15.1699 0.263672C15.4746 0.263672 15.8613 0.246094 16.3301 0.210938C16.7871 0.175781 17.0566 0.158203 17.1387 0.158203C17.1621 0.251953 17.1738 0.339844 17.1738 0.421875C17.1738 0.5625 17.1504 0.632812 17.1035 0.632812C17.0332 0.632812 16.8867 0.65625 16.6641 0.703125C16.4414 0.75 16.2305 0.802734 16.0312 0.861328C15.8438 0.919922 15.7383 0.978516 15.7148 1.03711C15.668 1.22461 15.6328 1.45312 15.6094 1.72266C15.5859 1.99219 15.5742 2.30859 15.5742 2.67188V9.35156C15.5742 10.0781 15.5918 10.8984 15.627 11.8125C15.5801 11.8594 15.4688 11.8828 15.293 11.8828ZM18.4043 11.8477C18.3574 11.8008 18.334 11.7129 18.334 11.584C18.334 11.4199 18.3574 11.3379 18.4043 11.3379C18.5098 11.3379 18.6504 11.3262 18.8262 11.3027C19.002 11.2676 19.166 11.2207 19.3184 11.1621C19.4707 11.1035 19.5586 11.0449 19.582 10.9863C19.6641 10.6934 19.7051 10.166 19.7051 9.4043V2.63672C19.7051 2.29687 19.6934 1.99805 19.6699 1.74023C19.6582 1.48242 19.6289 1.27734 19.582 1.125C19.5586 1.05469 19.4648 0.990234 19.3008 0.931641C19.1484 0.873047 18.9785 0.826172 18.791 0.791016C18.6152 0.755859 18.4746 0.738281 18.3691 0.738281C18.3223 0.738281 18.2988 0.667969 18.2988 0.527344C18.2988 0.375 18.3223 0.275391 18.3691 0.228516C18.6738 0.240234 18.9961 0.251953 19.3359 0.263672C19.6875 0.263672 20.0625 0.263672 20.4609 0.263672C20.7305 0.263672 21.0938 0.257812 21.5508 0.246094C22.0078 0.234375 22.5586 0.216797 23.2031 0.193359C23.8594 0.169922 24.4277 0.152344 24.9082 0.140625C25.4004 0.128906 25.8105 0.123047 26.1387 0.123047C26.1621 0.287109 26.1973 0.486328 26.2441 0.720703C26.291 0.943359 26.3496 1.18945 26.4199 1.45898C26.4785 1.74023 26.5254 1.96875 26.5605 2.14453C26.6074 2.32031 26.6367 2.44336 26.6484 2.51367C26.5898 2.57227 26.4844 2.60156 26.332 2.60156C26.1797 2.60156 26.0977 2.56055 26.0859 2.47852C25.9102 1.83398 25.6641 1.42383 25.3477 1.24805C25.0312 1.06055 24.5977 0.966797 24.0469 0.966797H22.8691C21.8496 0.966797 21.334 1.04297 21.3223 1.19531C21.2988 1.33594 21.2754 1.5293 21.252 1.77539C21.2402 2.02148 21.2344 2.32031 21.2344 2.67188V5.53711C21.2344 5.60742 21.4805 5.64258 21.9727 5.64258H22.9043C23.4316 5.64258 23.8125 5.625 24.0469 5.58984C24.2812 5.54297 24.4453 5.44336 24.5391 5.29102C24.6328 5.12695 24.7207 4.86914 24.8027 4.51758L24.8379 4.35938C24.8496 4.27734 24.9375 4.23633 25.1016 4.23633C25.2422 4.23633 25.3418 4.26562 25.4004 4.32422V7.73438C25.3535 7.78125 25.2598 7.80469 25.1191 7.80469C24.9668 7.80469 24.873 7.75781 24.8379 7.66406C24.791 7.5 24.75 7.35938 24.7148 7.24219C24.6797 7.125 24.6504 7.02539 24.627 6.94336C24.5684 6.7793 24.5215 6.68555 24.4863 6.66211C24.4629 6.63867 24.416 6.60352 24.3457 6.55664C24.1816 6.46289 23.5605 6.41602 22.4824 6.41602C21.6504 6.41602 21.2344 6.46875 21.2344 6.57422V9.35156C21.2344 10.0312 21.2871 10.5762 21.3926 10.9863C21.416 11.0332 21.5039 11.0859 21.6562 11.1445C21.8086 11.2031 21.9727 11.25 22.1484 11.2852C22.3242 11.3203 22.4473 11.3379 22.5176 11.3379C22.5645 11.3379 22.5879 11.4258 22.5879 11.6016C22.5879 11.6719 22.5762 11.7539 22.5527 11.8477C21.9668 11.8242 21.5039 11.8066 21.1641 11.7949C20.8242 11.7715 20.6074 11.7598 20.5137 11.7598L18.4043 11.8477ZM29.707 10.2305C28.6055 9.08203 28.0547 7.68164 28.0547 6.0293C28.0547 5.20898 28.2012 4.44141 28.4941 3.72656C28.7871 3 29.1855 2.36719 29.6895 1.82812C30.2051 1.27734 30.8027 0.849609 31.4824 0.544922C32.1621 0.228516 32.8887 0.0703125 33.6621 0.0703125C34.4355 0.0703125 35.1621 0.228516 35.8418 0.544922C36.5215 0.849609 37.1191 1.27734 37.6348 1.82812C38.1504 2.36719 38.5547 3 38.8477 3.72656C39.1406 4.44141 39.2871 5.20898 39.2871 6.0293C39.2871 7.68164 38.7363 9.08203 37.6348 10.2305C36.8848 11.0273 36.0352 11.5547 35.0859 11.8125C34.1367 12.082 33.1875 12.082 32.2383 11.8125C31.3008 11.5547 30.457 11.0273 29.707 10.2305ZM33.9434 11.2148C34.6934 11.2148 35.3496 10.9688 35.9121 10.4766C36.4746 9.99609 36.8848 9.39844 37.1426 8.68359C37.4121 7.95703 37.5469 7.18359 37.5469 6.36328C37.5469 5.4375 37.3945 4.55273 37.0898 3.70898C36.7852 2.87695 36.3105 2.18555 35.666 1.63477C35.0215 1.08398 34.2656 0.808594 33.3984 0.808594C32.6602 0.808594 32.0215 1.03711 31.4824 1.49414C30.9434 1.93945 30.5273 2.53125 30.2344 3.26953C29.9414 3.99609 29.7949 4.78711 29.7949 5.64258C29.7949 6.56836 29.9473 7.45312 30.252 8.29688C30.5566 9.12891 31.0312 9.82617 31.6758 10.3887C32.3203 10.9395 33.0762 11.2148 33.9434 11.2148ZM51.3281 11.8828C49.6992 11.8828 48.2754 11.0391 47.0566 9.35156C46.9629 9.22266 46.8398 9.04688 46.6875 8.82422C46.5469 8.60156 46.2832 8.20898 45.8965 7.64648C45.709 7.37695 45.5391 7.1543 45.3867 6.97852C45.2461 6.79102 45.0762 6.65039 44.877 6.55664C44.6895 6.46289 44.4316 6.41602 44.1035 6.41602C43.9746 6.41602 43.8691 6.43359 43.7871 6.46875C43.7168 6.50391 43.6816 6.58594 43.6816 6.71484V9.29883C43.6816 10.0723 43.7285 10.582 43.8223 10.8281C43.8691 10.9219 43.9805 11.0098 44.1562 11.0918C44.3438 11.1738 44.543 11.2383 44.7539 11.2852C44.9648 11.3203 45.1172 11.3379 45.2109 11.3379C45.2578 11.3379 45.2812 11.4199 45.2812 11.584C45.2812 11.666 45.2695 11.7539 45.2461 11.8477C44.6602 11.8242 44.1738 11.8008 43.7871 11.7773C43.4121 11.7539 43.1367 11.748 42.9609 11.7598L40.8164 11.8477C40.7812 11.8125 40.7637 11.707 40.7637 11.5312C40.7637 11.3789 40.7812 11.3027 40.8164 11.3027C40.9336 11.3027 41.0742 11.2852 41.2383 11.25C41.4141 11.2148 41.5781 11.1738 41.7305 11.127C41.8945 11.0684 41.9941 11.0039 42.0293 10.9336C42.1113 10.8047 42.1523 10.2539 42.1523 9.28125V2.63672C42.1523 2.29687 42.1406 1.99805 42.1172 1.74023C42.1055 1.48242 42.0762 1.27734 42.0293 1.125C42.0059 1.05469 41.9121 0.990234 41.748 0.931641C41.5957 0.873047 41.4258 0.826172 41.2383 0.791016C41.0625 0.755859 40.9219 0.738281 40.8164 0.738281C40.7695 0.738281 40.7461 0.667969 40.7461 0.527344C40.7461 0.375 40.7695 0.275391 40.8164 0.228516L42.9258 0.263672C43.2656 0.275391 43.6816 0.269531 44.1738 0.246094C44.666 0.210938 45.0762 0.193359 45.4043 0.193359C46.0371 0.193359 46.6406 0.316406 47.2148 0.5625C47.8008 0.808594 48.2754 1.17187 48.6387 1.65234C49.0137 2.13281 49.2012 2.71875 49.2012 3.41016C49.2012 3.90234 49.0137 4.41797 48.6387 4.95703C48.2754 5.49609 47.7773 5.91211 47.1445 6.20508C47.0273 6.25195 46.9922 6.31055 47.0391 6.38086C47.6133 7.59961 48.2871 8.63086 49.0605 9.47461C50.1855 10.7051 51.0996 11.3203 51.8027 11.3203C51.8379 11.3906 51.8555 11.4727 51.8555 11.5664C51.8555 11.6719 51.8379 11.7598 51.8027 11.8301C51.6855 11.8652 51.5273 11.8828 51.3281 11.8828ZM45.2109 5.66016H45.6504C45.9316 5.66016 46.2188 5.56641 46.5117 5.37891C46.8164 5.19141 47.0684 4.92773 47.2676 4.58789C47.4785 4.24805 47.584 3.85547 47.584 3.41016C47.584 1.78125 46.7637 0.966797 45.123 0.966797C44.584 0.966797 44.1738 1.00781 43.8926 1.08984C43.7871 1.11328 43.7227 1.30664 43.6992 1.66992C43.6875 2.02148 43.6816 2.47266 43.6816 3.02344V5.15039C43.6816 5.49023 44.1914 5.66016 45.2109 5.66016ZM52.2246 11.8477C52.166 11.7891 52.1367 11.7012 52.1367 11.584C52.1367 11.4199 52.166 11.3379 52.2246 11.3379C52.3418 11.3379 52.4941 11.3203 52.6816 11.2852C52.8691 11.25 53.0508 11.2031 53.2266 11.1445C53.4023 11.0859 53.5254 11.0215 53.5957 10.9512C53.7949 10.7402 53.9004 10.2305 53.9121 9.42188C53.9355 8.0625 53.959 6.84375 53.9824 5.76562C54.0176 4.67578 54.0469 3.78516 54.0703 3.09375C54.0938 2.39062 54.1055 1.93945 54.1055 1.74023C54.1055 1.42383 54.082 1.18945 54.0352 1.03711C54.0117 0.966797 53.9062 0.908203 53.7188 0.861328C53.543 0.802734 53.3496 0.755859 53.1387 0.720703C52.9277 0.685547 52.7637 0.667969 52.6465 0.667969C52.5996 0.667969 52.5762 0.585938 52.5762 0.421875C52.5762 0.292969 52.5996 0.205078 52.6465 0.158203C52.9277 0.169922 53.2383 0.1875 53.5781 0.210938C53.918 0.234375 54.2637 0.246094 54.6152 0.246094C54.8379 0.246094 55.0781 0.240234 55.3359 0.228516C55.6055 0.205078 55.9043 0.181641 56.2324 0.158203C56.3262 0.416016 57.4863 3.35156 59.7129 8.96484C59.7363 8.98828 59.7598 9 59.7832 9C59.8301 9 59.8594 8.97656 59.8711 8.92969C60.4453 7.58203 60.9609 6.35156 61.418 5.23828C61.875 4.125 62.2734 3.13477 62.6133 2.26758L63.3164 0.158203C63.6914 0.181641 63.9961 0.199219 64.2305 0.210938C64.4766 0.222656 64.6582 0.228516 64.7754 0.228516C65.1387 0.228516 65.4844 0.222656 65.8125 0.210938C66.1406 0.199219 66.4512 0.181641 66.7441 0.158203C66.7793 0.263672 66.7969 0.351562 66.7969 0.421875C66.7969 0.585938 66.7676 0.667969 66.709 0.667969H66.6738C66.5449 0.667969 66.375 0.708984 66.1641 0.791016C65.9531 0.861328 65.7949 0.9375 65.6895 1.01953C65.5488 1.125 65.4785 1.51758 65.4785 2.19727L65.6367 9.33398C65.6602 10.0137 65.748 10.5527 65.9004 10.9512C65.9355 11.0215 66.0293 11.0859 66.1816 11.1445C66.334 11.2031 66.498 11.25 66.6738 11.2852C66.8613 11.3203 66.9961 11.3379 67.0781 11.3379C67.125 11.3379 67.1484 11.4199 67.1484 11.584C67.1484 11.666 67.1367 11.7539 67.1133 11.8477C66.5273 11.8242 66.0586 11.8066 65.707 11.7949C65.3672 11.7715 65.1387 11.7598 65.0215 11.7598L62.9121 11.8477C62.8652 11.8008 62.8418 11.707 62.8418 11.5664C62.8418 11.4141 62.8652 11.3379 62.9121 11.3379C63.0293 11.3379 63.2051 11.3086 63.4395 11.25C63.6855 11.1914 63.8613 11.1328 63.9668 11.0742C64.1074 10.9805 64.1777 10.7285 64.1777 10.3184V9.38672L63.9668 3.19922C63.9668 3.07031 63.9492 2.92969 63.9141 2.77734C63.8906 2.61328 63.8613 2.47266 63.8262 2.35547C63.791 2.22656 63.75 2.16211 63.7031 2.16211C63.6797 2.16211 63.6504 2.20313 63.6152 2.28516L59.9414 11.0742C59.7188 11.5781 59.502 11.8301 59.291 11.8301C59.2793 11.8301 59.2266 11.8184 59.1328 11.7949L55.1074 1.56445C55.0723 3.2168 55.0312 4.69336 54.9844 5.99414C54.9375 7.2832 54.8965 8.32031 54.8613 9.10547C54.8379 9.89062 54.8262 10.3477 54.8262 10.4766C54.8262 10.6875 54.8613 10.8398 54.9316 10.9336C54.9785 10.9922 55.0957 11.0566 55.2832 11.127C55.4707 11.1855 55.6641 11.2383 55.8633 11.2852C56.0742 11.3203 56.2148 11.3379 56.2852 11.3379C56.332 11.3379 56.3555 11.4258 56.3555 11.6016C56.3555 11.6719 56.3438 11.7539 56.3203 11.8477C55.7344 11.8242 55.2715 11.8066 54.9316 11.7949C54.5918 11.7715 54.375 11.7598 54.2812 11.7598L52.2246 11.8477ZM67.5703 11.8477C67.5234 11.8008 67.5 11.7129 67.5 11.584C67.5 11.4199 67.5234 11.3379 67.5703 11.3379C67.7109 11.3379 67.8926 11.3086 68.1152 11.25C68.3379 11.1914 68.4902 11.1094 68.5723 11.0039C68.7012 10.8398 68.8301 10.623 68.959 10.3535C69.0996 10.084 69.2461 9.75 69.3984 9.35156L72.457 1.49414C72.5273 1.31836 72.5684 1.19531 72.5801 1.125C72.6035 1.05469 72.6211 0.996094 72.6328 0.949219C72.6562 0.890625 72.6973 0.796875 72.7559 0.667969C72.8379 0.503906 72.9199 0.375 73.002 0.28125C73.084 0.1875 73.2188 0.140625 73.4062 0.140625L73.5645 0.193359L77.0801 9.47461C77.1855 9.74414 77.2793 9.98438 77.3613 10.1953C77.4551 10.4062 77.5312 10.5879 77.5898 10.7402C77.6367 10.8574 77.7363 10.9629 77.8887 11.0566C78.0527 11.1387 78.2168 11.209 78.3809 11.2676C78.5566 11.3145 78.6914 11.3379 78.7852 11.3379C78.832 11.3379 78.8555 11.4492 78.8555 11.6719C78.8555 11.6953 78.8496 11.7246 78.8379 11.7598C78.8379 11.7832 78.832 11.8125 78.8203 11.8477C78.2344 11.8242 77.7773 11.8066 77.4492 11.7949C77.1328 11.7715 76.9453 11.7598 76.8867 11.7598L74.8477 11.8477C74.8008 11.8008 74.7773 11.707 74.7773 11.5664C74.7891 11.4141 74.8184 11.3379 74.8652 11.3379C75.0059 11.3379 75.1816 11.3086 75.3926 11.25C75.6035 11.1914 75.7266 11.1152 75.7617 11.0215C75.7734 10.9746 75.7793 10.9277 75.7793 10.8809C75.791 10.834 75.7969 10.7871 75.7969 10.7402C75.7969 10.5879 75.7793 10.4121 75.7441 10.2129C75.709 10.002 75.668 9.83789 75.6211 9.7207L74.8301 7.54102C74.7949 7.49414 74.7598 7.4707 74.7246 7.4707C74.2676 7.43555 73.8223 7.41797 73.3887 7.41797C73.084 7.41797 72.7441 7.42969 72.3691 7.45312C72.0059 7.46484 71.6016 7.48242 71.1562 7.50586L71.0684 7.55859L70.3125 9.49219C70.1953 9.78516 70.1133 10.0312 70.0664 10.2305C70.0312 10.4297 70.0137 10.5879 70.0137 10.7051C70.0137 10.8691 70.0605 10.9863 70.1543 11.0566C70.2598 11.1387 70.4297 11.209 70.6641 11.2676C70.8984 11.3145 71.0684 11.3379 71.1738 11.3379C71.209 11.3379 71.2266 11.4082 71.2266 11.5488C71.2383 11.6895 71.2324 11.7891 71.209 11.8477L69.3984 11.7598C69.0703 11.7363 68.748 11.7422 68.4316 11.7773C68.127 11.8008 67.8398 11.8242 67.5703 11.8477ZM72.7734 6.57422C73.3008 6.57422 73.834 6.55664 74.373 6.52148L74.4258 6.43359L73.002 2.54883L71.4902 6.46875C71.4902 6.51562 71.502 6.53906 71.5254 6.53906C71.8301 6.55078 72.082 6.5625 72.2812 6.57422C72.4922 6.57422 72.6562 6.57422 72.7734 6.57422ZM81.4043 11.8477C81.3574 11.8008 81.334 11.7129 81.334 11.584C81.334 11.4199 81.3574 11.3379 81.4043 11.3379C81.5098 11.3379 81.6504 11.3262 81.8262 11.3027C82.002 11.2676 82.166 11.2207 82.3184 11.1621C82.4707 11.1035 82.5586 11.0449 82.582 10.9863C82.6289 10.8223 82.6582 10.6113 82.6699 10.3535C82.6934 10.0957 82.7051 9.78516 82.7051 9.42188V3.05859C82.7051 2.03906 82.6523 1.43555 82.5469 1.24805C82.4648 1.07227 81.832 0.984375 80.6484 0.984375C80.2031 0.984375 79.8574 1.02539 79.6113 1.10742C79.3652 1.17773 79.1777 1.32422 79.0488 1.54688C78.9199 1.76953 78.7969 2.10352 78.6797 2.54883C78.6562 2.60742 78.5977 2.63672 78.5039 2.63672C78.3047 2.63672 78.1641 2.5957 78.082 2.51367L78.416 0C78.6738 0.0585938 78.9023 0.105469 79.1016 0.140625C79.3008 0.175781 79.4766 0.193359 79.6289 0.193359C80.4727 0.193359 81.2168 0.205078 81.8613 0.228516C82.5059 0.251953 83.0449 0.263672 83.4785 0.263672C84.3809 0.263672 85.1543 0.251953 85.7988 0.228516C86.4551 0.205078 86.9707 0.193359 87.3457 0.193359C87.498 0.193359 87.6738 0.175781 87.873 0.140625C88.0723 0.105469 88.3008 0.0585938 88.5586 0L88.8926 2.51367C88.8105 2.5957 88.6699 2.63672 88.4707 2.63672C88.377 2.63672 88.3184 2.60742 88.2949 2.54883C88.1895 2.10352 88.0664 1.76953 87.9258 1.54688C87.7969 1.32422 87.6094 1.17773 87.3633 1.10742C87.1172 1.02539 86.7715 0.984375 86.3262 0.984375C85.0957 0.984375 84.4512 1.07227 84.3926 1.24805C84.2871 1.61133 84.2344 2.19727 84.2344 3.00586V9.35156C84.2344 10.0312 84.2871 10.5762 84.3926 10.9863C84.416 11.0332 84.5039 11.0859 84.6562 11.1445C84.8086 11.2031 84.9727 11.25 85.1484 11.2852C85.3242 11.3203 85.4473 11.3379 85.5176 11.3379C85.5645 11.3379 85.5879 11.4258 85.5879 11.6016C85.5879 11.6719 85.5762 11.7539 85.5527 11.8477C84.9668 11.8242 84.5039 11.8066 84.1641 11.7949C83.8242 11.7715 83.6074 11.7598 83.5137 11.7598L81.4043 11.8477ZM90.0879 11.8477C90.041 11.8008 90.0176 11.7129 90.0176 11.584C90.0176 11.4199 90.041 11.3379 90.0879 11.3379C90.1934 11.3379 90.334 11.3262 90.5098 11.3027C90.6855 11.2676 90.8496 11.2207 91.002 11.1621C91.1543 11.1035 91.2422 11.0449 91.2656 10.9863C91.3125 10.8223 91.3418 10.6113 91.3535 10.3535C91.377 10.0957 91.3887 9.78516 91.3887 9.42188V2.60156C91.3887 2.23828 91.377 1.92773 91.3535 1.66992C91.3418 1.40039 91.3125 1.18945 91.2656 1.03711C91.2422 0.966797 91.1543 0.908203 91.002 0.861328C90.8496 0.802734 90.6855 0.755859 90.5098 0.720703C90.334 0.685547 90.1934 0.667969 90.0879 0.667969C90.041 0.667969 90.0176 0.591797 90.0176 0.439453C90.0176 0.298828 90.041 0.205078 90.0879 0.158203L92.1973 0.246094C92.291 0.246094 92.5078 0.240234 92.8477 0.228516C93.1875 0.205078 93.6504 0.181641 94.2363 0.158203C94.2598 0.251953 94.2715 0.339844 94.2715 0.421875C94.2715 0.585938 94.248 0.667969 94.2012 0.667969C94.1309 0.667969 94.0078 0.691406 93.832 0.738281C93.6562 0.773438 93.4922 0.820312 93.3398 0.878906C93.1875 0.925781 93.0996 0.978516 93.0762 1.03711C92.9707 1.43555 92.918 1.98047 92.918 2.67188V9.35156C92.918 10.0312 92.9707 10.5762 93.0762 10.9863C93.0996 11.0332 93.1875 11.0859 93.3398 11.1445C93.4922 11.2031 93.6562 11.25 93.832 11.2852C94.0078 11.3203 94.1309 11.3379 94.2012 11.3379C94.248 11.3379 94.2715 11.4258 94.2715 11.6016C94.2715 11.6719 94.2598 11.7539 94.2363 11.8477C93.6504 11.8242 93.1875 11.8066 92.8477 11.7949C92.5078 11.7715 92.291 11.7598 92.1973 11.7598L90.0879 11.8477ZM97.3652 10.2305C96.2637 9.08203 95.7129 7.68164 95.7129 6.0293C95.7129 5.20898 95.8594 4.44141 96.1523 3.72656C96.4453 3 96.8438 2.36719 97.3477 1.82812C97.8633 1.27734 98.4609 0.849609 99.1406 0.544922C99.8203 0.228516 100.547 0.0703125 101.32 0.0703125C102.094 0.0703125 102.82 0.228516 103.5 0.544922C104.18 0.849609 104.777 1.27734 105.293 1.82812C105.809 2.36719 106.213 3 106.506 3.72656C106.799 4.44141 106.945 5.20898 106.945 6.0293C106.945 7.68164 106.395 9.08203 105.293 10.2305C104.543 11.0273 103.693 11.5547 102.744 11.8125C101.795 12.082 100.846 12.082 99.8965 11.8125C98.959 11.5547 98.1152 11.0273 97.3652 10.2305ZM101.602 11.2148C102.352 11.2148 103.008 10.9688 103.57 10.4766C104.133 9.99609 104.543 9.39844 104.801 8.68359C105.07 7.95703 105.205 7.18359 105.205 6.36328C105.205 5.4375 105.053 4.55273 104.748 3.70898C104.443 2.87695 103.969 2.18555 103.324 1.63477C102.68 1.08398 101.924 0.808594 101.057 0.808594C100.318 0.808594 99.6797 1.03711 99.1406 1.49414C98.6016 1.93945 98.1855 2.53125 97.8926 3.26953C97.5996 3.99609 97.4531 4.78711 97.4531 5.64258C97.4531 6.56836 97.6055 7.45312 97.9102 8.29688C98.2148 9.12891 98.6895 9.82617 99.334 10.3887C99.9785 10.9395 100.734 11.2148 101.602 11.2148ZM118.107 11.8828C117.92 11.8828 117.727 11.748 117.527 11.4785L110.707 1.81055V9.31641C110.707 10.1133 110.748 10.6582 110.83 10.9512C110.854 10.998 110.953 11.0566 111.129 11.127C111.316 11.1855 111.516 11.2383 111.727 11.2852C111.938 11.3203 112.078 11.3379 112.148 11.3379C112.184 11.3379 112.201 11.4082 112.201 11.5488C112.213 11.6895 112.207 11.7891 112.184 11.8477C111.598 11.8242 111.135 11.8066 110.795 11.7949C110.467 11.7715 110.256 11.7598 110.162 11.7598L108.141 11.8477C108.105 11.8125 108.088 11.7246 108.088 11.584C108.088 11.4199 108.105 11.3379 108.141 11.3379C108.258 11.3379 108.422 11.3203 108.633 11.2852C108.844 11.2383 109.043 11.1855 109.23 11.127C109.418 11.0566 109.523 10.9863 109.547 10.916C109.664 10.6348 109.723 10.084 109.723 9.26367V2.35547C109.723 1.75781 109.682 1.31836 109.6 1.03711C109.576 0.966797 109.471 0.908203 109.283 0.861328C109.107 0.802734 108.914 0.755859 108.703 0.720703C108.492 0.685547 108.328 0.667969 108.211 0.667969C108.164 0.667969 108.141 0.591797 108.141 0.439453C108.141 0.298828 108.164 0.205078 108.211 0.158203C108.668 0.169922 109.043 0.181641 109.336 0.193359C109.641 0.193359 109.863 0.193359 110.004 0.193359C110.309 0.193359 110.578 0.193359 110.812 0.193359C111.047 0.181641 111.246 0.169922 111.41 0.158203C111.633 0.556641 112.236 1.47656 113.221 2.91797C114.217 4.34766 115.6 6.29883 117.369 8.77148C117.404 8.57227 117.422 8.33203 117.422 8.05078V2.58398C117.422 1.8457 117.381 1.33008 117.299 1.03711C117.275 0.966797 117.17 0.902344 116.982 0.84375C116.795 0.785156 116.596 0.738281 116.385 0.703125C116.174 0.65625 116.016 0.632812 115.91 0.632812C115.863 0.632812 115.84 0.5625 115.84 0.421875C115.84 0.292969 115.863 0.205078 115.91 0.158203C116.016 0.158203 116.191 0.169922 116.438 0.193359C116.684 0.205078 116.947 0.222656 117.229 0.246094C117.521 0.257812 117.773 0.263672 117.984 0.263672C118.289 0.263672 118.676 0.246094 119.145 0.210938C119.602 0.175781 119.871 0.158203 119.953 0.158203C119.977 0.251953 119.988 0.339844 119.988 0.421875C119.988 0.5625 119.965 0.632812 119.918 0.632812C119.848 0.632812 119.701 0.65625 119.479 0.703125C119.256 0.75 119.045 0.802734 118.846 0.861328C118.658 0.919922 118.553 0.978516 118.529 1.03711C118.482 1.22461 118.447 1.45312 118.424 1.72266C118.4 1.99219 118.389 2.30859 118.389 2.67188V9.35156C118.389 10.0781 118.406 10.8984 118.441 11.8125C118.395 11.8594 118.283 11.8828 118.107 11.8828Z" fill="white"/>
</svg>
